G75*
%MOIN*%
%OFA0B0*%
%FSLAX25Y25*%
%IPPOS*%
%LPD*%
%AMOC8*
5,1,8,0,0,1.08239X$1,22.5*
%
%ADD10R,0.05118X0.06299*%
%ADD11OC8,0.06400*%
%ADD12C,0.06400*%
%ADD13R,0.07008X0.02835*%
%ADD14R,0.23000X0.23000*%
%ADD15R,0.03937X0.04331*%
%ADD16R,0.06299X0.05512*%
%ADD17R,0.04331X0.03937*%
%ADD18C,0.01181*%
%ADD19R,0.02165X0.04724*%
%ADD20R,0.05000X0.02200*%
%ADD21R,0.02200X0.05000*%
%ADD22R,0.03000X0.06000*%
%ADD23C,0.01772*%
%ADD24C,0.01000*%
%ADD25C,0.07200*%
%ADD26C,0.03937*%
%ADD27C,0.00600*%
%ADD28C,0.02000*%
%ADD29C,0.03765*%
%ADD30C,0.02400*%
%ADD31C,0.03200*%
D10*
X0089063Y0088300D03*
X0096937Y0088300D03*
X0103063Y0120300D03*
X0110937Y0120300D03*
D11*
X0116000Y0105300D03*
X0087000Y0072300D03*
X0071000Y0055300D03*
X0087000Y0042300D03*
X0085000Y0119300D03*
X0071000Y0119300D03*
X0071000Y0149300D03*
X0080000Y0162300D03*
X0085000Y0149300D03*
X0050000Y0162300D03*
X0146000Y0105300D03*
D12*
X0071000Y0063300D03*
D13*
X0074252Y0088800D03*
X0074252Y0093800D03*
X0074252Y0098800D03*
X0074252Y0103800D03*
X0055748Y0103800D03*
X0055748Y0098800D03*
X0055748Y0093800D03*
X0055748Y0088800D03*
D14*
X0029000Y0074300D03*
X0029000Y0118300D03*
X0029000Y0162300D03*
X0029000Y0206300D03*
D15*
X0065000Y0187646D03*
X0065000Y0180954D03*
X0124000Y0147646D03*
X0124000Y0140954D03*
X0138000Y0187954D03*
X0138000Y0194646D03*
X0138000Y0079646D03*
X0138000Y0072954D03*
D16*
X0134000Y0060812D03*
X0134000Y0049788D03*
X0102000Y0049788D03*
X0102000Y0060812D03*
D17*
X0121654Y0079300D03*
X0128346Y0079300D03*
X0139654Y0129300D03*
X0146346Y0129300D03*
X0146346Y0139300D03*
X0139654Y0139300D03*
X0080346Y0182300D03*
X0073654Y0182300D03*
X0072346Y0194300D03*
X0065654Y0194300D03*
D18*
X0064622Y0201469D02*
X0067378Y0201469D01*
X0064622Y0201469D02*
X0064622Y0204225D01*
X0067378Y0204225D01*
X0067378Y0201469D01*
X0067378Y0202591D02*
X0064622Y0202591D01*
X0064622Y0203713D02*
X0067378Y0203713D01*
X0067378Y0208375D02*
X0064622Y0208375D01*
X0064622Y0211131D01*
X0067378Y0211131D01*
X0067378Y0208375D01*
X0067378Y0209497D02*
X0064622Y0209497D01*
X0064622Y0210619D02*
X0067378Y0210619D01*
X0113622Y0077375D02*
X0116378Y0077375D01*
X0113622Y0077375D02*
X0113622Y0080131D01*
X0116378Y0080131D01*
X0116378Y0077375D01*
X0116378Y0078497D02*
X0113622Y0078497D01*
X0113622Y0079619D02*
X0116378Y0079619D01*
X0116378Y0070469D02*
X0113622Y0070469D01*
X0113622Y0073225D01*
X0116378Y0073225D01*
X0116378Y0070469D01*
X0116378Y0071591D02*
X0113622Y0071591D01*
X0113622Y0072713D02*
X0116378Y0072713D01*
D19*
X0115260Y0060419D03*
X0122740Y0060419D03*
X0122740Y0050181D03*
X0119000Y0050181D03*
X0115260Y0050181D03*
D20*
G36*
X0096300Y0177566D02*
X0099834Y0181100D01*
X0101390Y0179544D01*
X0097856Y0176010D01*
X0096300Y0177566D01*
G37*
G36*
X0094073Y0179793D02*
X0097607Y0183327D01*
X0099163Y0181771D01*
X0095629Y0178237D01*
X0094073Y0179793D01*
G37*
G36*
X0091846Y0182020D02*
X0095380Y0185554D01*
X0096936Y0183998D01*
X0093402Y0180464D01*
X0091846Y0182020D01*
G37*
G36*
X0089618Y0184247D02*
X0093152Y0187781D01*
X0094708Y0186225D01*
X0091174Y0182691D01*
X0089618Y0184247D01*
G37*
G36*
X0087391Y0186474D02*
X0090925Y0190008D01*
X0092481Y0188452D01*
X0088947Y0184918D01*
X0087391Y0186474D01*
G37*
G36*
X0085164Y0188702D02*
X0088698Y0192236D01*
X0090254Y0190680D01*
X0086720Y0187146D01*
X0085164Y0188702D01*
G37*
G36*
X0082937Y0190929D02*
X0086471Y0194463D01*
X0088027Y0192907D01*
X0084493Y0189373D01*
X0082937Y0190929D01*
G37*
G36*
X0080710Y0193156D02*
X0084244Y0196690D01*
X0085800Y0195134D01*
X0082266Y0191600D01*
X0080710Y0193156D01*
G37*
G36*
X0104610Y0217056D02*
X0108144Y0220590D01*
X0109700Y0219034D01*
X0106166Y0215500D01*
X0104610Y0217056D01*
G37*
G36*
X0106837Y0214829D02*
X0110371Y0218363D01*
X0111927Y0216807D01*
X0108393Y0213273D01*
X0106837Y0214829D01*
G37*
G36*
X0109064Y0212602D02*
X0112598Y0216136D01*
X0114154Y0214580D01*
X0110620Y0211046D01*
X0109064Y0212602D01*
G37*
G36*
X0111292Y0210375D02*
X0114826Y0213909D01*
X0116382Y0212353D01*
X0112848Y0208819D01*
X0111292Y0210375D01*
G37*
G36*
X0113519Y0208148D02*
X0117053Y0211682D01*
X0118609Y0210126D01*
X0115075Y0206592D01*
X0113519Y0208148D01*
G37*
G36*
X0115746Y0205920D02*
X0119280Y0209454D01*
X0120836Y0207898D01*
X0117302Y0204364D01*
X0115746Y0205920D01*
G37*
G36*
X0117973Y0203693D02*
X0121507Y0207227D01*
X0123063Y0205671D01*
X0119529Y0202137D01*
X0117973Y0203693D01*
G37*
G36*
X0120200Y0201466D02*
X0123734Y0205000D01*
X0125290Y0203444D01*
X0121756Y0199910D01*
X0120200Y0201466D01*
G37*
D21*
G36*
X0120200Y0195134D02*
X0121756Y0196690D01*
X0125290Y0193156D01*
X0123734Y0191600D01*
X0120200Y0195134D01*
G37*
G36*
X0117973Y0192907D02*
X0119529Y0194463D01*
X0123063Y0190929D01*
X0121507Y0189373D01*
X0117973Y0192907D01*
G37*
G36*
X0115746Y0190680D02*
X0117302Y0192236D01*
X0120836Y0188702D01*
X0119280Y0187146D01*
X0115746Y0190680D01*
G37*
G36*
X0113519Y0188452D02*
X0115075Y0190008D01*
X0118609Y0186474D01*
X0117053Y0184918D01*
X0113519Y0188452D01*
G37*
G36*
X0111292Y0186225D02*
X0112848Y0187781D01*
X0116382Y0184247D01*
X0114826Y0182691D01*
X0111292Y0186225D01*
G37*
G36*
X0109064Y0183998D02*
X0110620Y0185554D01*
X0114154Y0182020D01*
X0112598Y0180464D01*
X0109064Y0183998D01*
G37*
G36*
X0106837Y0181771D02*
X0108393Y0183327D01*
X0111927Y0179793D01*
X0110371Y0178237D01*
X0106837Y0181771D01*
G37*
G36*
X0104610Y0179544D02*
X0106166Y0181100D01*
X0109700Y0177566D01*
X0108144Y0176010D01*
X0104610Y0179544D01*
G37*
G36*
X0082937Y0205671D02*
X0084493Y0207227D01*
X0088027Y0203693D01*
X0086471Y0202137D01*
X0082937Y0205671D01*
G37*
G36*
X0080710Y0203444D02*
X0082266Y0205000D01*
X0085800Y0201466D01*
X0084244Y0199910D01*
X0080710Y0203444D01*
G37*
G36*
X0085164Y0207898D02*
X0086720Y0209454D01*
X0090254Y0205920D01*
X0088698Y0204364D01*
X0085164Y0207898D01*
G37*
G36*
X0087391Y0210126D02*
X0088947Y0211682D01*
X0092481Y0208148D01*
X0090925Y0206592D01*
X0087391Y0210126D01*
G37*
G36*
X0089618Y0212353D02*
X0091174Y0213909D01*
X0094708Y0210375D01*
X0093152Y0208819D01*
X0089618Y0212353D01*
G37*
G36*
X0091846Y0214580D02*
X0093402Y0216136D01*
X0096936Y0212602D01*
X0095380Y0211046D01*
X0091846Y0214580D01*
G37*
G36*
X0094073Y0216807D02*
X0095629Y0218363D01*
X0099163Y0214829D01*
X0097607Y0213273D01*
X0094073Y0216807D01*
G37*
G36*
X0096300Y0219034D02*
X0097856Y0220590D01*
X0101390Y0217056D01*
X0099834Y0215500D01*
X0096300Y0219034D01*
G37*
D22*
X0124500Y0177300D03*
X0124500Y0155300D03*
X0139500Y0155300D03*
X0139500Y0177300D03*
D23*
X0118724Y0225436D02*
X0118724Y0231164D01*
X0114000Y0231164D02*
X0114000Y0225436D01*
X0109276Y0225436D02*
X0109276Y0231164D01*
D24*
X0109276Y0232300D02*
X0109276Y0228300D01*
X0109276Y0224300D01*
X0114000Y0224300D02*
X0114000Y0228300D01*
X0114000Y0232300D01*
X0118724Y0232300D02*
X0118724Y0228300D01*
X0118724Y0224300D01*
D25*
X0116000Y0246700D02*
X0116000Y0253900D01*
X0106000Y0253900D02*
X0106000Y0246700D01*
X0096000Y0246700D02*
X0096000Y0253900D01*
X0086000Y0253900D02*
X0086000Y0246700D01*
X0076000Y0246700D02*
X0076000Y0253900D01*
X0066000Y0253900D02*
X0066000Y0246700D01*
X0157400Y0211300D02*
X0164600Y0211300D01*
X0164600Y0201300D02*
X0157400Y0201300D01*
X0157400Y0191300D02*
X0164600Y0191300D01*
X0164600Y0181300D02*
X0157400Y0181300D01*
X0157400Y0171300D02*
X0164600Y0171300D01*
X0164600Y0161300D02*
X0157400Y0161300D01*
X0157400Y0139300D02*
X0164600Y0139300D01*
X0164600Y0129300D02*
X0157400Y0129300D01*
X0157400Y0119300D02*
X0164600Y0119300D01*
X0164600Y0109300D02*
X0157400Y0109300D01*
X0152100Y0094700D02*
X0152100Y0087500D01*
X0152100Y0069100D02*
X0152100Y0061900D01*
X0169900Y0061900D02*
X0169900Y0069100D01*
X0169900Y0087500D02*
X0169900Y0094700D01*
X0127000Y0032900D02*
X0127000Y0025700D01*
X0117000Y0025700D02*
X0117000Y0032900D01*
D26*
X0074000Y0040300D03*
X0136000Y0230300D03*
D27*
X0015000Y0062300D02*
X0017000Y0060300D01*
X0041000Y0060300D01*
X0059000Y0078300D01*
X0059000Y0094300D01*
X0049000Y0094300D01*
X0043000Y0088300D01*
X0017000Y0088300D01*
X0015000Y0086300D01*
X0015000Y0062300D01*
X0015000Y0062575D02*
X0043275Y0062575D01*
X0043873Y0063173D02*
X0015000Y0063173D01*
X0015000Y0063772D02*
X0044472Y0063772D01*
X0045070Y0064370D02*
X0015000Y0064370D01*
X0015000Y0064969D02*
X0045669Y0064969D01*
X0046268Y0065568D02*
X0015000Y0065568D01*
X0015000Y0066166D02*
X0046866Y0066166D01*
X0047465Y0066765D02*
X0015000Y0066765D01*
X0015000Y0067363D02*
X0048063Y0067363D01*
X0048662Y0067962D02*
X0015000Y0067962D01*
X0015000Y0068560D02*
X0049260Y0068560D01*
X0049859Y0069159D02*
X0015000Y0069159D01*
X0015000Y0069757D02*
X0050457Y0069757D01*
X0051056Y0070356D02*
X0015000Y0070356D01*
X0015000Y0070954D02*
X0051654Y0070954D01*
X0052253Y0071553D02*
X0015000Y0071553D01*
X0015000Y0072151D02*
X0052851Y0072151D01*
X0053450Y0072750D02*
X0015000Y0072750D01*
X0015000Y0073348D02*
X0054048Y0073348D01*
X0054647Y0073947D02*
X0015000Y0073947D01*
X0015000Y0074545D02*
X0055245Y0074545D01*
X0055844Y0075144D02*
X0015000Y0075144D01*
X0015000Y0075742D02*
X0056442Y0075742D01*
X0057041Y0076341D02*
X0015000Y0076341D01*
X0015000Y0076939D02*
X0057639Y0076939D01*
X0058238Y0077538D02*
X0015000Y0077538D01*
X0015000Y0078136D02*
X0058836Y0078136D01*
X0059000Y0078735D02*
X0015000Y0078735D01*
X0015000Y0079333D02*
X0059000Y0079333D01*
X0059000Y0079932D02*
X0015000Y0079932D01*
X0015000Y0080530D02*
X0059000Y0080530D01*
X0059000Y0081129D02*
X0015000Y0081129D01*
X0015000Y0081727D02*
X0059000Y0081727D01*
X0059000Y0082326D02*
X0015000Y0082326D01*
X0015000Y0082924D02*
X0059000Y0082924D01*
X0059000Y0083523D02*
X0015000Y0083523D01*
X0015000Y0084121D02*
X0059000Y0084121D01*
X0059000Y0084720D02*
X0015000Y0084720D01*
X0015000Y0085318D02*
X0059000Y0085318D01*
X0059000Y0085917D02*
X0015000Y0085917D01*
X0015215Y0086515D02*
X0059000Y0086515D01*
X0059000Y0087114D02*
X0015814Y0087114D01*
X0016412Y0087712D02*
X0059000Y0087712D01*
X0059000Y0088311D02*
X0043011Y0088311D01*
X0043609Y0088909D02*
X0059000Y0088909D01*
X0059000Y0089508D02*
X0044208Y0089508D01*
X0044806Y0090106D02*
X0059000Y0090106D01*
X0059000Y0090705D02*
X0045405Y0090705D01*
X0046003Y0091303D02*
X0059000Y0091303D01*
X0059000Y0091902D02*
X0046602Y0091902D01*
X0047201Y0092501D02*
X0059000Y0092501D01*
X0059000Y0093099D02*
X0047799Y0093099D01*
X0048398Y0093698D02*
X0059000Y0093698D01*
X0059000Y0094296D02*
X0048996Y0094296D01*
X0049000Y0098300D02*
X0043000Y0104300D01*
X0017000Y0104300D01*
X0015000Y0106300D01*
X0015000Y0130300D01*
X0017000Y0132300D01*
X0041000Y0132300D01*
X0059000Y0114300D01*
X0059000Y0098300D01*
X0049000Y0098300D01*
X0048814Y0098486D02*
X0059000Y0098486D01*
X0059000Y0099084D02*
X0048216Y0099084D01*
X0047617Y0099683D02*
X0059000Y0099683D01*
X0059000Y0100281D02*
X0047019Y0100281D01*
X0046420Y0100880D02*
X0059000Y0100880D01*
X0059000Y0101478D02*
X0045822Y0101478D01*
X0045223Y0102077D02*
X0059000Y0102077D01*
X0059000Y0102675D02*
X0044625Y0102675D01*
X0044026Y0103274D02*
X0059000Y0103274D01*
X0059000Y0103872D02*
X0043428Y0103872D01*
X0055063Y0118237D02*
X0015000Y0118237D01*
X0015000Y0118835D02*
X0054465Y0118835D01*
X0053866Y0119434D02*
X0015000Y0119434D01*
X0015000Y0120032D02*
X0053268Y0120032D01*
X0052669Y0120631D02*
X0015000Y0120631D01*
X0015000Y0121229D02*
X0052071Y0121229D01*
X0051472Y0121828D02*
X0015000Y0121828D01*
X0015000Y0122426D02*
X0050874Y0122426D01*
X0050275Y0123025D02*
X0015000Y0123025D01*
X0015000Y0123623D02*
X0049677Y0123623D01*
X0049078Y0124222D02*
X0015000Y0124222D01*
X0015000Y0124820D02*
X0048480Y0124820D01*
X0047881Y0125419D02*
X0015000Y0125419D01*
X0015000Y0126017D02*
X0047283Y0126017D01*
X0046684Y0126616D02*
X0015000Y0126616D01*
X0015000Y0127214D02*
X0046086Y0127214D01*
X0045487Y0127813D02*
X0015000Y0127813D01*
X0015000Y0128411D02*
X0044889Y0128411D01*
X0044290Y0129010D02*
X0015000Y0129010D01*
X0015000Y0129608D02*
X0043692Y0129608D01*
X0043093Y0130207D02*
X0015000Y0130207D01*
X0015505Y0130805D02*
X0042495Y0130805D01*
X0041896Y0131404D02*
X0016104Y0131404D01*
X0016702Y0132002D02*
X0041298Y0132002D01*
X0041000Y0148300D02*
X0017000Y0148300D01*
X0015000Y0150300D01*
X0015000Y0218300D01*
X0017000Y0220300D01*
X0041000Y0220300D01*
X0043000Y0218300D01*
X0043000Y0150300D01*
X0041000Y0148300D01*
X0041461Y0148761D02*
X0016539Y0148761D01*
X0015941Y0149359D02*
X0042059Y0149359D01*
X0042658Y0149958D02*
X0015342Y0149958D01*
X0015000Y0150556D02*
X0043000Y0150556D01*
X0043000Y0151155D02*
X0015000Y0151155D01*
X0015000Y0151753D02*
X0043000Y0151753D01*
X0043000Y0152352D02*
X0015000Y0152352D01*
X0015000Y0152950D02*
X0043000Y0152950D01*
X0043000Y0153549D02*
X0015000Y0153549D01*
X0015000Y0154147D02*
X0043000Y0154147D01*
X0043000Y0154746D02*
X0015000Y0154746D01*
X0015000Y0155344D02*
X0043000Y0155344D01*
X0043000Y0155943D02*
X0015000Y0155943D01*
X0015000Y0156541D02*
X0043000Y0156541D01*
X0043000Y0157140D02*
X0015000Y0157140D01*
X0015000Y0157738D02*
X0043000Y0157738D01*
X0043000Y0158337D02*
X0015000Y0158337D01*
X0015000Y0158935D02*
X0043000Y0158935D01*
X0043000Y0159534D02*
X0015000Y0159534D01*
X0015000Y0160132D02*
X0043000Y0160132D01*
X0043000Y0160731D02*
X0015000Y0160731D01*
X0015000Y0161329D02*
X0043000Y0161329D01*
X0043000Y0161928D02*
X0015000Y0161928D01*
X0015000Y0162526D02*
X0043000Y0162526D01*
X0043000Y0163125D02*
X0015000Y0163125D01*
X0015000Y0163723D02*
X0043000Y0163723D01*
X0043000Y0164322D02*
X0015000Y0164322D01*
X0015000Y0164920D02*
X0043000Y0164920D01*
X0043000Y0165519D02*
X0015000Y0165519D01*
X0015000Y0166117D02*
X0043000Y0166117D01*
X0043000Y0166716D02*
X0015000Y0166716D01*
X0015000Y0167314D02*
X0043000Y0167314D01*
X0043000Y0167913D02*
X0015000Y0167913D01*
X0015000Y0168511D02*
X0043000Y0168511D01*
X0043000Y0169110D02*
X0015000Y0169110D01*
X0015000Y0169708D02*
X0043000Y0169708D01*
X0043000Y0170307D02*
X0015000Y0170307D01*
X0015000Y0170905D02*
X0043000Y0170905D01*
X0043000Y0171504D02*
X0015000Y0171504D01*
X0015000Y0172103D02*
X0043000Y0172103D01*
X0043000Y0172701D02*
X0015000Y0172701D01*
X0015000Y0173300D02*
X0043000Y0173300D01*
X0043000Y0173898D02*
X0015000Y0173898D01*
X0015000Y0174497D02*
X0043000Y0174497D01*
X0043000Y0175095D02*
X0015000Y0175095D01*
X0015000Y0175694D02*
X0043000Y0175694D01*
X0043000Y0176292D02*
X0015000Y0176292D01*
X0015000Y0176891D02*
X0043000Y0176891D01*
X0043000Y0177489D02*
X0015000Y0177489D01*
X0015000Y0178088D02*
X0043000Y0178088D01*
X0043000Y0178686D02*
X0015000Y0178686D01*
X0015000Y0179285D02*
X0043000Y0179285D01*
X0043000Y0179883D02*
X0015000Y0179883D01*
X0015000Y0180482D02*
X0043000Y0180482D01*
X0043000Y0181080D02*
X0015000Y0181080D01*
X0015000Y0181679D02*
X0043000Y0181679D01*
X0043000Y0182277D02*
X0015000Y0182277D01*
X0015000Y0182876D02*
X0043000Y0182876D01*
X0043000Y0183474D02*
X0015000Y0183474D01*
X0015000Y0184073D02*
X0043000Y0184073D01*
X0043000Y0184671D02*
X0015000Y0184671D01*
X0015000Y0185270D02*
X0043000Y0185270D01*
X0043000Y0185868D02*
X0015000Y0185868D01*
X0015000Y0186467D02*
X0043000Y0186467D01*
X0043000Y0187065D02*
X0015000Y0187065D01*
X0015000Y0187664D02*
X0043000Y0187664D01*
X0043000Y0188262D02*
X0015000Y0188262D01*
X0015000Y0188861D02*
X0043000Y0188861D01*
X0043000Y0189459D02*
X0015000Y0189459D01*
X0015000Y0190058D02*
X0043000Y0190058D01*
X0043000Y0190656D02*
X0015000Y0190656D01*
X0015000Y0191255D02*
X0043000Y0191255D01*
X0043000Y0191853D02*
X0015000Y0191853D01*
X0015000Y0192452D02*
X0043000Y0192452D01*
X0043000Y0193050D02*
X0015000Y0193050D01*
X0015000Y0193649D02*
X0043000Y0193649D01*
X0043000Y0194247D02*
X0015000Y0194247D01*
X0015000Y0194846D02*
X0043000Y0194846D01*
X0043000Y0195444D02*
X0015000Y0195444D01*
X0015000Y0196043D02*
X0043000Y0196043D01*
X0043000Y0196641D02*
X0015000Y0196641D01*
X0015000Y0197240D02*
X0043000Y0197240D01*
X0043000Y0197839D02*
X0015000Y0197839D01*
X0015000Y0198437D02*
X0043000Y0198437D01*
X0043000Y0199036D02*
X0015000Y0199036D01*
X0015000Y0199634D02*
X0043000Y0199634D01*
X0043000Y0200233D02*
X0015000Y0200233D01*
X0015000Y0200831D02*
X0043000Y0200831D01*
X0043000Y0201430D02*
X0015000Y0201430D01*
X0015000Y0202028D02*
X0043000Y0202028D01*
X0043000Y0202627D02*
X0015000Y0202627D01*
X0015000Y0203225D02*
X0043000Y0203225D01*
X0043000Y0203824D02*
X0015000Y0203824D01*
X0015000Y0204422D02*
X0043000Y0204422D01*
X0043000Y0205021D02*
X0015000Y0205021D01*
X0015000Y0205619D02*
X0043000Y0205619D01*
X0043000Y0206218D02*
X0015000Y0206218D01*
X0015000Y0206816D02*
X0043000Y0206816D01*
X0043000Y0207415D02*
X0015000Y0207415D01*
X0015000Y0208013D02*
X0043000Y0208013D01*
X0043000Y0208612D02*
X0015000Y0208612D01*
X0015000Y0209210D02*
X0043000Y0209210D01*
X0043000Y0209809D02*
X0015000Y0209809D01*
X0015000Y0210407D02*
X0043000Y0210407D01*
X0043000Y0211006D02*
X0015000Y0211006D01*
X0015000Y0211604D02*
X0043000Y0211604D01*
X0043000Y0212203D02*
X0015000Y0212203D01*
X0015000Y0212801D02*
X0043000Y0212801D01*
X0043000Y0213400D02*
X0015000Y0213400D01*
X0015000Y0213998D02*
X0043000Y0213998D01*
X0043000Y0214597D02*
X0015000Y0214597D01*
X0015000Y0215195D02*
X0043000Y0215195D01*
X0043000Y0215794D02*
X0015000Y0215794D01*
X0015000Y0216392D02*
X0043000Y0216392D01*
X0043000Y0216991D02*
X0015000Y0216991D01*
X0015000Y0217589D02*
X0043000Y0217589D01*
X0043000Y0218188D02*
X0015000Y0218188D01*
X0015486Y0218786D02*
X0042514Y0218786D01*
X0041915Y0219385D02*
X0016085Y0219385D01*
X0016683Y0219983D02*
X0041317Y0219983D01*
X0062100Y0219983D02*
X0070953Y0219983D01*
X0071551Y0219385D02*
X0062100Y0219385D01*
X0062100Y0218786D02*
X0072150Y0218786D01*
X0072500Y0218436D02*
X0063451Y0227485D01*
X0063451Y0227485D01*
X0062185Y0228751D01*
X0062100Y0228956D01*
X0062100Y0207488D01*
X0062305Y0207693D01*
X0062793Y0207895D01*
X0062731Y0208126D01*
X0062731Y0209453D01*
X0065700Y0209453D01*
X0065700Y0210053D01*
X0065700Y0213021D01*
X0064373Y0213021D01*
X0063892Y0212892D01*
X0063461Y0212644D01*
X0063109Y0212292D01*
X0062860Y0211860D01*
X0062731Y0211380D01*
X0062731Y0210053D01*
X0065700Y0210053D01*
X0066300Y0210053D01*
X0066300Y0213021D01*
X0067627Y0213021D01*
X0068108Y0212892D01*
X0068539Y0212644D01*
X0068891Y0212292D01*
X0069140Y0211860D01*
X0069268Y0211380D01*
X0069268Y0210053D01*
X0066300Y0210053D01*
X0066300Y0209453D01*
X0069268Y0209453D01*
X0069268Y0208126D01*
X0069207Y0207895D01*
X0069695Y0207693D01*
X0070846Y0206542D01*
X0070955Y0206279D01*
X0071929Y0206683D01*
X0072969Y0206683D01*
X0072500Y0207815D01*
X0072500Y0218436D01*
X0072500Y0218188D02*
X0062100Y0218188D01*
X0062100Y0217589D02*
X0072500Y0217589D01*
X0072500Y0216991D02*
X0062100Y0216991D01*
X0062100Y0216392D02*
X0072500Y0216392D01*
X0072500Y0215794D02*
X0062100Y0215794D01*
X0062100Y0215195D02*
X0072500Y0215195D01*
X0072500Y0214597D02*
X0062100Y0214597D01*
X0062100Y0213998D02*
X0072500Y0213998D01*
X0072500Y0213400D02*
X0062100Y0213400D01*
X0062100Y0212801D02*
X0063734Y0212801D01*
X0063058Y0212203D02*
X0062100Y0212203D01*
X0062100Y0211604D02*
X0062792Y0211604D01*
X0062731Y0211006D02*
X0062100Y0211006D01*
X0062100Y0210407D02*
X0062731Y0210407D01*
X0062100Y0209809D02*
X0065700Y0209809D01*
X0065700Y0210407D02*
X0066300Y0210407D01*
X0066300Y0209809D02*
X0072500Y0209809D01*
X0072500Y0210407D02*
X0069268Y0210407D01*
X0069268Y0211006D02*
X0072500Y0211006D01*
X0072500Y0211604D02*
X0069208Y0211604D01*
X0068942Y0212203D02*
X0072500Y0212203D01*
X0072500Y0212801D02*
X0068266Y0212801D01*
X0066300Y0212801D02*
X0065700Y0212801D01*
X0065700Y0212203D02*
X0066300Y0212203D01*
X0066300Y0211604D02*
X0065700Y0211604D01*
X0065700Y0211006D02*
X0066300Y0211006D01*
X0069268Y0209210D02*
X0072500Y0209210D01*
X0072500Y0208612D02*
X0069268Y0208612D01*
X0069238Y0208013D02*
X0072500Y0208013D01*
X0072666Y0207415D02*
X0069973Y0207415D01*
X0070572Y0206816D02*
X0072914Y0206816D01*
X0070354Y0220582D02*
X0062100Y0220582D01*
X0062100Y0221180D02*
X0069756Y0221180D01*
X0069157Y0221779D02*
X0062100Y0221779D01*
X0062100Y0222377D02*
X0068559Y0222377D01*
X0067960Y0222976D02*
X0062100Y0222976D01*
X0062100Y0223574D02*
X0067362Y0223574D01*
X0066763Y0224173D02*
X0062100Y0224173D01*
X0062100Y0224772D02*
X0066165Y0224772D01*
X0065566Y0225370D02*
X0062100Y0225370D01*
X0062100Y0225969D02*
X0064967Y0225969D01*
X0064369Y0226567D02*
X0062100Y0226567D01*
X0062100Y0227166D02*
X0063770Y0227166D01*
X0063172Y0227764D02*
X0062100Y0227764D01*
X0062100Y0228363D02*
X0062573Y0228363D01*
X0062731Y0209210D02*
X0062100Y0209210D01*
X0062100Y0208612D02*
X0062731Y0208612D01*
X0062762Y0208013D02*
X0062100Y0208013D01*
X0061016Y0182546D02*
X0061049Y0182514D01*
X0061731Y0182231D01*
X0061731Y0181254D01*
X0064700Y0181254D01*
X0064700Y0180654D01*
X0061731Y0180654D01*
X0061731Y0178617D01*
X0061820Y0178286D01*
X0061991Y0177990D01*
X0062233Y0177748D01*
X0062530Y0177577D01*
X0062860Y0177488D01*
X0064700Y0177488D01*
X0064700Y0180653D01*
X0065300Y0180653D01*
X0065300Y0177488D01*
X0067140Y0177488D01*
X0067470Y0177577D01*
X0067767Y0177748D01*
X0068009Y0177990D01*
X0068180Y0178286D01*
X0068268Y0178617D01*
X0068268Y0180654D01*
X0065300Y0180654D01*
X0065300Y0181254D01*
X0068268Y0181254D01*
X0068268Y0182231D01*
X0068951Y0182514D01*
X0068984Y0182546D01*
X0073353Y0182546D01*
X0073353Y0182000D01*
X0070188Y0182000D01*
X0070188Y0180160D01*
X0070277Y0179830D01*
X0070448Y0179533D01*
X0070690Y0179291D01*
X0070986Y0179120D01*
X0071317Y0179031D01*
X0073354Y0179031D01*
X0073354Y0182000D01*
X0073954Y0182000D01*
X0073954Y0179031D01*
X0074931Y0179031D01*
X0075214Y0178349D01*
X0076199Y0177364D01*
X0077485Y0176831D01*
X0083208Y0176831D01*
X0083225Y0176839D01*
X0082617Y0175371D01*
X0082617Y0173229D01*
X0083437Y0171251D01*
X0084307Y0170381D01*
X0082851Y0168925D01*
X0082775Y0169000D01*
X0081947Y0169000D01*
X0075662Y0175284D01*
X0073935Y0176000D01*
X0060000Y0176000D01*
X0060000Y0182546D01*
X0061016Y0182546D01*
X0061620Y0182277D02*
X0060000Y0182277D01*
X0060000Y0181679D02*
X0061731Y0181679D01*
X0061731Y0180482D02*
X0060000Y0180482D01*
X0060000Y0181080D02*
X0064700Y0181080D01*
X0064700Y0180482D02*
X0065300Y0180482D01*
X0065300Y0181080D02*
X0070188Y0181080D01*
X0070188Y0180482D02*
X0068268Y0180482D01*
X0068268Y0179883D02*
X0070262Y0179883D01*
X0070701Y0179285D02*
X0068268Y0179285D01*
X0068268Y0178686D02*
X0075074Y0178686D01*
X0075475Y0178088D02*
X0068065Y0178088D01*
X0067143Y0177489D02*
X0076074Y0177489D01*
X0077342Y0176891D02*
X0060000Y0176891D01*
X0060000Y0177489D02*
X0062857Y0177489D01*
X0061935Y0178088D02*
X0060000Y0178088D01*
X0060000Y0178686D02*
X0061731Y0178686D01*
X0061731Y0179285D02*
X0060000Y0179285D01*
X0060000Y0179883D02*
X0061731Y0179883D01*
X0064700Y0179883D02*
X0065300Y0179883D01*
X0065300Y0179285D02*
X0064700Y0179285D01*
X0064700Y0178686D02*
X0065300Y0178686D01*
X0065300Y0178088D02*
X0064700Y0178088D01*
X0064700Y0177489D02*
X0065300Y0177489D01*
X0068268Y0181679D02*
X0070188Y0181679D01*
X0068380Y0182277D02*
X0073353Y0182277D01*
X0073354Y0181679D02*
X0073954Y0181679D01*
X0073954Y0181080D02*
X0073354Y0181080D01*
X0073354Y0180482D02*
X0073954Y0180482D01*
X0073954Y0179883D02*
X0073354Y0179883D01*
X0073354Y0179285D02*
X0073954Y0179285D01*
X0074675Y0175694D02*
X0082751Y0175694D01*
X0082617Y0175095D02*
X0075852Y0175095D01*
X0076450Y0174497D02*
X0082617Y0174497D01*
X0082617Y0173898D02*
X0077049Y0173898D01*
X0077647Y0173300D02*
X0082617Y0173300D01*
X0082836Y0172701D02*
X0078246Y0172701D01*
X0078844Y0172103D02*
X0083084Y0172103D01*
X0083332Y0171504D02*
X0079443Y0171504D01*
X0080041Y0170905D02*
X0083782Y0170905D01*
X0084233Y0170307D02*
X0080640Y0170307D01*
X0081238Y0169708D02*
X0083634Y0169708D01*
X0083036Y0169110D02*
X0081837Y0169110D01*
X0082999Y0176292D02*
X0060000Y0176292D01*
X0086500Y0214185D02*
X0086500Y0218436D01*
X0098549Y0230485D01*
X0099815Y0231751D01*
X0100500Y0233405D01*
X0100500Y0241159D01*
X0101000Y0241659D01*
X0101978Y0240681D01*
X0104588Y0239600D01*
X0107412Y0239600D01*
X0110022Y0240681D01*
X0112019Y0242678D01*
X0112333Y0243437D01*
X0112808Y0242962D01*
X0113432Y0242509D01*
X0114119Y0242159D01*
X0114853Y0241921D01*
X0115614Y0241800D01*
X0115700Y0241800D01*
X0115700Y0250000D01*
X0116300Y0250000D01*
X0116300Y0250600D01*
X0115700Y0250600D01*
X0115700Y0258800D01*
X0115614Y0258800D01*
X0114853Y0258679D01*
X0114119Y0258441D01*
X0113432Y0258091D01*
X0112808Y0257637D01*
X0112333Y0257163D01*
X0112019Y0257922D01*
X0110022Y0259919D01*
X0107412Y0261000D01*
X0104588Y0261000D01*
X0101978Y0259919D01*
X0101000Y0258941D01*
X0100022Y0259919D01*
X0097412Y0261000D01*
X0094588Y0261000D01*
X0091978Y0259919D01*
X0091000Y0258941D01*
X0090022Y0259919D01*
X0087412Y0261000D01*
X0084588Y0261000D01*
X0081978Y0259919D01*
X0081100Y0259041D01*
X0081100Y0259314D01*
X0080324Y0261189D01*
X0077812Y0263701D01*
X0146187Y0263701D01*
X0142874Y0260606D01*
X0140114Y0256069D01*
X0138682Y0250955D01*
X0138682Y0245645D01*
X0140114Y0240531D01*
X0142874Y0235994D01*
X0146755Y0232369D01*
X0151470Y0229926D01*
X0156669Y0228845D01*
X0161967Y0229208D01*
X0161967Y0229208D01*
X0166971Y0230986D01*
X0166971Y0230986D01*
X0171310Y0234049D01*
X0173621Y0236890D01*
X0173621Y0097908D01*
X0173092Y0098437D01*
X0172468Y0098891D01*
X0171781Y0099241D01*
X0171047Y0099479D01*
X0170286Y0099600D01*
X0170200Y0099600D01*
X0170200Y0091400D01*
X0169600Y0091400D01*
X0169600Y0099600D01*
X0169514Y0099600D01*
X0168753Y0099479D01*
X0168019Y0099241D01*
X0167332Y0098891D01*
X0166708Y0098437D01*
X0166162Y0097892D01*
X0165709Y0097268D01*
X0165359Y0096581D01*
X0165121Y0095847D01*
X0165000Y0095086D01*
X0165000Y0091400D01*
X0169600Y0091400D01*
X0169600Y0090800D01*
X0170200Y0090800D01*
X0170200Y0082600D01*
X0170286Y0082600D01*
X0171047Y0082721D01*
X0171781Y0082959D01*
X0172468Y0083309D01*
X0173092Y0083762D01*
X0173621Y0084292D01*
X0173621Y0072308D01*
X0173092Y0072838D01*
X0172468Y0073291D01*
X0171781Y0073641D01*
X0171047Y0073879D01*
X0170286Y0074000D01*
X0170200Y0074000D01*
X0170200Y0065800D01*
X0169600Y0065800D01*
X0169600Y0074000D01*
X0169514Y0074000D01*
X0168753Y0073879D01*
X0168019Y0073641D01*
X0167332Y0073291D01*
X0166708Y0072838D01*
X0166162Y0072292D01*
X0165709Y0071668D01*
X0165359Y0070981D01*
X0165121Y0070247D01*
X0165000Y0069486D01*
X0165000Y0065800D01*
X0169600Y0065800D01*
X0169600Y0065200D01*
X0170200Y0065200D01*
X0170200Y0057000D01*
X0170286Y0057000D01*
X0171047Y0057121D01*
X0171781Y0057359D01*
X0172468Y0057709D01*
X0173092Y0058162D01*
X0173621Y0058692D01*
X0173621Y0043710D01*
X0171310Y0046551D01*
X0171310Y0046551D01*
X0166971Y0049614D01*
X0161967Y0051392D01*
X0156669Y0051755D01*
X0151470Y0050674D01*
X0151470Y0050674D01*
X0146755Y0048231D01*
X0146755Y0048231D01*
X0142874Y0044606D01*
X0140114Y0040069D01*
X0138682Y0034955D01*
X0138682Y0029645D01*
X0140114Y0024531D01*
X0142874Y0019994D01*
X0146508Y0016600D01*
X0060000Y0016600D01*
X0060000Y0060627D01*
X0061662Y0061316D01*
X0064300Y0063953D01*
X0064300Y0061967D01*
X0065320Y0059505D01*
X0067080Y0057744D01*
X0066500Y0057164D01*
X0066500Y0055600D01*
X0070700Y0055600D01*
X0070700Y0055000D01*
X0071300Y0055000D01*
X0071300Y0055600D01*
X0075500Y0055600D01*
X0075500Y0057164D01*
X0074920Y0057744D01*
X0076680Y0059505D01*
X0077700Y0061967D01*
X0077700Y0064633D01*
X0076680Y0067095D01*
X0074795Y0068980D01*
X0072333Y0070000D01*
X0070347Y0070000D01*
X0071984Y0071638D01*
X0072700Y0073365D01*
X0072700Y0086083D01*
X0073952Y0086083D01*
X0073952Y0088500D01*
X0074552Y0088500D01*
X0074552Y0088883D01*
X0078452Y0088883D01*
X0078977Y0089100D01*
X0079056Y0089100D01*
X0081616Y0089100D01*
X0083004Y0087712D01*
X0083004Y0084454D01*
X0083537Y0083168D01*
X0084521Y0082183D01*
X0085808Y0081650D01*
X0092318Y0081650D01*
X0093605Y0082183D01*
X0094589Y0083168D01*
X0094872Y0083850D01*
X0096637Y0083850D01*
X0096637Y0088000D01*
X0097237Y0088000D01*
X0097237Y0088600D01*
X0096637Y0088600D01*
X0096637Y0092750D01*
X0094872Y0092750D01*
X0094589Y0093432D01*
X0093605Y0094417D01*
X0092318Y0094950D01*
X0091640Y0094950D01*
X0092442Y0095751D01*
X0093261Y0097729D01*
X0093261Y0099871D01*
X0092442Y0101849D01*
X0091850Y0102440D01*
X0100531Y0111122D01*
X0107853Y0103800D01*
X0103016Y0098962D01*
X0102300Y0097235D01*
X0102300Y0080297D01*
X0102200Y0080056D01*
X0102200Y0074544D01*
X0102779Y0073147D01*
X0102823Y0073103D01*
X0103016Y0072638D01*
X0104338Y0071316D01*
X0104803Y0071123D01*
X0109200Y0066726D01*
X0109200Y0060544D01*
X0109779Y0059147D01*
X0110677Y0058249D01*
X0110677Y0057360D01*
X0111210Y0056074D01*
X0111984Y0055300D01*
X0111210Y0054526D01*
X0111111Y0054288D01*
X0108216Y0054288D01*
X0108117Y0054527D01*
X0107132Y0055511D01*
X0105846Y0056044D01*
X0098154Y0056044D01*
X0096868Y0055511D01*
X0095883Y0054527D01*
X0095350Y0053240D01*
X0095350Y0046336D01*
X0095883Y0045050D01*
X0096868Y0044065D01*
X0098154Y0043532D01*
X0105846Y0043532D01*
X0107132Y0044065D01*
X0108117Y0045050D01*
X0108216Y0045288D01*
X0110760Y0045288D01*
X0110760Y0045145D01*
X0111445Y0043491D01*
X0112500Y0042436D01*
X0112500Y0038441D01*
X0110981Y0036922D01*
X0109900Y0034312D01*
X0109900Y0024288D01*
X0110981Y0021678D01*
X0112978Y0019681D01*
X0115588Y0018600D01*
X0118412Y0018600D01*
X0121022Y0019681D01*
X0123019Y0021678D01*
X0123333Y0022437D01*
X0123808Y0021962D01*
X0124432Y0021509D01*
X0125119Y0021159D01*
X0125853Y0020921D01*
X0126614Y0020800D01*
X0126700Y0020800D01*
X0126700Y0029000D01*
X0127300Y0029000D01*
X0127300Y0029600D01*
X0131900Y0029600D01*
X0131900Y0033286D01*
X0131779Y0034047D01*
X0131541Y0034781D01*
X0131191Y0035468D01*
X0130737Y0036092D01*
X0130192Y0036638D01*
X0129568Y0037091D01*
X0128881Y0037441D01*
X0128147Y0037679D01*
X0127386Y0037800D01*
X0127300Y0037800D01*
X0127300Y0029600D01*
X0126700Y0029600D01*
X0126700Y0037800D01*
X0126614Y0037800D01*
X0125853Y0037679D01*
X0125119Y0037441D01*
X0124432Y0037091D01*
X0123808Y0036638D01*
X0123333Y0036163D01*
X0123019Y0036922D01*
X0121500Y0038441D01*
X0121500Y0039800D01*
X0121895Y0039800D01*
X0123549Y0040485D01*
X0124815Y0041751D01*
X0126555Y0043491D01*
X0127240Y0045145D01*
X0127240Y0046923D01*
X0127323Y0047123D01*
X0127323Y0053240D01*
X0126790Y0054526D01*
X0126016Y0055300D01*
X0126790Y0056074D01*
X0127101Y0056825D01*
X0127779Y0056147D01*
X0128847Y0055079D01*
X0130244Y0054500D01*
X0138756Y0054500D01*
X0140153Y0055079D01*
X0142153Y0057079D01*
X0143221Y0058147D01*
X0143800Y0059544D01*
X0143800Y0074056D01*
X0143468Y0074856D01*
X0143468Y0075815D01*
X0142936Y0077101D01*
X0141951Y0078086D01*
X0141268Y0078369D01*
X0141268Y0079346D01*
X0138300Y0079346D01*
X0138300Y0079946D01*
X0141268Y0079946D01*
X0141268Y0081983D01*
X0141180Y0082314D01*
X0141009Y0082610D01*
X0140767Y0082852D01*
X0140470Y0083023D01*
X0140140Y0083112D01*
X0138300Y0083112D01*
X0138300Y0079946D01*
X0137700Y0079946D01*
X0137700Y0079346D01*
X0134731Y0079346D01*
X0134731Y0078369D01*
X0134083Y0078100D01*
X0131812Y0078100D01*
X0131812Y0079000D01*
X0128646Y0079000D01*
X0128646Y0079600D01*
X0128046Y0079600D01*
X0128046Y0082568D01*
X0127069Y0082568D01*
X0126786Y0083251D01*
X0125801Y0084236D01*
X0124515Y0084768D01*
X0118792Y0084768D01*
X0117506Y0084236D01*
X0117403Y0084133D01*
X0117192Y0084221D01*
X0112808Y0084221D01*
X0111700Y0083762D01*
X0111700Y0094353D01*
X0115947Y0098600D01*
X0118775Y0098600D01*
X0122700Y0102525D01*
X0122700Y0108075D01*
X0118775Y0112000D01*
X0113225Y0112000D01*
X0113086Y0111861D01*
X0109096Y0115850D01*
X0110637Y0115850D01*
X0110637Y0120000D01*
X0111237Y0120000D01*
X0111237Y0120600D01*
X0110637Y0120600D01*
X0110637Y0124750D01*
X0108872Y0124750D01*
X0108589Y0125432D01*
X0108163Y0125858D01*
X0108163Y0127558D01*
X0116459Y0135854D01*
X0118617Y0135854D01*
X0118617Y0134229D01*
X0119437Y0132251D01*
X0120951Y0130737D01*
X0122929Y0129917D01*
X0125071Y0129917D01*
X0127049Y0130737D01*
X0128563Y0132251D01*
X0129383Y0134229D01*
X0129383Y0135854D01*
X0134312Y0135854D01*
X0134521Y0135349D01*
X0134554Y0135316D01*
X0134554Y0133284D01*
X0134521Y0133251D01*
X0133988Y0131965D01*
X0133988Y0126635D01*
X0134521Y0125349D01*
X0134554Y0125316D01*
X0134554Y0122632D01*
X0135330Y0120758D01*
X0141111Y0114976D01*
X0142986Y0114200D01*
X0152459Y0114200D01*
X0153378Y0113281D01*
X0154137Y0112967D01*
X0153662Y0112492D01*
X0153209Y0111868D01*
X0152859Y0111181D01*
X0152621Y0110447D01*
X0152500Y0109686D01*
X0152500Y0109600D01*
X0160700Y0109600D01*
X0160700Y0109000D01*
X0161300Y0109000D01*
X0161300Y0109600D01*
X0169500Y0109600D01*
X0169500Y0109686D01*
X0169379Y0110447D01*
X0169141Y0111181D01*
X0168791Y0111868D01*
X0168338Y0112492D01*
X0167863Y0112967D01*
X0168622Y0113281D01*
X0170619Y0115278D01*
X0171700Y0117888D01*
X0171700Y0120712D01*
X0170619Y0123322D01*
X0169641Y0124300D01*
X0170619Y0125278D01*
X0171700Y0127888D01*
X0171700Y0130712D01*
X0170619Y0133322D01*
X0169641Y0134300D01*
X0170619Y0135278D01*
X0171700Y0137888D01*
X0171700Y0140712D01*
X0170619Y0143322D01*
X0168622Y0145319D01*
X0166012Y0146400D01*
X0155988Y0146400D01*
X0153378Y0145319D01*
X0151859Y0143800D01*
X0150930Y0143800D01*
X0150494Y0144236D01*
X0149208Y0144768D01*
X0143485Y0144768D01*
X0143000Y0144568D01*
X0142515Y0144768D01*
X0141398Y0144768D01*
X0140889Y0145277D01*
X0139014Y0146054D01*
X0129468Y0146054D01*
X0129468Y0150508D01*
X0129257Y0151018D01*
X0129500Y0151604D01*
X0129500Y0158996D01*
X0129000Y0160203D01*
X0129000Y0172397D01*
X0129167Y0172800D01*
X0129395Y0172800D01*
X0131049Y0173485D01*
X0132315Y0174751D01*
X0136700Y0179136D01*
X0136700Y0177600D01*
X0139200Y0177600D01*
X0139200Y0181600D01*
X0139164Y0181600D01*
X0139852Y0182288D01*
X0140665Y0182288D01*
X0141951Y0182821D01*
X0142936Y0183806D01*
X0143468Y0185092D01*
X0143468Y0190815D01*
X0143268Y0191300D01*
X0143468Y0191785D01*
X0143468Y0197508D01*
X0142936Y0198794D01*
X0142500Y0199230D01*
X0142500Y0200436D01*
X0148864Y0206800D01*
X0151859Y0206800D01*
X0152359Y0206300D01*
X0151381Y0205322D01*
X0150300Y0202712D01*
X0150300Y0199888D01*
X0151381Y0197278D01*
X0152359Y0196300D01*
X0151381Y0195322D01*
X0150300Y0192712D01*
X0150300Y0189888D01*
X0151381Y0187278D01*
X0152359Y0186300D01*
X0151381Y0185322D01*
X0150300Y0182712D01*
X0150300Y0179888D01*
X0151381Y0177278D01*
X0153378Y0175281D01*
X0154137Y0174967D01*
X0153662Y0174492D01*
X0153209Y0173868D01*
X0152859Y0173181D01*
X0152621Y0172447D01*
X0152500Y0171686D01*
X0152500Y0171600D01*
X0160700Y0171600D01*
X0160700Y0171000D01*
X0161300Y0171000D01*
X0161300Y0171600D01*
X0169500Y0171600D01*
X0169500Y0171686D01*
X0169379Y0172447D01*
X0169141Y0173181D01*
X0168791Y0173868D01*
X0168338Y0174492D01*
X0167863Y0174967D01*
X0168622Y0175281D01*
X0170619Y0177278D01*
X0171700Y0179888D01*
X0171700Y0182712D01*
X0170619Y0185322D01*
X0169641Y0186300D01*
X0170619Y0187278D01*
X0171700Y0189888D01*
X0171700Y0192712D01*
X0170619Y0195322D01*
X0169641Y0196300D01*
X0170619Y0197278D01*
X0171700Y0199888D01*
X0171700Y0202712D01*
X0170619Y0205322D01*
X0169641Y0206300D01*
X0170619Y0207278D01*
X0171700Y0209888D01*
X0171700Y0212712D01*
X0170619Y0215322D01*
X0168622Y0217319D01*
X0166012Y0218400D01*
X0155988Y0218400D01*
X0153378Y0217319D01*
X0151859Y0215800D01*
X0146105Y0215800D01*
X0144451Y0215115D01*
X0135451Y0206115D01*
X0134185Y0204849D01*
X0133500Y0203195D01*
X0133500Y0199230D01*
X0133165Y0198895D01*
X0132563Y0200349D01*
X0131049Y0201863D01*
X0129071Y0202683D01*
X0128763Y0202683D01*
X0128791Y0202749D01*
X0128791Y0204141D01*
X0128258Y0205428D01*
X0126031Y0207655D01*
X0123490Y0210195D01*
X0123151Y0210336D01*
X0123500Y0211178D01*
X0123500Y0213188D01*
X0123563Y0213251D01*
X0124383Y0215229D01*
X0124383Y0217371D01*
X0123563Y0219349D01*
X0122488Y0220424D01*
X0122539Y0220475D01*
X0123224Y0222129D01*
X0123224Y0229195D01*
X0123110Y0229471D01*
X0123110Y0232037D01*
X0122724Y0232968D01*
X0122724Y0233096D01*
X0122115Y0234566D01*
X0120990Y0235691D01*
X0119520Y0236300D01*
X0117929Y0236300D01*
X0116459Y0235691D01*
X0115333Y0234566D01*
X0114776Y0233219D01*
X0114288Y0233350D01*
X0114143Y0233350D01*
X0114143Y0228443D01*
X0113857Y0228443D01*
X0113857Y0233350D01*
X0113712Y0233350D01*
X0113224Y0233219D01*
X0112667Y0234566D01*
X0111541Y0235691D01*
X0110071Y0236300D01*
X0108480Y0236300D01*
X0107010Y0235691D01*
X0105885Y0234566D01*
X0105276Y0233096D01*
X0105276Y0232968D01*
X0104890Y0232037D01*
X0104890Y0229471D01*
X0104776Y0229195D01*
X0104776Y0222171D01*
X0103000Y0220395D01*
X0099837Y0223558D01*
X0098551Y0224091D01*
X0097159Y0224091D01*
X0095872Y0223558D01*
X0093645Y0221331D01*
X0091418Y0219103D01*
X0089191Y0216876D01*
X0086964Y0214649D01*
X0086500Y0214185D01*
X0086500Y0214597D02*
X0086911Y0214597D01*
X0086500Y0215195D02*
X0087510Y0215195D01*
X0088108Y0215794D02*
X0086500Y0215794D01*
X0086500Y0216392D02*
X0088707Y0216392D01*
X0089305Y0216991D02*
X0086500Y0216991D01*
X0086500Y0217589D02*
X0089904Y0217589D01*
X0090502Y0218188D02*
X0086500Y0218188D01*
X0086850Y0218786D02*
X0091101Y0218786D01*
X0091699Y0219385D02*
X0087449Y0219385D01*
X0088047Y0219983D02*
X0092298Y0219983D01*
X0092896Y0220582D02*
X0088646Y0220582D01*
X0089244Y0221180D02*
X0093495Y0221180D01*
X0094093Y0221779D02*
X0089843Y0221779D01*
X0090441Y0222377D02*
X0094692Y0222377D01*
X0095291Y0222976D02*
X0091040Y0222976D01*
X0091638Y0223574D02*
X0095913Y0223574D01*
X0094033Y0225969D02*
X0104776Y0225969D01*
X0104776Y0226567D02*
X0094631Y0226567D01*
X0095230Y0227166D02*
X0104776Y0227166D01*
X0104776Y0227764D02*
X0095828Y0227764D01*
X0096427Y0228363D02*
X0104776Y0228363D01*
X0104776Y0228961D02*
X0097025Y0228961D01*
X0097624Y0229560D02*
X0104890Y0229560D01*
X0104890Y0230158D02*
X0098222Y0230158D01*
X0098821Y0230757D02*
X0104890Y0230757D01*
X0104890Y0231355D02*
X0099419Y0231355D01*
X0099899Y0231954D02*
X0104890Y0231954D01*
X0105103Y0232552D02*
X0100147Y0232552D01*
X0100395Y0233151D02*
X0105298Y0233151D01*
X0105546Y0233749D02*
X0100500Y0233749D01*
X0100500Y0234348D02*
X0105794Y0234348D01*
X0106265Y0234946D02*
X0100500Y0234946D01*
X0100500Y0235545D02*
X0106863Y0235545D01*
X0108102Y0236143D02*
X0100500Y0236143D01*
X0100500Y0236742D02*
X0142419Y0236742D01*
X0142055Y0237340D02*
X0100500Y0237340D01*
X0100500Y0237939D02*
X0141691Y0237939D01*
X0141327Y0238537D02*
X0100500Y0238537D01*
X0100500Y0239136D02*
X0140963Y0239136D01*
X0140599Y0239734D02*
X0107737Y0239734D01*
X0109181Y0240333D02*
X0140235Y0240333D01*
X0140114Y0240531D02*
X0140114Y0240531D01*
X0140002Y0240931D02*
X0110272Y0240931D01*
X0110871Y0241530D02*
X0139835Y0241530D01*
X0139667Y0242128D02*
X0117787Y0242128D01*
X0117881Y0242159D02*
X0118568Y0242509D01*
X0119192Y0242962D01*
X0119737Y0243508D01*
X0120191Y0244132D01*
X0120541Y0244819D01*
X0120779Y0245553D01*
X0120900Y0246314D01*
X0120900Y0250000D01*
X0116300Y0250000D01*
X0116300Y0241800D01*
X0116386Y0241800D01*
X0117147Y0241921D01*
X0117881Y0242159D01*
X0118868Y0242727D02*
X0139499Y0242727D01*
X0139331Y0243325D02*
X0119555Y0243325D01*
X0120040Y0243924D02*
X0139164Y0243924D01*
X0138996Y0244522D02*
X0120390Y0244522D01*
X0120639Y0245121D02*
X0138828Y0245121D01*
X0138682Y0245719D02*
X0120806Y0245719D01*
X0120900Y0246318D02*
X0138682Y0246318D01*
X0138682Y0246916D02*
X0120900Y0246916D01*
X0120900Y0247515D02*
X0138682Y0247515D01*
X0138682Y0248113D02*
X0120900Y0248113D01*
X0120900Y0248712D02*
X0138682Y0248712D01*
X0138682Y0249310D02*
X0120900Y0249310D01*
X0120900Y0249909D02*
X0138682Y0249909D01*
X0138682Y0250508D02*
X0116300Y0250508D01*
X0116300Y0250600D02*
X0120900Y0250600D01*
X0120900Y0254286D01*
X0120779Y0255047D01*
X0120541Y0255781D01*
X0120191Y0256468D01*
X0119737Y0257092D01*
X0119192Y0257637D01*
X0118568Y0258091D01*
X0117881Y0258441D01*
X0117147Y0258679D01*
X0116386Y0258800D01*
X0116300Y0258800D01*
X0116300Y0250600D01*
X0116300Y0251106D02*
X0115700Y0251106D01*
X0115700Y0251705D02*
X0116300Y0251705D01*
X0116300Y0252303D02*
X0115700Y0252303D01*
X0115700Y0252902D02*
X0116300Y0252902D01*
X0116300Y0253500D02*
X0115700Y0253500D01*
X0115700Y0254099D02*
X0116300Y0254099D01*
X0116300Y0254697D02*
X0115700Y0254697D01*
X0115700Y0255296D02*
X0116300Y0255296D01*
X0116300Y0255894D02*
X0115700Y0255894D01*
X0115700Y0256493D02*
X0116300Y0256493D01*
X0116300Y0257091D02*
X0115700Y0257091D01*
X0115700Y0257690D02*
X0116300Y0257690D01*
X0116300Y0258288D02*
X0115700Y0258288D01*
X0113819Y0258288D02*
X0111653Y0258288D01*
X0112115Y0257690D02*
X0112880Y0257690D01*
X0111054Y0258887D02*
X0141828Y0258887D01*
X0142192Y0259485D02*
X0110456Y0259485D01*
X0109624Y0260084D02*
X0142556Y0260084D01*
X0142874Y0260606D02*
X0142874Y0260606D01*
X0142955Y0260682D02*
X0108180Y0260682D01*
X0103820Y0260682D02*
X0098180Y0260682D01*
X0099624Y0260084D02*
X0102376Y0260084D01*
X0101544Y0259485D02*
X0100456Y0259485D01*
X0093820Y0260682D02*
X0088180Y0260682D01*
X0089624Y0260084D02*
X0092376Y0260084D01*
X0091544Y0259485D02*
X0090456Y0259485D01*
X0083820Y0260682D02*
X0080533Y0260682D01*
X0080781Y0260084D02*
X0082376Y0260084D01*
X0081544Y0259485D02*
X0081029Y0259485D01*
X0080232Y0261281D02*
X0143596Y0261281D01*
X0144237Y0261879D02*
X0079633Y0261879D01*
X0079035Y0262478D02*
X0144878Y0262478D01*
X0145518Y0263076D02*
X0078436Y0263076D01*
X0077838Y0263675D02*
X0146159Y0263675D01*
X0141464Y0258288D02*
X0118181Y0258288D01*
X0119120Y0257690D02*
X0141100Y0257690D01*
X0140736Y0257091D02*
X0119738Y0257091D01*
X0120173Y0256493D02*
X0140372Y0256493D01*
X0140114Y0256069D02*
X0140114Y0256069D01*
X0140065Y0255894D02*
X0120483Y0255894D01*
X0120699Y0255296D02*
X0139898Y0255296D01*
X0139730Y0254697D02*
X0120835Y0254697D01*
X0120900Y0254099D02*
X0139562Y0254099D01*
X0139395Y0253500D02*
X0120900Y0253500D01*
X0120900Y0252902D02*
X0139227Y0252902D01*
X0139059Y0252303D02*
X0120900Y0252303D01*
X0120900Y0251705D02*
X0138892Y0251705D01*
X0138724Y0251106D02*
X0120900Y0251106D01*
X0116300Y0249909D02*
X0115700Y0249909D01*
X0115700Y0249310D02*
X0116300Y0249310D01*
X0116300Y0248712D02*
X0115700Y0248712D01*
X0115700Y0248113D02*
X0116300Y0248113D01*
X0116300Y0247515D02*
X0115700Y0247515D01*
X0115700Y0246916D02*
X0116300Y0246916D01*
X0116300Y0246318D02*
X0115700Y0246318D01*
X0115700Y0245719D02*
X0116300Y0245719D01*
X0116300Y0245121D02*
X0115700Y0245121D01*
X0115700Y0244522D02*
X0116300Y0244522D01*
X0116300Y0243924D02*
X0115700Y0243924D01*
X0115700Y0243325D02*
X0116300Y0243325D01*
X0116300Y0242727D02*
X0115700Y0242727D01*
X0115700Y0242128D02*
X0116300Y0242128D01*
X0114213Y0242128D02*
X0111469Y0242128D01*
X0112039Y0242727D02*
X0113132Y0242727D01*
X0112445Y0243325D02*
X0112287Y0243325D01*
X0110450Y0236143D02*
X0117550Y0236143D01*
X0116312Y0235545D02*
X0111688Y0235545D01*
X0112286Y0234946D02*
X0115714Y0234946D01*
X0115243Y0234348D02*
X0112757Y0234348D01*
X0113005Y0233749D02*
X0114995Y0233749D01*
X0114143Y0233151D02*
X0113857Y0233151D01*
X0113857Y0232552D02*
X0114143Y0232552D01*
X0114143Y0231954D02*
X0113857Y0231954D01*
X0113857Y0231355D02*
X0114143Y0231355D01*
X0114143Y0230757D02*
X0113857Y0230757D01*
X0113857Y0230158D02*
X0114143Y0230158D01*
X0114143Y0229560D02*
X0113857Y0229560D01*
X0113857Y0228961D02*
X0114143Y0228961D01*
X0119898Y0236143D02*
X0142783Y0236143D01*
X0142874Y0235994D02*
X0142874Y0235994D01*
X0143354Y0235545D02*
X0137628Y0235545D01*
X0137088Y0235768D02*
X0134912Y0235768D01*
X0132902Y0234936D01*
X0131364Y0233398D01*
X0130531Y0231388D01*
X0130531Y0229212D01*
X0131364Y0227202D01*
X0132902Y0225664D01*
X0134912Y0224831D01*
X0137088Y0224831D01*
X0139098Y0225664D01*
X0140636Y0227202D01*
X0141468Y0229212D01*
X0141468Y0231388D01*
X0140636Y0233398D01*
X0139098Y0234936D01*
X0137088Y0235768D01*
X0139073Y0234946D02*
X0143995Y0234946D01*
X0144636Y0234348D02*
X0139686Y0234348D01*
X0140284Y0233749D02*
X0145277Y0233749D01*
X0145918Y0233151D02*
X0140738Y0233151D01*
X0140986Y0232552D02*
X0146559Y0232552D01*
X0146755Y0232369D02*
X0146755Y0232369D01*
X0147556Y0231954D02*
X0141234Y0231954D01*
X0141468Y0231355D02*
X0148712Y0231355D01*
X0149867Y0230757D02*
X0141468Y0230757D01*
X0141468Y0230158D02*
X0151022Y0230158D01*
X0151470Y0229926D02*
X0151470Y0229926D01*
X0153233Y0229560D02*
X0141468Y0229560D01*
X0141364Y0228961D02*
X0156113Y0228961D01*
X0156669Y0228845D02*
X0156669Y0228845D01*
X0158360Y0228961D02*
X0173621Y0228961D01*
X0173621Y0228363D02*
X0141117Y0228363D01*
X0140869Y0227764D02*
X0173621Y0227764D01*
X0173621Y0227166D02*
X0140599Y0227166D01*
X0140001Y0226567D02*
X0173621Y0226567D01*
X0173621Y0225969D02*
X0139402Y0225969D01*
X0138388Y0225370D02*
X0173621Y0225370D01*
X0173621Y0224772D02*
X0123224Y0224772D01*
X0123224Y0225370D02*
X0133612Y0225370D01*
X0132598Y0225969D02*
X0123224Y0225969D01*
X0123224Y0226567D02*
X0131999Y0226567D01*
X0131401Y0227166D02*
X0123224Y0227166D01*
X0123224Y0227764D02*
X0131131Y0227764D01*
X0130883Y0228363D02*
X0123224Y0228363D01*
X0123224Y0228961D02*
X0130636Y0228961D01*
X0130531Y0229560D02*
X0123110Y0229560D01*
X0123110Y0230158D02*
X0130531Y0230158D01*
X0130531Y0230757D02*
X0123110Y0230757D01*
X0123110Y0231355D02*
X0130531Y0231355D01*
X0130766Y0231954D02*
X0123110Y0231954D01*
X0122897Y0232552D02*
X0131014Y0232552D01*
X0131262Y0233151D02*
X0122702Y0233151D01*
X0122454Y0233749D02*
X0131716Y0233749D01*
X0132314Y0234348D02*
X0122206Y0234348D01*
X0121735Y0234946D02*
X0132927Y0234946D01*
X0134372Y0235545D02*
X0121137Y0235545D01*
X0123224Y0224173D02*
X0173621Y0224173D01*
X0173621Y0223574D02*
X0123224Y0223574D01*
X0123224Y0222976D02*
X0173621Y0222976D01*
X0173621Y0222377D02*
X0123224Y0222377D01*
X0123079Y0221779D02*
X0173621Y0221779D01*
X0173621Y0221180D02*
X0122831Y0221180D01*
X0122583Y0220582D02*
X0173621Y0220582D01*
X0173621Y0219983D02*
X0122929Y0219983D01*
X0123527Y0219385D02*
X0173621Y0219385D01*
X0173621Y0218786D02*
X0123796Y0218786D01*
X0124044Y0218188D02*
X0155476Y0218188D01*
X0154031Y0217589D02*
X0124292Y0217589D01*
X0124383Y0216991D02*
X0153050Y0216991D01*
X0152451Y0216392D02*
X0124383Y0216392D01*
X0124383Y0215794D02*
X0146090Y0215794D01*
X0144645Y0215195D02*
X0124369Y0215195D01*
X0124121Y0214597D02*
X0143933Y0214597D01*
X0143334Y0213998D02*
X0123873Y0213998D01*
X0123625Y0213400D02*
X0142736Y0213400D01*
X0142137Y0212801D02*
X0123500Y0212801D01*
X0123500Y0212203D02*
X0141539Y0212203D01*
X0140940Y0211604D02*
X0123500Y0211604D01*
X0123429Y0211006D02*
X0140342Y0211006D01*
X0139743Y0210407D02*
X0123181Y0210407D01*
X0123877Y0209809D02*
X0139145Y0209809D01*
X0138546Y0209210D02*
X0124475Y0209210D01*
X0125074Y0208612D02*
X0137948Y0208612D01*
X0137349Y0208013D02*
X0125672Y0208013D01*
X0126271Y0207415D02*
X0136751Y0207415D01*
X0136152Y0206816D02*
X0126869Y0206816D01*
X0127468Y0206218D02*
X0135554Y0206218D01*
X0134955Y0205619D02*
X0128066Y0205619D01*
X0128426Y0205021D02*
X0134357Y0205021D01*
X0134008Y0204422D02*
X0128674Y0204422D01*
X0128791Y0203824D02*
X0133760Y0203824D01*
X0133512Y0203225D02*
X0128791Y0203225D01*
X0129206Y0202627D02*
X0133500Y0202627D01*
X0133500Y0202028D02*
X0130651Y0202028D01*
X0131483Y0201430D02*
X0133500Y0201430D01*
X0133500Y0200831D02*
X0132081Y0200831D01*
X0132611Y0200233D02*
X0133500Y0200233D01*
X0133500Y0199634D02*
X0132859Y0199634D01*
X0133107Y0199036D02*
X0133305Y0199036D01*
X0142500Y0199634D02*
X0150405Y0199634D01*
X0150300Y0200233D02*
X0142500Y0200233D01*
X0142895Y0200831D02*
X0150300Y0200831D01*
X0150300Y0201430D02*
X0143494Y0201430D01*
X0144092Y0202028D02*
X0150300Y0202028D01*
X0150300Y0202627D02*
X0144691Y0202627D01*
X0145289Y0203225D02*
X0150512Y0203225D01*
X0150760Y0203824D02*
X0145888Y0203824D01*
X0146486Y0204422D02*
X0151008Y0204422D01*
X0151256Y0205021D02*
X0147085Y0205021D01*
X0147683Y0205619D02*
X0151678Y0205619D01*
X0152277Y0206218D02*
X0148282Y0206218D01*
X0150653Y0199036D02*
X0142695Y0199036D01*
X0143084Y0198437D02*
X0150901Y0198437D01*
X0151149Y0197839D02*
X0143332Y0197839D01*
X0143468Y0197240D02*
X0151419Y0197240D01*
X0152018Y0196641D02*
X0143468Y0196641D01*
X0143468Y0196043D02*
X0152102Y0196043D01*
X0151504Y0195444D02*
X0143468Y0195444D01*
X0143468Y0194846D02*
X0151184Y0194846D01*
X0150936Y0194247D02*
X0143468Y0194247D01*
X0143468Y0193649D02*
X0150688Y0193649D01*
X0150440Y0193050D02*
X0143468Y0193050D01*
X0143468Y0192452D02*
X0150300Y0192452D01*
X0150300Y0191853D02*
X0143468Y0191853D01*
X0143286Y0191255D02*
X0150300Y0191255D01*
X0150300Y0190656D02*
X0143468Y0190656D01*
X0143468Y0190058D02*
X0150300Y0190058D01*
X0150477Y0189459D02*
X0143468Y0189459D01*
X0143468Y0188861D02*
X0150725Y0188861D01*
X0150973Y0188262D02*
X0143468Y0188262D01*
X0143468Y0187664D02*
X0151221Y0187664D01*
X0151594Y0187065D02*
X0143468Y0187065D01*
X0143468Y0186467D02*
X0152192Y0186467D01*
X0151927Y0185868D02*
X0143468Y0185868D01*
X0143468Y0185270D02*
X0151359Y0185270D01*
X0151111Y0184671D02*
X0143294Y0184671D01*
X0143046Y0184073D02*
X0150864Y0184073D01*
X0150616Y0183474D02*
X0142604Y0183474D01*
X0142006Y0182876D02*
X0150368Y0182876D01*
X0150300Y0182277D02*
X0139841Y0182277D01*
X0139800Y0181600D02*
X0139800Y0177600D01*
X0139200Y0177600D01*
X0139200Y0177000D01*
X0139800Y0177000D01*
X0139800Y0177600D01*
X0142300Y0177600D01*
X0142300Y0180471D01*
X0142211Y0180802D01*
X0142040Y0181098D01*
X0141798Y0181340D01*
X0141502Y0181511D01*
X0141171Y0181600D01*
X0139800Y0181600D01*
X0139800Y0181080D02*
X0139200Y0181080D01*
X0139200Y0180482D02*
X0139800Y0180482D01*
X0139800Y0179883D02*
X0139200Y0179883D01*
X0139200Y0179285D02*
X0139800Y0179285D01*
X0139800Y0178686D02*
X0139200Y0178686D01*
X0139200Y0178088D02*
X0139800Y0178088D01*
X0139800Y0177489D02*
X0151294Y0177489D01*
X0151046Y0178088D02*
X0142300Y0178088D01*
X0142300Y0178686D02*
X0150798Y0178686D01*
X0150550Y0179285D02*
X0142300Y0179285D01*
X0142300Y0179883D02*
X0150302Y0179883D01*
X0150300Y0180482D02*
X0142297Y0180482D01*
X0142051Y0181080D02*
X0150300Y0181080D01*
X0150300Y0181679D02*
X0139243Y0181679D01*
X0136700Y0178686D02*
X0136250Y0178686D01*
X0136700Y0178088D02*
X0135652Y0178088D01*
X0135053Y0177489D02*
X0139200Y0177489D01*
X0139200Y0177000D02*
X0136700Y0177000D01*
X0136700Y0174129D01*
X0136789Y0173798D01*
X0136960Y0173502D01*
X0137202Y0173260D01*
X0137498Y0173089D01*
X0137829Y0173000D01*
X0139200Y0173000D01*
X0139200Y0177000D01*
X0139200Y0176891D02*
X0139800Y0176891D01*
X0139800Y0177000D02*
X0139800Y0173000D01*
X0141171Y0173000D01*
X0141502Y0173089D01*
X0141798Y0173260D01*
X0142040Y0173502D01*
X0142211Y0173798D01*
X0142300Y0174129D01*
X0142300Y0177000D01*
X0139800Y0177000D01*
X0139800Y0176292D02*
X0139200Y0176292D01*
X0139200Y0175694D02*
X0139800Y0175694D01*
X0139800Y0175095D02*
X0139200Y0175095D01*
X0139200Y0174497D02*
X0139800Y0174497D01*
X0139800Y0173898D02*
X0139200Y0173898D01*
X0139200Y0173300D02*
X0139800Y0173300D01*
X0141838Y0173300D02*
X0152919Y0173300D01*
X0152703Y0172701D02*
X0129126Y0172701D01*
X0129000Y0172103D02*
X0152566Y0172103D01*
X0152500Y0171000D02*
X0152500Y0170914D01*
X0152621Y0170153D01*
X0152859Y0169419D01*
X0153209Y0168732D01*
X0153662Y0168108D01*
X0154208Y0167562D01*
X0154832Y0167109D01*
X0155519Y0166759D01*
X0156253Y0166521D01*
X0157014Y0166400D01*
X0160700Y0166400D01*
X0160700Y0171000D01*
X0152500Y0171000D01*
X0152501Y0170905D02*
X0129000Y0170905D01*
X0129000Y0170307D02*
X0152596Y0170307D01*
X0152765Y0169708D02*
X0129000Y0169708D01*
X0129000Y0169110D02*
X0153016Y0169110D01*
X0153369Y0168511D02*
X0129000Y0168511D01*
X0129000Y0167913D02*
X0153857Y0167913D01*
X0154549Y0167314D02*
X0129000Y0167314D01*
X0129000Y0166716D02*
X0155652Y0166716D01*
X0156253Y0166079D02*
X0155519Y0165841D01*
X0154832Y0165491D01*
X0154208Y0165038D01*
X0153662Y0164492D01*
X0153209Y0163868D01*
X0152859Y0163181D01*
X0152621Y0162447D01*
X0152500Y0161686D01*
X0152500Y0161600D01*
X0160700Y0161600D01*
X0160700Y0166200D01*
X0157014Y0166200D01*
X0156253Y0166079D01*
X0156493Y0166117D02*
X0129000Y0166117D01*
X0129000Y0165519D02*
X0154887Y0165519D01*
X0154091Y0164920D02*
X0129000Y0164920D01*
X0129000Y0164322D02*
X0153539Y0164322D01*
X0153135Y0163723D02*
X0129000Y0163723D01*
X0129000Y0163125D02*
X0152841Y0163125D01*
X0152646Y0162526D02*
X0129000Y0162526D01*
X0129000Y0161928D02*
X0152538Y0161928D01*
X0152500Y0161000D02*
X0152500Y0160914D01*
X0152621Y0160153D01*
X0152859Y0159419D01*
X0153209Y0158732D01*
X0153662Y0158108D01*
X0154208Y0157562D01*
X0154832Y0157109D01*
X0155519Y0156759D01*
X0156253Y0156521D01*
X0157014Y0156400D01*
X0160700Y0156400D01*
X0160700Y0161000D01*
X0161300Y0161000D01*
X0161300Y0161600D01*
X0160700Y0161600D01*
X0160700Y0161000D01*
X0152500Y0161000D01*
X0152529Y0160731D02*
X0129000Y0160731D01*
X0129000Y0161329D02*
X0160700Y0161329D01*
X0160700Y0160731D02*
X0161300Y0160731D01*
X0161300Y0161000D02*
X0161300Y0156400D01*
X0164986Y0156400D01*
X0165747Y0156521D01*
X0166481Y0156759D01*
X0167168Y0157109D01*
X0167792Y0157562D01*
X0168338Y0158108D01*
X0168791Y0158732D01*
X0169141Y0159419D01*
X0169379Y0160153D01*
X0169500Y0160914D01*
X0169500Y0161000D01*
X0161300Y0161000D01*
X0161300Y0161329D02*
X0173621Y0161329D01*
X0173621Y0160731D02*
X0169471Y0160731D01*
X0169373Y0160132D02*
X0173621Y0160132D01*
X0173621Y0159534D02*
X0169178Y0159534D01*
X0168895Y0158935D02*
X0173621Y0158935D01*
X0173621Y0158337D02*
X0168504Y0158337D01*
X0167968Y0157738D02*
X0173621Y0157738D01*
X0173621Y0157140D02*
X0167210Y0157140D01*
X0165811Y0156541D02*
X0173621Y0156541D01*
X0173621Y0155943D02*
X0142300Y0155943D01*
X0142300Y0155600D02*
X0142300Y0158471D01*
X0142211Y0158802D01*
X0142040Y0159098D01*
X0141798Y0159340D01*
X0141502Y0159511D01*
X0141171Y0159600D01*
X0139800Y0159600D01*
X0139800Y0155600D01*
X0142300Y0155600D01*
X0142300Y0155000D02*
X0139800Y0155000D01*
X0139800Y0155600D01*
X0139200Y0155600D01*
X0139200Y0159600D01*
X0137829Y0159600D01*
X0137498Y0159511D01*
X0137202Y0159340D01*
X0136960Y0159098D01*
X0136789Y0158802D01*
X0136700Y0158471D01*
X0136700Y0155600D01*
X0139200Y0155600D01*
X0139200Y0155000D01*
X0139800Y0155000D01*
X0139800Y0151000D01*
X0141171Y0151000D01*
X0141502Y0151089D01*
X0141798Y0151260D01*
X0142040Y0151502D01*
X0142211Y0151798D01*
X0142300Y0152129D01*
X0142300Y0155000D01*
X0142300Y0154746D02*
X0173621Y0154746D01*
X0173621Y0155344D02*
X0139800Y0155344D01*
X0139800Y0154746D02*
X0139200Y0154746D01*
X0139200Y0155000D02*
X0139200Y0151000D01*
X0137829Y0151000D01*
X0137498Y0151089D01*
X0137202Y0151260D01*
X0136960Y0151502D01*
X0136789Y0151798D01*
X0136700Y0152129D01*
X0136700Y0155000D01*
X0139200Y0155000D01*
X0139200Y0155344D02*
X0129500Y0155344D01*
X0129500Y0154746D02*
X0136700Y0154746D01*
X0136700Y0154147D02*
X0129500Y0154147D01*
X0129500Y0153549D02*
X0136700Y0153549D01*
X0136700Y0152950D02*
X0129500Y0152950D01*
X0129500Y0152352D02*
X0136700Y0152352D01*
X0136815Y0151753D02*
X0129500Y0151753D01*
X0129314Y0151155D02*
X0137384Y0151155D01*
X0139200Y0151155D02*
X0139800Y0151155D01*
X0139800Y0151753D02*
X0139200Y0151753D01*
X0139200Y0152352D02*
X0139800Y0152352D01*
X0139800Y0152950D02*
X0139200Y0152950D01*
X0139200Y0153549D02*
X0139800Y0153549D01*
X0139800Y0154147D02*
X0139200Y0154147D01*
X0139200Y0155943D02*
X0139800Y0155943D01*
X0139800Y0156541D02*
X0139200Y0156541D01*
X0139200Y0157140D02*
X0139800Y0157140D01*
X0139800Y0157738D02*
X0139200Y0157738D01*
X0139200Y0158337D02*
X0139800Y0158337D01*
X0139800Y0158935D02*
X0139200Y0158935D01*
X0139200Y0159534D02*
X0139800Y0159534D01*
X0141418Y0159534D02*
X0152822Y0159534D01*
X0152627Y0160132D02*
X0129029Y0160132D01*
X0129277Y0159534D02*
X0137582Y0159534D01*
X0136866Y0158935D02*
X0129500Y0158935D01*
X0129500Y0158337D02*
X0136700Y0158337D01*
X0136700Y0157738D02*
X0129500Y0157738D01*
X0129500Y0157140D02*
X0136700Y0157140D01*
X0136700Y0156541D02*
X0129500Y0156541D01*
X0129500Y0155943D02*
X0136700Y0155943D01*
X0142300Y0156541D02*
X0156189Y0156541D01*
X0154790Y0157140D02*
X0142300Y0157140D01*
X0142300Y0157738D02*
X0154032Y0157738D01*
X0153496Y0158337D02*
X0142300Y0158337D01*
X0142134Y0158935D02*
X0153105Y0158935D01*
X0160700Y0158935D02*
X0161300Y0158935D01*
X0161300Y0158337D02*
X0160700Y0158337D01*
X0160700Y0157738D02*
X0161300Y0157738D01*
X0161300Y0157140D02*
X0160700Y0157140D01*
X0160700Y0156541D02*
X0161300Y0156541D01*
X0161300Y0159534D02*
X0160700Y0159534D01*
X0160700Y0160132D02*
X0161300Y0160132D01*
X0161300Y0161600D02*
X0169500Y0161600D01*
X0169500Y0161686D01*
X0169379Y0162447D01*
X0169141Y0163181D01*
X0168791Y0163868D01*
X0168338Y0164492D01*
X0167792Y0165038D01*
X0167168Y0165491D01*
X0166481Y0165841D01*
X0165747Y0166079D01*
X0164986Y0166200D01*
X0161300Y0166200D01*
X0161300Y0161600D01*
X0161300Y0161928D02*
X0160700Y0161928D01*
X0160700Y0162526D02*
X0161300Y0162526D01*
X0161300Y0163125D02*
X0160700Y0163125D01*
X0160700Y0163723D02*
X0161300Y0163723D01*
X0161300Y0164322D02*
X0160700Y0164322D01*
X0160700Y0164920D02*
X0161300Y0164920D01*
X0161300Y0165519D02*
X0160700Y0165519D01*
X0160700Y0166117D02*
X0161300Y0166117D01*
X0161300Y0166400D02*
X0164986Y0166400D01*
X0165747Y0166521D01*
X0166481Y0166759D01*
X0167168Y0167109D01*
X0167792Y0167562D01*
X0168338Y0168108D01*
X0168791Y0168732D01*
X0169141Y0169419D01*
X0169379Y0170153D01*
X0169500Y0170914D01*
X0169500Y0171000D01*
X0161300Y0171000D01*
X0161300Y0166400D01*
X0161300Y0166716D02*
X0160700Y0166716D01*
X0160700Y0167314D02*
X0161300Y0167314D01*
X0161300Y0167913D02*
X0160700Y0167913D01*
X0160700Y0168511D02*
X0161300Y0168511D01*
X0161300Y0169110D02*
X0160700Y0169110D01*
X0160700Y0169708D02*
X0161300Y0169708D01*
X0161300Y0170307D02*
X0160700Y0170307D01*
X0160700Y0170905D02*
X0161300Y0170905D01*
X0161300Y0171504D02*
X0173621Y0171504D01*
X0173621Y0170905D02*
X0169499Y0170905D01*
X0169404Y0170307D02*
X0173621Y0170307D01*
X0173621Y0169708D02*
X0169235Y0169708D01*
X0168984Y0169110D02*
X0173621Y0169110D01*
X0173621Y0168511D02*
X0168631Y0168511D01*
X0168143Y0167913D02*
X0173621Y0167913D01*
X0173621Y0167314D02*
X0167451Y0167314D01*
X0166348Y0166716D02*
X0173621Y0166716D01*
X0173621Y0166117D02*
X0165507Y0166117D01*
X0167113Y0165519D02*
X0173621Y0165519D01*
X0173621Y0164920D02*
X0167909Y0164920D01*
X0168461Y0164322D02*
X0173621Y0164322D01*
X0173621Y0163723D02*
X0168865Y0163723D01*
X0169159Y0163125D02*
X0173621Y0163125D01*
X0173621Y0162526D02*
X0169354Y0162526D01*
X0169462Y0161928D02*
X0173621Y0161928D01*
X0173621Y0154147D02*
X0142300Y0154147D01*
X0142300Y0153549D02*
X0173621Y0153549D01*
X0173621Y0152950D02*
X0142300Y0152950D01*
X0142300Y0152352D02*
X0173621Y0152352D01*
X0173621Y0151753D02*
X0142185Y0151753D01*
X0141616Y0151155D02*
X0173621Y0151155D01*
X0173621Y0150556D02*
X0129449Y0150556D01*
X0129468Y0149958D02*
X0173621Y0149958D01*
X0173621Y0149359D02*
X0129468Y0149359D01*
X0129468Y0148761D02*
X0173621Y0148761D01*
X0173621Y0148162D02*
X0129468Y0148162D01*
X0129468Y0147564D02*
X0173621Y0147564D01*
X0173621Y0146965D02*
X0129468Y0146965D01*
X0129468Y0146367D02*
X0155907Y0146367D01*
X0154462Y0145768D02*
X0139704Y0145768D01*
X0140997Y0145170D02*
X0153229Y0145170D01*
X0152630Y0144571D02*
X0149685Y0144571D01*
X0150758Y0143972D02*
X0152032Y0143972D01*
X0143008Y0144571D02*
X0142992Y0144571D01*
X0134420Y0135593D02*
X0129383Y0135593D01*
X0129383Y0134995D02*
X0134554Y0134995D01*
X0134554Y0134396D02*
X0129383Y0134396D01*
X0129204Y0133798D02*
X0134554Y0133798D01*
X0134500Y0133199D02*
X0128956Y0133199D01*
X0128708Y0132601D02*
X0134252Y0132601D01*
X0134004Y0132002D02*
X0128315Y0132002D01*
X0127716Y0131404D02*
X0133988Y0131404D01*
X0133988Y0130805D02*
X0127117Y0130805D01*
X0125769Y0130207D02*
X0133988Y0130207D01*
X0133988Y0129608D02*
X0110214Y0129608D01*
X0110812Y0130207D02*
X0122231Y0130207D01*
X0120882Y0130805D02*
X0111411Y0130805D01*
X0112009Y0131404D02*
X0120284Y0131404D01*
X0119685Y0132002D02*
X0112608Y0132002D01*
X0113206Y0132601D02*
X0119292Y0132601D01*
X0119044Y0133199D02*
X0113805Y0133199D01*
X0114403Y0133798D02*
X0118796Y0133798D01*
X0118617Y0134396D02*
X0115002Y0134396D01*
X0115600Y0134995D02*
X0118617Y0134995D01*
X0118617Y0135593D02*
X0116199Y0135593D01*
X0109615Y0129010D02*
X0133988Y0129010D01*
X0133988Y0128411D02*
X0109017Y0128411D01*
X0108418Y0127813D02*
X0133988Y0127813D01*
X0133988Y0127214D02*
X0108163Y0127214D01*
X0108163Y0126616D02*
X0133996Y0126616D01*
X0134244Y0126017D02*
X0108163Y0126017D01*
X0108595Y0125419D02*
X0134492Y0125419D01*
X0134554Y0124820D02*
X0108843Y0124820D01*
X0110637Y0124222D02*
X0111237Y0124222D01*
X0111237Y0124750D02*
X0111237Y0120600D01*
X0114796Y0120600D01*
X0114796Y0123621D01*
X0114707Y0123951D01*
X0114536Y0124248D01*
X0114294Y0124490D01*
X0113998Y0124661D01*
X0113667Y0124750D01*
X0111237Y0124750D01*
X0111237Y0123623D02*
X0110637Y0123623D01*
X0110637Y0123025D02*
X0111237Y0123025D01*
X0111237Y0122426D02*
X0110637Y0122426D01*
X0110637Y0121828D02*
X0111237Y0121828D01*
X0111237Y0121229D02*
X0110637Y0121229D01*
X0110637Y0120631D02*
X0111237Y0120631D01*
X0111237Y0120032D02*
X0136055Y0120032D01*
X0135457Y0120631D02*
X0114796Y0120631D01*
X0114796Y0121229D02*
X0135135Y0121229D01*
X0134887Y0121828D02*
X0114796Y0121828D01*
X0114796Y0122426D02*
X0134639Y0122426D01*
X0134554Y0123025D02*
X0114796Y0123025D01*
X0114795Y0123623D02*
X0134554Y0123623D01*
X0134554Y0124222D02*
X0114551Y0124222D01*
X0114796Y0120000D02*
X0111237Y0120000D01*
X0111237Y0115850D01*
X0113667Y0115850D01*
X0113998Y0115939D01*
X0114294Y0116110D01*
X0114536Y0116352D01*
X0114707Y0116649D01*
X0114796Y0116979D01*
X0114796Y0120000D01*
X0114796Y0119434D02*
X0136654Y0119434D01*
X0137252Y0118835D02*
X0114796Y0118835D01*
X0114796Y0118237D02*
X0137851Y0118237D01*
X0138450Y0117638D02*
X0114796Y0117638D01*
X0114796Y0117039D02*
X0139048Y0117039D01*
X0139647Y0116441D02*
X0114588Y0116441D01*
X0112695Y0112251D02*
X0153488Y0112251D01*
X0153099Y0111653D02*
X0149122Y0111653D01*
X0148775Y0112000D02*
X0143225Y0112000D01*
X0139300Y0108075D01*
X0139300Y0102525D01*
X0141300Y0100525D01*
X0141300Y0096265D01*
X0142016Y0094538D01*
X0143338Y0093216D01*
X0145000Y0091553D01*
X0145000Y0086088D01*
X0146081Y0083478D01*
X0148078Y0081481D01*
X0150688Y0080400D01*
X0153512Y0080400D01*
X0156122Y0081481D01*
X0158119Y0083478D01*
X0159200Y0086088D01*
X0159200Y0096112D01*
X0158119Y0098722D01*
X0156122Y0100719D01*
X0153512Y0101800D01*
X0151975Y0101800D01*
X0152700Y0102525D01*
X0152700Y0107908D01*
X0152859Y0107419D01*
X0153209Y0106732D01*
X0153662Y0106108D01*
X0154208Y0105562D01*
X0154832Y0105109D01*
X0155519Y0104759D01*
X0156253Y0104521D01*
X0157014Y0104400D01*
X0160700Y0104400D01*
X0160700Y0109000D01*
X0152500Y0109000D01*
X0152500Y0108914D01*
X0152620Y0108155D01*
X0148775Y0112000D01*
X0149721Y0111054D02*
X0152818Y0111054D01*
X0152623Y0110456D02*
X0150319Y0110456D01*
X0150918Y0109857D02*
X0152527Y0109857D01*
X0151516Y0109259D02*
X0160700Y0109259D01*
X0160700Y0108660D02*
X0161300Y0108660D01*
X0161300Y0109000D02*
X0161300Y0104400D01*
X0164986Y0104400D01*
X0165747Y0104521D01*
X0166481Y0104759D01*
X0167168Y0105109D01*
X0167792Y0105562D01*
X0168338Y0106108D01*
X0168791Y0106732D01*
X0169141Y0107419D01*
X0169379Y0108153D01*
X0169500Y0108914D01*
X0169500Y0109000D01*
X0161300Y0109000D01*
X0161300Y0109259D02*
X0173621Y0109259D01*
X0173621Y0109857D02*
X0169473Y0109857D01*
X0169377Y0110456D02*
X0173621Y0110456D01*
X0173621Y0111054D02*
X0169182Y0111054D01*
X0168901Y0111653D02*
X0173621Y0111653D01*
X0173621Y0112251D02*
X0168512Y0112251D01*
X0167980Y0112850D02*
X0173621Y0112850D01*
X0173621Y0113448D02*
X0168789Y0113448D01*
X0169388Y0114047D02*
X0173621Y0114047D01*
X0173621Y0114645D02*
X0169986Y0114645D01*
X0170585Y0115244D02*
X0173621Y0115244D01*
X0173621Y0115842D02*
X0170853Y0115842D01*
X0171101Y0116441D02*
X0173621Y0116441D01*
X0173621Y0117039D02*
X0171349Y0117039D01*
X0171597Y0117638D02*
X0173621Y0117638D01*
X0173621Y0118237D02*
X0171700Y0118237D01*
X0171700Y0118835D02*
X0173621Y0118835D01*
X0173621Y0119434D02*
X0171700Y0119434D01*
X0171700Y0120032D02*
X0173621Y0120032D01*
X0173621Y0120631D02*
X0171700Y0120631D01*
X0171486Y0121229D02*
X0173621Y0121229D01*
X0173621Y0121828D02*
X0171238Y0121828D01*
X0170990Y0122426D02*
X0173621Y0122426D01*
X0173621Y0123025D02*
X0170742Y0123025D01*
X0170318Y0123623D02*
X0173621Y0123623D01*
X0173621Y0124222D02*
X0169719Y0124222D01*
X0170161Y0124820D02*
X0173621Y0124820D01*
X0173621Y0125419D02*
X0170677Y0125419D01*
X0170925Y0126017D02*
X0173621Y0126017D01*
X0173621Y0126616D02*
X0171173Y0126616D01*
X0171421Y0127214D02*
X0173621Y0127214D01*
X0173621Y0127813D02*
X0171669Y0127813D01*
X0171700Y0128411D02*
X0173621Y0128411D01*
X0173621Y0129010D02*
X0171700Y0129010D01*
X0171700Y0129608D02*
X0173621Y0129608D01*
X0173621Y0130207D02*
X0171700Y0130207D01*
X0171661Y0130805D02*
X0173621Y0130805D01*
X0173621Y0131404D02*
X0171414Y0131404D01*
X0171166Y0132002D02*
X0173621Y0132002D01*
X0173621Y0132601D02*
X0170918Y0132601D01*
X0170670Y0133199D02*
X0173621Y0133199D01*
X0173621Y0133798D02*
X0170143Y0133798D01*
X0169737Y0134396D02*
X0173621Y0134396D01*
X0173621Y0134995D02*
X0170336Y0134995D01*
X0170750Y0135593D02*
X0173621Y0135593D01*
X0173621Y0136192D02*
X0170998Y0136192D01*
X0171245Y0136790D02*
X0173621Y0136790D01*
X0173621Y0137389D02*
X0171493Y0137389D01*
X0171700Y0137987D02*
X0173621Y0137987D01*
X0173621Y0138586D02*
X0171700Y0138586D01*
X0171700Y0139184D02*
X0173621Y0139184D01*
X0173621Y0139783D02*
X0171700Y0139783D01*
X0171700Y0140381D02*
X0173621Y0140381D01*
X0173621Y0140980D02*
X0171589Y0140980D01*
X0171341Y0141578D02*
X0173621Y0141578D01*
X0173621Y0142177D02*
X0171093Y0142177D01*
X0170845Y0142775D02*
X0173621Y0142775D01*
X0173621Y0143374D02*
X0170567Y0143374D01*
X0169968Y0143972D02*
X0173621Y0143972D01*
X0173621Y0144571D02*
X0169370Y0144571D01*
X0168771Y0145170D02*
X0173621Y0145170D01*
X0173621Y0145768D02*
X0167538Y0145768D01*
X0166093Y0146367D02*
X0173621Y0146367D01*
X0160700Y0171504D02*
X0129000Y0171504D01*
X0130601Y0173300D02*
X0137162Y0173300D01*
X0136762Y0173898D02*
X0131462Y0173898D01*
X0132061Y0174497D02*
X0136700Y0174497D01*
X0136700Y0175095D02*
X0132659Y0175095D01*
X0133258Y0175694D02*
X0136700Y0175694D01*
X0136700Y0176292D02*
X0133856Y0176292D01*
X0134455Y0176891D02*
X0136700Y0176891D01*
X0142300Y0176891D02*
X0151768Y0176891D01*
X0152367Y0176292D02*
X0142300Y0176292D01*
X0142300Y0175694D02*
X0152965Y0175694D01*
X0153827Y0175095D02*
X0142300Y0175095D01*
X0142300Y0174497D02*
X0153667Y0174497D01*
X0153231Y0173898D02*
X0142238Y0173898D01*
X0117953Y0197839D02*
X0115074Y0197839D01*
X0115049Y0197863D02*
X0113071Y0198683D01*
X0110929Y0198683D01*
X0108951Y0197863D01*
X0107437Y0196349D01*
X0106617Y0194371D01*
X0106617Y0192229D01*
X0107437Y0190251D01*
X0107814Y0189874D01*
X0108185Y0188978D01*
X0108639Y0188524D01*
X0108324Y0188209D01*
X0106097Y0185982D01*
X0103870Y0183755D01*
X0103000Y0182885D01*
X0101817Y0184068D01*
X0099590Y0186295D01*
X0097363Y0188522D01*
X0096077Y0189055D01*
X0095982Y0189055D01*
X0095982Y0189150D01*
X0095449Y0190436D01*
X0093116Y0192769D01*
X0097401Y0197054D01*
X0099049Y0197737D01*
X0100563Y0199251D01*
X0100846Y0199933D01*
X0103367Y0202454D01*
X0104049Y0202737D01*
X0105563Y0204251D01*
X0106383Y0206229D01*
X0106383Y0208371D01*
X0105563Y0210349D01*
X0104049Y0211863D01*
X0102071Y0212683D01*
X0101968Y0212683D01*
X0102130Y0212845D01*
X0103000Y0213715D01*
X0104183Y0212532D01*
X0106410Y0210305D01*
X0108637Y0208078D01*
X0109923Y0207545D01*
X0110018Y0207545D01*
X0110018Y0207450D01*
X0110551Y0206164D01*
X0113091Y0203624D01*
X0114378Y0203091D01*
X0114472Y0203091D01*
X0114472Y0202996D01*
X0115005Y0201710D01*
X0117545Y0199170D01*
X0118415Y0198300D01*
X0117232Y0197117D01*
X0116514Y0196399D01*
X0115049Y0197863D01*
X0115672Y0197240D02*
X0117355Y0197240D01*
X0116756Y0196641D02*
X0116271Y0196641D01*
X0118278Y0198437D02*
X0113664Y0198437D01*
X0115884Y0200831D02*
X0101744Y0200831D01*
X0102342Y0201430D02*
X0115285Y0201430D01*
X0114873Y0202028D02*
X0102941Y0202028D01*
X0103783Y0202627D02*
X0114625Y0202627D01*
X0114054Y0203225D02*
X0104537Y0203225D01*
X0105136Y0203824D02*
X0112891Y0203824D01*
X0112293Y0204422D02*
X0105634Y0204422D01*
X0105882Y0205021D02*
X0111694Y0205021D01*
X0111096Y0205619D02*
X0106130Y0205619D01*
X0106378Y0206218D02*
X0110529Y0206218D01*
X0110281Y0206816D02*
X0106383Y0206816D01*
X0106383Y0207415D02*
X0110033Y0207415D01*
X0108793Y0208013D02*
X0106383Y0208013D01*
X0106283Y0208612D02*
X0108103Y0208612D01*
X0107505Y0209210D02*
X0106035Y0209210D01*
X0105787Y0209809D02*
X0106906Y0209809D01*
X0106308Y0210407D02*
X0105505Y0210407D01*
X0105709Y0211006D02*
X0104906Y0211006D01*
X0105111Y0211604D02*
X0104308Y0211604D01*
X0104512Y0212203D02*
X0103229Y0212203D01*
X0103914Y0212801D02*
X0102086Y0212801D01*
X0102685Y0213400D02*
X0103315Y0213400D01*
X0103187Y0220582D02*
X0102813Y0220582D01*
X0102215Y0221180D02*
X0103785Y0221180D01*
X0104384Y0221779D02*
X0101616Y0221779D01*
X0101018Y0222377D02*
X0104776Y0222377D01*
X0104776Y0222976D02*
X0100419Y0222976D01*
X0099797Y0223574D02*
X0104776Y0223574D01*
X0104776Y0224173D02*
X0092237Y0224173D01*
X0092835Y0224772D02*
X0104776Y0224772D01*
X0104776Y0225370D02*
X0093434Y0225370D01*
X0100500Y0239734D02*
X0104263Y0239734D01*
X0102819Y0240333D02*
X0100500Y0240333D01*
X0100500Y0240931D02*
X0101728Y0240931D01*
X0101129Y0241530D02*
X0100871Y0241530D01*
X0101145Y0200233D02*
X0116482Y0200233D01*
X0117081Y0199634D02*
X0100722Y0199634D01*
X0100348Y0199036D02*
X0117679Y0199036D01*
X0110336Y0198437D02*
X0099749Y0198437D01*
X0099151Y0197839D02*
X0108926Y0197839D01*
X0108328Y0197240D02*
X0097850Y0197240D01*
X0096988Y0196641D02*
X0107729Y0196641D01*
X0107310Y0196043D02*
X0096390Y0196043D01*
X0095791Y0195444D02*
X0107062Y0195444D01*
X0106814Y0194846D02*
X0095193Y0194846D01*
X0094594Y0194247D02*
X0106617Y0194247D01*
X0106617Y0193649D02*
X0093996Y0193649D01*
X0093397Y0193050D02*
X0106617Y0193050D01*
X0106617Y0192452D02*
X0093433Y0192452D01*
X0094032Y0191853D02*
X0106773Y0191853D01*
X0107021Y0191255D02*
X0094630Y0191255D01*
X0095229Y0190656D02*
X0107269Y0190656D01*
X0107630Y0190058D02*
X0095606Y0190058D01*
X0095854Y0189459D02*
X0107986Y0189459D01*
X0108302Y0188861D02*
X0096545Y0188861D01*
X0097623Y0188262D02*
X0108377Y0188262D01*
X0107779Y0187664D02*
X0098221Y0187664D01*
X0098820Y0187065D02*
X0107180Y0187065D01*
X0106582Y0186467D02*
X0099418Y0186467D01*
X0100017Y0185868D02*
X0105983Y0185868D01*
X0105385Y0185270D02*
X0100615Y0185270D01*
X0101214Y0184671D02*
X0104786Y0184671D01*
X0104188Y0184073D02*
X0101812Y0184073D01*
X0102411Y0183474D02*
X0103589Y0183474D01*
X0110637Y0119434D02*
X0111237Y0119434D01*
X0111237Y0118835D02*
X0110637Y0118835D01*
X0110637Y0118237D02*
X0111237Y0118237D01*
X0111237Y0117638D02*
X0110637Y0117638D01*
X0110637Y0117039D02*
X0111237Y0117039D01*
X0111237Y0116441D02*
X0110637Y0116441D01*
X0109703Y0115244D02*
X0140844Y0115244D01*
X0140245Y0115842D02*
X0109104Y0115842D01*
X0110301Y0114645D02*
X0141910Y0114645D01*
X0142878Y0111653D02*
X0119122Y0111653D01*
X0119721Y0111054D02*
X0142279Y0111054D01*
X0141681Y0110456D02*
X0120319Y0110456D01*
X0120918Y0109857D02*
X0141082Y0109857D01*
X0140484Y0109259D02*
X0121516Y0109259D01*
X0122115Y0108660D02*
X0139885Y0108660D01*
X0139300Y0108062D02*
X0122700Y0108062D01*
X0122700Y0107463D02*
X0139300Y0107463D01*
X0139300Y0106865D02*
X0122700Y0106865D01*
X0122700Y0106266D02*
X0139300Y0106266D01*
X0139300Y0105668D02*
X0122700Y0105668D01*
X0122700Y0105069D02*
X0139300Y0105069D01*
X0139300Y0104471D02*
X0122700Y0104471D01*
X0122700Y0103872D02*
X0139300Y0103872D01*
X0139300Y0103274D02*
X0122700Y0103274D01*
X0122700Y0102675D02*
X0139300Y0102675D01*
X0139748Y0102077D02*
X0122252Y0102077D01*
X0121653Y0101478D02*
X0140347Y0101478D01*
X0140945Y0100880D02*
X0121055Y0100880D01*
X0120456Y0100281D02*
X0141300Y0100281D01*
X0141300Y0099683D02*
X0119858Y0099683D01*
X0119259Y0099084D02*
X0141300Y0099084D01*
X0141300Y0098486D02*
X0115832Y0098486D01*
X0115234Y0097887D02*
X0141300Y0097887D01*
X0141300Y0097289D02*
X0114635Y0097289D01*
X0114037Y0096690D02*
X0141300Y0096690D01*
X0141372Y0096092D02*
X0113438Y0096092D01*
X0112840Y0095493D02*
X0141620Y0095493D01*
X0141868Y0094895D02*
X0112241Y0094895D01*
X0111700Y0094296D02*
X0142257Y0094296D01*
X0142856Y0093698D02*
X0111700Y0093698D01*
X0111700Y0093099D02*
X0143454Y0093099D01*
X0144053Y0092501D02*
X0111700Y0092501D01*
X0111700Y0091902D02*
X0144651Y0091902D01*
X0145000Y0091303D02*
X0111700Y0091303D01*
X0111700Y0090705D02*
X0145000Y0090705D01*
X0145000Y0090106D02*
X0111700Y0090106D01*
X0111700Y0089508D02*
X0145000Y0089508D01*
X0145000Y0088909D02*
X0111700Y0088909D01*
X0111700Y0088311D02*
X0145000Y0088311D01*
X0145000Y0087712D02*
X0111700Y0087712D01*
X0111700Y0087114D02*
X0145000Y0087114D01*
X0145000Y0086515D02*
X0111700Y0086515D01*
X0111700Y0085917D02*
X0145071Y0085917D01*
X0145319Y0085318D02*
X0111700Y0085318D01*
X0111700Y0084720D02*
X0118675Y0084720D01*
X0124632Y0084720D02*
X0145567Y0084720D01*
X0145814Y0084121D02*
X0125916Y0084121D01*
X0126514Y0083523D02*
X0146062Y0083523D01*
X0146635Y0082924D02*
X0140642Y0082924D01*
X0141173Y0082326D02*
X0147233Y0082326D01*
X0147832Y0081727D02*
X0141268Y0081727D01*
X0141268Y0081129D02*
X0148928Y0081129D01*
X0150373Y0080530D02*
X0141268Y0080530D01*
X0141268Y0079333D02*
X0173621Y0079333D01*
X0173621Y0078735D02*
X0141268Y0078735D01*
X0141830Y0078136D02*
X0173621Y0078136D01*
X0173621Y0077538D02*
X0142499Y0077538D01*
X0143003Y0076939D02*
X0173621Y0076939D01*
X0173621Y0076341D02*
X0143251Y0076341D01*
X0143468Y0075742D02*
X0149583Y0075742D01*
X0150688Y0076200D02*
X0148078Y0075119D01*
X0146081Y0073122D01*
X0145000Y0070512D01*
X0145000Y0060488D01*
X0146081Y0057878D01*
X0148078Y0055881D01*
X0150688Y0054800D01*
X0153512Y0054800D01*
X0156122Y0055881D01*
X0158119Y0057878D01*
X0159200Y0060488D01*
X0159200Y0070512D01*
X0158119Y0073122D01*
X0156122Y0075119D01*
X0153512Y0076200D01*
X0150688Y0076200D01*
X0148138Y0075144D02*
X0143468Y0075144D01*
X0143597Y0074545D02*
X0147504Y0074545D01*
X0146906Y0073947D02*
X0143800Y0073947D01*
X0143800Y0073348D02*
X0146307Y0073348D01*
X0145927Y0072750D02*
X0143800Y0072750D01*
X0143800Y0072151D02*
X0145679Y0072151D01*
X0145431Y0071553D02*
X0143800Y0071553D01*
X0143800Y0070954D02*
X0145183Y0070954D01*
X0145000Y0070356D02*
X0143800Y0070356D01*
X0143800Y0069757D02*
X0145000Y0069757D01*
X0145000Y0069159D02*
X0143800Y0069159D01*
X0143800Y0068560D02*
X0145000Y0068560D01*
X0145000Y0067962D02*
X0143800Y0067962D01*
X0143800Y0067363D02*
X0145000Y0067363D01*
X0145000Y0066765D02*
X0143800Y0066765D01*
X0143800Y0066166D02*
X0145000Y0066166D01*
X0145000Y0065568D02*
X0143800Y0065568D01*
X0143800Y0064969D02*
X0145000Y0064969D01*
X0145000Y0064370D02*
X0143800Y0064370D01*
X0143800Y0063772D02*
X0145000Y0063772D01*
X0145000Y0063173D02*
X0143800Y0063173D01*
X0143800Y0062575D02*
X0145000Y0062575D01*
X0145000Y0061976D02*
X0143800Y0061976D01*
X0143800Y0061378D02*
X0145000Y0061378D01*
X0145000Y0060779D02*
X0143800Y0060779D01*
X0143800Y0060181D02*
X0145127Y0060181D01*
X0145375Y0059582D02*
X0143800Y0059582D01*
X0143568Y0058984D02*
X0145623Y0058984D01*
X0145871Y0058385D02*
X0143320Y0058385D01*
X0142861Y0057787D02*
X0146172Y0057787D01*
X0146771Y0057188D02*
X0142262Y0057188D01*
X0141664Y0056590D02*
X0147369Y0056590D01*
X0147968Y0055991D02*
X0141065Y0055991D01*
X0140467Y0055393D02*
X0149257Y0055393D01*
X0151336Y0050605D02*
X0138450Y0050605D01*
X0138450Y0050088D02*
X0138450Y0052715D01*
X0138361Y0053046D01*
X0138190Y0053342D01*
X0137948Y0053584D01*
X0137651Y0053755D01*
X0137321Y0053844D01*
X0134300Y0053844D01*
X0134300Y0050088D01*
X0138450Y0050088D01*
X0138450Y0049488D02*
X0134300Y0049488D01*
X0134300Y0045732D01*
X0137321Y0045732D01*
X0137651Y0045821D01*
X0137948Y0045992D01*
X0138190Y0046234D01*
X0138361Y0046530D01*
X0138450Y0046861D01*
X0138450Y0049488D01*
X0138450Y0049408D02*
X0149026Y0049408D01*
X0150181Y0050006D02*
X0134300Y0050006D01*
X0134300Y0050088D02*
X0134300Y0049488D01*
X0133700Y0049488D01*
X0133700Y0045732D01*
X0130679Y0045732D01*
X0130349Y0045821D01*
X0130052Y0045992D01*
X0129810Y0046234D01*
X0129639Y0046530D01*
X0129550Y0046861D01*
X0129550Y0049488D01*
X0133700Y0049488D01*
X0133700Y0050088D01*
X0129550Y0050088D01*
X0129550Y0052715D01*
X0129639Y0053046D01*
X0129810Y0053342D01*
X0130052Y0053584D01*
X0130349Y0053755D01*
X0130679Y0053844D01*
X0133700Y0053844D01*
X0133700Y0050088D01*
X0134300Y0050088D01*
X0134300Y0050605D02*
X0133700Y0050605D01*
X0133700Y0051203D02*
X0134300Y0051203D01*
X0134300Y0051802D02*
X0133700Y0051802D01*
X0133700Y0052400D02*
X0134300Y0052400D01*
X0134300Y0052999D02*
X0133700Y0052999D01*
X0133700Y0053597D02*
X0134300Y0053597D01*
X0133700Y0050006D02*
X0127323Y0050006D01*
X0127323Y0049408D02*
X0129550Y0049408D01*
X0129550Y0048809D02*
X0127323Y0048809D01*
X0127323Y0048211D02*
X0129550Y0048211D01*
X0129550Y0047612D02*
X0127323Y0047612D01*
X0127277Y0047014D02*
X0129550Y0047014D01*
X0129706Y0046415D02*
X0127240Y0046415D01*
X0127240Y0045817D02*
X0130364Y0045817D01*
X0127240Y0045218D02*
X0143529Y0045218D01*
X0144170Y0045817D02*
X0137636Y0045817D01*
X0138294Y0046415D02*
X0144811Y0046415D01*
X0145451Y0047014D02*
X0138450Y0047014D01*
X0138450Y0047612D02*
X0146092Y0047612D01*
X0146733Y0048211D02*
X0138450Y0048211D01*
X0138450Y0048809D02*
X0147871Y0048809D01*
X0142888Y0044620D02*
X0127023Y0044620D01*
X0126775Y0044021D02*
X0142518Y0044021D01*
X0142874Y0044606D02*
X0142874Y0044606D01*
X0142154Y0043423D02*
X0126487Y0043423D01*
X0125888Y0042824D02*
X0141790Y0042824D01*
X0141426Y0042226D02*
X0125290Y0042226D01*
X0124691Y0041627D02*
X0141062Y0041627D01*
X0140698Y0041029D02*
X0124093Y0041029D01*
X0123416Y0040430D02*
X0140334Y0040430D01*
X0140114Y0040069D02*
X0140114Y0040069D01*
X0140048Y0039832D02*
X0121971Y0039832D01*
X0121500Y0039233D02*
X0139880Y0039233D01*
X0139713Y0038634D02*
X0121500Y0038634D01*
X0121905Y0038036D02*
X0139545Y0038036D01*
X0139377Y0037437D02*
X0128888Y0037437D01*
X0129915Y0036839D02*
X0139209Y0036839D01*
X0139042Y0036240D02*
X0130589Y0036240D01*
X0131065Y0035642D02*
X0138874Y0035642D01*
X0138706Y0035043D02*
X0131407Y0035043D01*
X0131650Y0034445D02*
X0138682Y0034445D01*
X0138682Y0033846D02*
X0131811Y0033846D01*
X0131900Y0033248D02*
X0138682Y0033248D01*
X0138682Y0032649D02*
X0131900Y0032649D01*
X0131900Y0032051D02*
X0138682Y0032051D01*
X0138682Y0031452D02*
X0131900Y0031452D01*
X0131900Y0030854D02*
X0138682Y0030854D01*
X0138682Y0030255D02*
X0131900Y0030255D01*
X0131900Y0029657D02*
X0138682Y0029657D01*
X0138846Y0029058D02*
X0127300Y0029058D01*
X0127300Y0029000D02*
X0131900Y0029000D01*
X0131900Y0025314D01*
X0131779Y0024553D01*
X0131541Y0023819D01*
X0131191Y0023132D01*
X0130737Y0022508D01*
X0130192Y0021962D01*
X0129568Y0021509D01*
X0128881Y0021159D01*
X0128147Y0020921D01*
X0127386Y0020800D01*
X0127300Y0020800D01*
X0127300Y0029000D01*
X0127300Y0028460D02*
X0126700Y0028460D01*
X0126700Y0027861D02*
X0127300Y0027861D01*
X0127300Y0027263D02*
X0126700Y0027263D01*
X0126700Y0026664D02*
X0127300Y0026664D01*
X0127300Y0026066D02*
X0126700Y0026066D01*
X0126700Y0025467D02*
X0127300Y0025467D01*
X0127300Y0024869D02*
X0126700Y0024869D01*
X0126700Y0024270D02*
X0127300Y0024270D01*
X0127300Y0023672D02*
X0126700Y0023672D01*
X0126700Y0023073D02*
X0127300Y0023073D01*
X0127300Y0022475D02*
X0126700Y0022475D01*
X0126700Y0021876D02*
X0127300Y0021876D01*
X0127300Y0021278D02*
X0126700Y0021278D01*
X0124886Y0021278D02*
X0122619Y0021278D01*
X0123101Y0021876D02*
X0123927Y0021876D01*
X0122020Y0020679D02*
X0142457Y0020679D01*
X0142821Y0020081D02*
X0121422Y0020081D01*
X0120542Y0019482D02*
X0143421Y0019482D01*
X0142874Y0019994D02*
X0142874Y0019994D01*
X0142874Y0019994D01*
X0142093Y0021278D02*
X0129114Y0021278D01*
X0130073Y0021876D02*
X0141729Y0021876D01*
X0141365Y0022475D02*
X0130704Y0022475D01*
X0131148Y0023073D02*
X0141001Y0023073D01*
X0140637Y0023672D02*
X0131466Y0023672D01*
X0131688Y0024270D02*
X0140273Y0024270D01*
X0140114Y0024531D02*
X0140114Y0024531D01*
X0140020Y0024869D02*
X0131829Y0024869D01*
X0131900Y0025467D02*
X0139852Y0025467D01*
X0139684Y0026066D02*
X0131900Y0026066D01*
X0131900Y0026664D02*
X0139517Y0026664D01*
X0139349Y0027263D02*
X0131900Y0027263D01*
X0131900Y0027861D02*
X0139181Y0027861D01*
X0139014Y0028460D02*
X0131900Y0028460D01*
X0127300Y0029657D02*
X0126700Y0029657D01*
X0126700Y0030255D02*
X0127300Y0030255D01*
X0127300Y0030854D02*
X0126700Y0030854D01*
X0126700Y0031452D02*
X0127300Y0031452D01*
X0127300Y0032051D02*
X0126700Y0032051D01*
X0126700Y0032649D02*
X0127300Y0032649D01*
X0127300Y0033248D02*
X0126700Y0033248D01*
X0126700Y0033846D02*
X0127300Y0033846D01*
X0127300Y0034445D02*
X0126700Y0034445D01*
X0126700Y0035043D02*
X0127300Y0035043D01*
X0127300Y0035642D02*
X0126700Y0035642D01*
X0126700Y0036240D02*
X0127300Y0036240D01*
X0127300Y0036839D02*
X0126700Y0036839D01*
X0126700Y0037437D02*
X0127300Y0037437D01*
X0125112Y0037437D02*
X0122503Y0037437D01*
X0123053Y0036839D02*
X0124085Y0036839D01*
X0123411Y0036240D02*
X0123301Y0036240D01*
X0112500Y0038634D02*
X0089698Y0038634D01*
X0089100Y0038036D02*
X0112095Y0038036D01*
X0111497Y0037437D02*
X0078733Y0037437D01*
X0078636Y0037202D02*
X0079468Y0039212D01*
X0079468Y0041388D01*
X0078636Y0043398D01*
X0077098Y0044936D01*
X0075088Y0045768D01*
X0072912Y0045768D01*
X0070902Y0044936D01*
X0069364Y0043398D01*
X0068531Y0041388D01*
X0068531Y0039212D01*
X0069364Y0037202D01*
X0070902Y0035664D01*
X0072912Y0034831D01*
X0075088Y0034831D01*
X0077098Y0035664D01*
X0078636Y0037202D01*
X0078273Y0036839D02*
X0110947Y0036839D01*
X0110699Y0036240D02*
X0077674Y0036240D01*
X0077044Y0035642D02*
X0110451Y0035642D01*
X0110203Y0035043D02*
X0075599Y0035043D01*
X0078981Y0038036D02*
X0084900Y0038036D01*
X0085136Y0037800D02*
X0082500Y0040436D01*
X0082500Y0042000D01*
X0086700Y0042000D01*
X0086700Y0042600D01*
X0086700Y0046800D01*
X0085136Y0046800D01*
X0082500Y0044164D01*
X0082500Y0042600D01*
X0086700Y0042600D01*
X0087300Y0042600D01*
X0087300Y0046800D01*
X0088864Y0046800D01*
X0091500Y0044164D01*
X0091500Y0042600D01*
X0087300Y0042600D01*
X0087300Y0042000D01*
X0091500Y0042000D01*
X0091500Y0040436D01*
X0088864Y0037800D01*
X0087300Y0037800D01*
X0087300Y0042000D01*
X0086700Y0042000D01*
X0086700Y0037800D01*
X0085136Y0037800D01*
X0084302Y0038634D02*
X0079229Y0038634D01*
X0079468Y0039233D02*
X0083703Y0039233D01*
X0083105Y0039832D02*
X0079468Y0039832D01*
X0079468Y0040430D02*
X0082506Y0040430D01*
X0082500Y0041029D02*
X0079468Y0041029D01*
X0079369Y0041627D02*
X0082500Y0041627D01*
X0082500Y0042824D02*
X0078874Y0042824D01*
X0079121Y0042226D02*
X0086700Y0042226D01*
X0086700Y0042824D02*
X0087300Y0042824D01*
X0087300Y0042226D02*
X0112500Y0042226D01*
X0112500Y0041627D02*
X0091500Y0041627D01*
X0091500Y0041029D02*
X0112500Y0041029D01*
X0112500Y0040430D02*
X0091494Y0040430D01*
X0090895Y0039832D02*
X0112500Y0039832D01*
X0112500Y0039233D02*
X0090297Y0039233D01*
X0091500Y0042824D02*
X0112112Y0042824D01*
X0111513Y0043423D02*
X0091500Y0043423D01*
X0091500Y0044021D02*
X0096974Y0044021D01*
X0096313Y0044620D02*
X0091044Y0044620D01*
X0090446Y0045218D02*
X0095813Y0045218D01*
X0095566Y0045817D02*
X0089847Y0045817D01*
X0089249Y0046415D02*
X0095350Y0046415D01*
X0095350Y0047014D02*
X0060000Y0047014D01*
X0060000Y0047612D02*
X0095350Y0047612D01*
X0095350Y0048211D02*
X0060000Y0048211D01*
X0060000Y0048809D02*
X0095350Y0048809D01*
X0095350Y0049408D02*
X0060000Y0049408D01*
X0060000Y0050006D02*
X0095350Y0050006D01*
X0095350Y0050605D02*
X0060000Y0050605D01*
X0060000Y0051203D02*
X0068733Y0051203D01*
X0069136Y0050800D02*
X0070700Y0050800D01*
X0070700Y0055000D01*
X0066500Y0055000D01*
X0066500Y0053436D01*
X0069136Y0050800D01*
X0068134Y0051802D02*
X0060000Y0051802D01*
X0060000Y0052400D02*
X0067536Y0052400D01*
X0066937Y0052999D02*
X0060000Y0052999D01*
X0060000Y0053597D02*
X0066500Y0053597D01*
X0066500Y0054196D02*
X0060000Y0054196D01*
X0060000Y0054794D02*
X0066500Y0054794D01*
X0066500Y0055991D02*
X0060000Y0055991D01*
X0060000Y0055393D02*
X0070700Y0055393D01*
X0070700Y0054794D02*
X0071300Y0054794D01*
X0071300Y0055000D02*
X0071300Y0050800D01*
X0072864Y0050800D01*
X0075500Y0053436D01*
X0075500Y0055000D01*
X0071300Y0055000D01*
X0071300Y0055393D02*
X0096749Y0055393D01*
X0096151Y0054794D02*
X0075500Y0054794D01*
X0075500Y0054196D02*
X0095746Y0054196D01*
X0095498Y0053597D02*
X0075500Y0053597D01*
X0075063Y0052999D02*
X0095350Y0052999D01*
X0095350Y0052400D02*
X0074464Y0052400D01*
X0073866Y0051802D02*
X0095350Y0051802D01*
X0095350Y0051203D02*
X0073267Y0051203D01*
X0071300Y0051203D02*
X0070700Y0051203D01*
X0070700Y0051802D02*
X0071300Y0051802D01*
X0071300Y0052400D02*
X0070700Y0052400D01*
X0070700Y0052999D02*
X0071300Y0052999D01*
X0071300Y0053597D02*
X0070700Y0053597D01*
X0070700Y0054196D02*
X0071300Y0054196D01*
X0075500Y0055991D02*
X0098027Y0055991D01*
X0098349Y0056845D02*
X0098052Y0057016D01*
X0097810Y0057258D01*
X0097639Y0057554D01*
X0097550Y0057885D01*
X0097550Y0060512D01*
X0101700Y0060512D01*
X0101700Y0061112D01*
X0101700Y0064868D01*
X0098679Y0064868D01*
X0098349Y0064779D01*
X0098052Y0064608D01*
X0097810Y0064366D01*
X0097639Y0064069D01*
X0097550Y0063739D01*
X0097550Y0061112D01*
X0101700Y0061112D01*
X0102300Y0061112D01*
X0102300Y0064868D01*
X0105321Y0064868D01*
X0105651Y0064779D01*
X0105948Y0064608D01*
X0106190Y0064366D01*
X0106361Y0064069D01*
X0106450Y0063739D01*
X0106450Y0061112D01*
X0102300Y0061112D01*
X0102300Y0060512D01*
X0106450Y0060512D01*
X0106450Y0057885D01*
X0106361Y0057554D01*
X0106190Y0057258D01*
X0105948Y0057016D01*
X0105651Y0056845D01*
X0105321Y0056756D01*
X0102300Y0056756D01*
X0102300Y0060512D01*
X0101700Y0060512D01*
X0101700Y0056756D01*
X0098679Y0056756D01*
X0098349Y0056845D01*
X0097879Y0057188D02*
X0075476Y0057188D01*
X0075500Y0056590D02*
X0110996Y0056590D01*
X0110748Y0057188D02*
X0106121Y0057188D01*
X0106423Y0057787D02*
X0110677Y0057787D01*
X0110541Y0058385D02*
X0106450Y0058385D01*
X0106450Y0058984D02*
X0109942Y0058984D01*
X0109598Y0059582D02*
X0106450Y0059582D01*
X0106450Y0060181D02*
X0109350Y0060181D01*
X0109200Y0060779D02*
X0102300Y0060779D01*
X0102300Y0060181D02*
X0101700Y0060181D01*
X0101700Y0060779D02*
X0077208Y0060779D01*
X0076960Y0060181D02*
X0097550Y0060181D01*
X0097550Y0059582D02*
X0076712Y0059582D01*
X0076159Y0058984D02*
X0097550Y0058984D01*
X0097550Y0058385D02*
X0075561Y0058385D01*
X0074962Y0057787D02*
X0097577Y0057787D01*
X0097550Y0061378D02*
X0077456Y0061378D01*
X0077700Y0061976D02*
X0097550Y0061976D01*
X0097550Y0062575D02*
X0077700Y0062575D01*
X0077700Y0063173D02*
X0097550Y0063173D01*
X0097559Y0063772D02*
X0077700Y0063772D01*
X0077700Y0064370D02*
X0097815Y0064370D01*
X0101700Y0064370D02*
X0102300Y0064370D01*
X0102300Y0063772D02*
X0101700Y0063772D01*
X0101700Y0063173D02*
X0102300Y0063173D01*
X0102300Y0062575D02*
X0101700Y0062575D01*
X0101700Y0061976D02*
X0102300Y0061976D01*
X0102300Y0061378D02*
X0101700Y0061378D01*
X0101700Y0059582D02*
X0102300Y0059582D01*
X0102300Y0058984D02*
X0101700Y0058984D01*
X0101700Y0058385D02*
X0102300Y0058385D01*
X0102300Y0057787D02*
X0101700Y0057787D01*
X0101700Y0057188D02*
X0102300Y0057188D01*
X0105973Y0055991D02*
X0111292Y0055991D01*
X0111891Y0055393D02*
X0107251Y0055393D01*
X0107849Y0054794D02*
X0111478Y0054794D01*
X0114000Y0060300D02*
X0113000Y0061300D01*
X0113000Y0068300D01*
X0106000Y0075300D01*
X0106000Y0079300D01*
X0106500Y0079800D01*
X0112000Y0074300D01*
X0139000Y0074300D01*
X0140000Y0073300D01*
X0140000Y0060300D01*
X0138000Y0058300D01*
X0131000Y0058300D01*
X0128000Y0061300D01*
X0128000Y0066300D01*
X0127000Y0067300D01*
X0120000Y0067300D01*
X0119000Y0066300D01*
X0119000Y0063300D01*
X0116000Y0060300D01*
X0114000Y0060300D01*
X0113521Y0060779D02*
X0116479Y0060779D01*
X0117078Y0061378D02*
X0113000Y0061378D01*
X0113000Y0061976D02*
X0117676Y0061976D01*
X0118275Y0062575D02*
X0113000Y0062575D01*
X0113000Y0063173D02*
X0118873Y0063173D01*
X0119000Y0063772D02*
X0113000Y0063772D01*
X0113000Y0064370D02*
X0119000Y0064370D01*
X0119000Y0064969D02*
X0113000Y0064969D01*
X0113000Y0065568D02*
X0119000Y0065568D01*
X0119000Y0066166D02*
X0113000Y0066166D01*
X0113000Y0066765D02*
X0119465Y0066765D01*
X0113000Y0067363D02*
X0140000Y0067363D01*
X0140000Y0066765D02*
X0127535Y0066765D01*
X0128000Y0066166D02*
X0140000Y0066166D01*
X0140000Y0065568D02*
X0128000Y0065568D01*
X0128000Y0064969D02*
X0140000Y0064969D01*
X0140000Y0064370D02*
X0128000Y0064370D01*
X0128000Y0063772D02*
X0140000Y0063772D01*
X0140000Y0063173D02*
X0128000Y0063173D01*
X0128000Y0062575D02*
X0140000Y0062575D01*
X0140000Y0061976D02*
X0128000Y0061976D01*
X0128000Y0061378D02*
X0140000Y0061378D01*
X0140000Y0060779D02*
X0128521Y0060779D01*
X0129119Y0060181D02*
X0139881Y0060181D01*
X0139282Y0059582D02*
X0129718Y0059582D01*
X0130316Y0058984D02*
X0138684Y0058984D01*
X0138085Y0058385D02*
X0130915Y0058385D01*
X0129534Y0054794D02*
X0126522Y0054794D01*
X0126927Y0054196D02*
X0173621Y0054196D01*
X0173621Y0054794D02*
X0139466Y0054794D01*
X0137925Y0053597D02*
X0173621Y0053597D01*
X0173621Y0052999D02*
X0138374Y0052999D01*
X0138450Y0052400D02*
X0173621Y0052400D01*
X0173621Y0051802D02*
X0138450Y0051802D01*
X0138450Y0051203D02*
X0154016Y0051203D01*
X0156669Y0051755D02*
X0156669Y0051755D01*
X0154943Y0055393D02*
X0173621Y0055393D01*
X0173621Y0055991D02*
X0156232Y0055991D01*
X0156831Y0056590D02*
X0173621Y0056590D01*
X0173621Y0057188D02*
X0171256Y0057188D01*
X0170200Y0057188D02*
X0169600Y0057188D01*
X0169600Y0057000D02*
X0169600Y0065200D01*
X0165000Y0065200D01*
X0165000Y0061514D01*
X0165121Y0060753D01*
X0165359Y0060019D01*
X0165709Y0059332D01*
X0166162Y0058708D01*
X0166708Y0058162D01*
X0167332Y0057709D01*
X0168019Y0057359D01*
X0168753Y0057121D01*
X0169514Y0057000D01*
X0169600Y0057000D01*
X0169600Y0057787D02*
X0170200Y0057787D01*
X0170200Y0058385D02*
X0169600Y0058385D01*
X0169600Y0058984D02*
X0170200Y0058984D01*
X0170200Y0059582D02*
X0169600Y0059582D01*
X0169600Y0060181D02*
X0170200Y0060181D01*
X0170200Y0060779D02*
X0169600Y0060779D01*
X0169600Y0061378D02*
X0170200Y0061378D01*
X0170200Y0061976D02*
X0169600Y0061976D01*
X0169600Y0062575D02*
X0170200Y0062575D01*
X0170200Y0063173D02*
X0169600Y0063173D01*
X0169600Y0063772D02*
X0170200Y0063772D01*
X0170200Y0064370D02*
X0169600Y0064370D01*
X0169600Y0064969D02*
X0170200Y0064969D01*
X0169600Y0065568D02*
X0159200Y0065568D01*
X0159200Y0066166D02*
X0165000Y0066166D01*
X0165000Y0066765D02*
X0159200Y0066765D01*
X0159200Y0067363D02*
X0165000Y0067363D01*
X0165000Y0067962D02*
X0159200Y0067962D01*
X0159200Y0068560D02*
X0165000Y0068560D01*
X0165000Y0069159D02*
X0159200Y0069159D01*
X0159200Y0069757D02*
X0165043Y0069757D01*
X0165156Y0070356D02*
X0159200Y0070356D01*
X0159017Y0070954D02*
X0165350Y0070954D01*
X0165650Y0071553D02*
X0158769Y0071553D01*
X0158521Y0072151D02*
X0166060Y0072151D01*
X0166620Y0072750D02*
X0158273Y0072750D01*
X0157893Y0073348D02*
X0167444Y0073348D01*
X0169178Y0073947D02*
X0157294Y0073947D01*
X0156696Y0074545D02*
X0173621Y0074545D01*
X0173621Y0073947D02*
X0170622Y0073947D01*
X0170200Y0073947D02*
X0169600Y0073947D01*
X0169600Y0073348D02*
X0170200Y0073348D01*
X0170200Y0072750D02*
X0169600Y0072750D01*
X0169600Y0072151D02*
X0170200Y0072151D01*
X0170200Y0071553D02*
X0169600Y0071553D01*
X0169600Y0070954D02*
X0170200Y0070954D01*
X0170200Y0070356D02*
X0169600Y0070356D01*
X0169600Y0069757D02*
X0170200Y0069757D01*
X0170200Y0069159D02*
X0169600Y0069159D01*
X0169600Y0068560D02*
X0170200Y0068560D01*
X0170200Y0067962D02*
X0169600Y0067962D01*
X0169600Y0067363D02*
X0170200Y0067363D01*
X0170200Y0066765D02*
X0169600Y0066765D01*
X0169600Y0066166D02*
X0170200Y0066166D01*
X0173180Y0072750D02*
X0173621Y0072750D01*
X0173621Y0073348D02*
X0172356Y0073348D01*
X0173621Y0075144D02*
X0156062Y0075144D01*
X0154617Y0075742D02*
X0173621Y0075742D01*
X0173621Y0079932D02*
X0138300Y0079932D01*
X0138300Y0080530D02*
X0137700Y0080530D01*
X0137700Y0079946D02*
X0137700Y0083112D01*
X0135860Y0083112D01*
X0135530Y0083023D01*
X0135233Y0082852D01*
X0134991Y0082610D01*
X0134820Y0082314D01*
X0134731Y0081983D01*
X0134731Y0079946D01*
X0137700Y0079946D01*
X0137700Y0079932D02*
X0131812Y0079932D01*
X0131812Y0079600D02*
X0131812Y0081440D01*
X0131723Y0081770D01*
X0131552Y0082067D01*
X0131310Y0082309D01*
X0131014Y0082480D01*
X0130683Y0082568D01*
X0128646Y0082568D01*
X0128646Y0079600D01*
X0131812Y0079600D01*
X0131812Y0078735D02*
X0134731Y0078735D01*
X0134731Y0079333D02*
X0128646Y0079333D01*
X0128646Y0079932D02*
X0128046Y0079932D01*
X0128046Y0080530D02*
X0128646Y0080530D01*
X0128646Y0081129D02*
X0128046Y0081129D01*
X0128046Y0081727D02*
X0128646Y0081727D01*
X0128646Y0082326D02*
X0128046Y0082326D01*
X0126921Y0082924D02*
X0135358Y0082924D01*
X0134827Y0082326D02*
X0131280Y0082326D01*
X0131735Y0081727D02*
X0134731Y0081727D01*
X0134731Y0081129D02*
X0131812Y0081129D01*
X0131812Y0080530D02*
X0134731Y0080530D01*
X0134170Y0078136D02*
X0131812Y0078136D01*
X0137700Y0081129D02*
X0138300Y0081129D01*
X0138300Y0081727D02*
X0137700Y0081727D01*
X0137700Y0082326D02*
X0138300Y0082326D01*
X0138300Y0082924D02*
X0137700Y0082924D01*
X0139353Y0073947D02*
X0107353Y0073947D01*
X0106755Y0074545D02*
X0111755Y0074545D01*
X0111156Y0075144D02*
X0106156Y0075144D01*
X0106000Y0075742D02*
X0110558Y0075742D01*
X0109959Y0076341D02*
X0106000Y0076341D01*
X0106000Y0076939D02*
X0109361Y0076939D01*
X0108762Y0077538D02*
X0106000Y0077538D01*
X0106000Y0078136D02*
X0108164Y0078136D01*
X0107565Y0078735D02*
X0106000Y0078735D01*
X0106033Y0079333D02*
X0106967Y0079333D01*
X0102200Y0079333D02*
X0072700Y0079333D01*
X0072700Y0078735D02*
X0083960Y0078735D01*
X0084225Y0079000D02*
X0080300Y0075075D01*
X0080300Y0069525D01*
X0084225Y0065600D01*
X0089775Y0065600D01*
X0093700Y0069525D01*
X0093700Y0075075D01*
X0089775Y0079000D01*
X0084225Y0079000D01*
X0083361Y0078136D02*
X0072700Y0078136D01*
X0072700Y0077538D02*
X0082763Y0077538D01*
X0082164Y0076939D02*
X0072700Y0076939D01*
X0072700Y0076341D02*
X0081565Y0076341D01*
X0080967Y0075742D02*
X0072700Y0075742D01*
X0072700Y0075144D02*
X0080368Y0075144D01*
X0080300Y0074545D02*
X0072700Y0074545D01*
X0072700Y0073947D02*
X0080300Y0073947D01*
X0080300Y0073348D02*
X0072693Y0073348D01*
X0072445Y0072750D02*
X0080300Y0072750D01*
X0080300Y0072151D02*
X0072197Y0072151D01*
X0071899Y0071553D02*
X0080300Y0071553D01*
X0080300Y0070954D02*
X0071301Y0070954D01*
X0070702Y0070356D02*
X0080300Y0070356D01*
X0080300Y0069757D02*
X0072919Y0069757D01*
X0074364Y0069159D02*
X0080666Y0069159D01*
X0081265Y0068560D02*
X0075215Y0068560D01*
X0075814Y0067962D02*
X0081863Y0067962D01*
X0082462Y0067363D02*
X0076412Y0067363D01*
X0076817Y0066765D02*
X0083060Y0066765D01*
X0083659Y0066166D02*
X0077065Y0066166D01*
X0077313Y0065568D02*
X0109200Y0065568D01*
X0109200Y0066166D02*
X0090341Y0066166D01*
X0090940Y0066765D02*
X0109161Y0066765D01*
X0108563Y0067363D02*
X0091538Y0067363D01*
X0092137Y0067962D02*
X0107964Y0067962D01*
X0107366Y0068560D02*
X0092735Y0068560D01*
X0093334Y0069159D02*
X0106767Y0069159D01*
X0106169Y0069757D02*
X0093700Y0069757D01*
X0093700Y0070356D02*
X0105570Y0070356D01*
X0104972Y0070954D02*
X0093700Y0070954D01*
X0093700Y0071553D02*
X0104101Y0071553D01*
X0103502Y0072151D02*
X0093700Y0072151D01*
X0093700Y0072750D02*
X0102969Y0072750D01*
X0102695Y0073348D02*
X0093700Y0073348D01*
X0093700Y0073947D02*
X0102447Y0073947D01*
X0102200Y0074545D02*
X0093700Y0074545D01*
X0093632Y0075144D02*
X0102200Y0075144D01*
X0102200Y0075742D02*
X0093033Y0075742D01*
X0092434Y0076341D02*
X0102200Y0076341D01*
X0102200Y0076939D02*
X0091836Y0076939D01*
X0091237Y0077538D02*
X0102200Y0077538D01*
X0102200Y0078136D02*
X0090639Y0078136D01*
X0090040Y0078735D02*
X0102200Y0078735D01*
X0102200Y0079932D02*
X0072700Y0079932D01*
X0072700Y0080530D02*
X0102300Y0080530D01*
X0102300Y0081129D02*
X0072700Y0081129D01*
X0072700Y0081727D02*
X0085622Y0081727D01*
X0084379Y0082326D02*
X0072700Y0082326D01*
X0072700Y0082924D02*
X0083780Y0082924D01*
X0083390Y0083523D02*
X0072700Y0083523D01*
X0072700Y0084121D02*
X0083142Y0084121D01*
X0083004Y0084720D02*
X0072700Y0084720D01*
X0072700Y0085318D02*
X0083004Y0085318D01*
X0083004Y0085917D02*
X0072700Y0085917D01*
X0073952Y0086515D02*
X0074552Y0086515D01*
X0074552Y0086083D02*
X0077927Y0086083D01*
X0078258Y0086171D01*
X0078554Y0086342D01*
X0078796Y0086584D01*
X0078967Y0086881D01*
X0079056Y0087212D01*
X0079056Y0088500D01*
X0074552Y0088500D01*
X0074552Y0086083D01*
X0074552Y0087114D02*
X0073952Y0087114D01*
X0073952Y0087712D02*
X0074552Y0087712D01*
X0074552Y0088311D02*
X0073952Y0088311D01*
X0078517Y0088909D02*
X0081807Y0088909D01*
X0082405Y0088311D02*
X0079056Y0088311D01*
X0079056Y0087712D02*
X0083004Y0087712D01*
X0083004Y0087114D02*
X0079030Y0087114D01*
X0078727Y0086515D02*
X0083004Y0086515D01*
X0079056Y0089100D02*
X0079056Y0089100D01*
X0092451Y0094895D02*
X0102300Y0094895D01*
X0102300Y0095493D02*
X0092184Y0095493D01*
X0092583Y0096092D02*
X0102300Y0096092D01*
X0102300Y0096690D02*
X0092831Y0096690D01*
X0093078Y0097289D02*
X0102322Y0097289D01*
X0102570Y0097887D02*
X0093261Y0097887D01*
X0093261Y0098486D02*
X0102818Y0098486D01*
X0103137Y0099084D02*
X0093261Y0099084D01*
X0093261Y0099683D02*
X0103736Y0099683D01*
X0104334Y0100281D02*
X0093091Y0100281D01*
X0092843Y0100880D02*
X0104933Y0100880D01*
X0105531Y0101478D02*
X0092595Y0101478D01*
X0092214Y0102077D02*
X0106130Y0102077D01*
X0106728Y0102675D02*
X0092085Y0102675D01*
X0092684Y0103274D02*
X0107327Y0103274D01*
X0107781Y0103872D02*
X0093282Y0103872D01*
X0093881Y0104471D02*
X0107182Y0104471D01*
X0106584Y0105069D02*
X0094479Y0105069D01*
X0095078Y0105668D02*
X0105985Y0105668D01*
X0105387Y0106266D02*
X0095676Y0106266D01*
X0096275Y0106865D02*
X0104788Y0106865D01*
X0104190Y0107463D02*
X0096873Y0107463D01*
X0097472Y0108062D02*
X0103591Y0108062D01*
X0102993Y0108660D02*
X0098070Y0108660D01*
X0098669Y0109259D02*
X0102394Y0109259D01*
X0101796Y0109857D02*
X0099267Y0109857D01*
X0099866Y0110456D02*
X0101197Y0110456D01*
X0100599Y0111054D02*
X0100464Y0111054D01*
X0110900Y0114047D02*
X0152612Y0114047D01*
X0153211Y0113448D02*
X0111498Y0113448D01*
X0112097Y0112850D02*
X0154020Y0112850D01*
X0152540Y0108660D02*
X0152115Y0108660D01*
X0152700Y0107463D02*
X0152845Y0107463D01*
X0152700Y0106865D02*
X0153141Y0106865D01*
X0153547Y0106266D02*
X0152700Y0106266D01*
X0152700Y0105668D02*
X0154103Y0105668D01*
X0154910Y0105069D02*
X0152700Y0105069D01*
X0152700Y0104471D02*
X0156568Y0104471D01*
X0155734Y0100880D02*
X0173621Y0100880D01*
X0173621Y0101478D02*
X0154289Y0101478D01*
X0152700Y0102675D02*
X0173621Y0102675D01*
X0173621Y0102077D02*
X0152252Y0102077D01*
X0152700Y0103274D02*
X0173621Y0103274D01*
X0173621Y0103872D02*
X0152700Y0103872D01*
X0156560Y0100281D02*
X0173621Y0100281D01*
X0173621Y0099683D02*
X0157158Y0099683D01*
X0157757Y0099084D02*
X0167711Y0099084D01*
X0166774Y0098486D02*
X0158217Y0098486D01*
X0158465Y0097887D02*
X0166159Y0097887D01*
X0165724Y0097289D02*
X0158713Y0097289D01*
X0158961Y0096690D02*
X0165415Y0096690D01*
X0165200Y0096092D02*
X0159200Y0096092D01*
X0159200Y0095493D02*
X0165065Y0095493D01*
X0165000Y0094895D02*
X0159200Y0094895D01*
X0159200Y0094296D02*
X0165000Y0094296D01*
X0165000Y0093698D02*
X0159200Y0093698D01*
X0159200Y0093099D02*
X0165000Y0093099D01*
X0165000Y0092501D02*
X0159200Y0092501D01*
X0159200Y0091902D02*
X0165000Y0091902D01*
X0165000Y0090800D02*
X0165000Y0087114D01*
X0159200Y0087114D01*
X0159200Y0087712D02*
X0165000Y0087712D01*
X0165000Y0087114D02*
X0165121Y0086353D01*
X0165359Y0085619D01*
X0165709Y0084932D01*
X0166162Y0084308D01*
X0166708Y0083762D01*
X0167332Y0083309D01*
X0168019Y0082959D01*
X0168753Y0082721D01*
X0169514Y0082600D01*
X0169600Y0082600D01*
X0169600Y0090800D01*
X0165000Y0090800D01*
X0165000Y0090705D02*
X0159200Y0090705D01*
X0159200Y0091303D02*
X0169600Y0091303D01*
X0169600Y0090705D02*
X0170200Y0090705D01*
X0170200Y0090106D02*
X0169600Y0090106D01*
X0169600Y0089508D02*
X0170200Y0089508D01*
X0170200Y0088909D02*
X0169600Y0088909D01*
X0169600Y0088311D02*
X0170200Y0088311D01*
X0170200Y0087712D02*
X0169600Y0087712D01*
X0169600Y0087114D02*
X0170200Y0087114D01*
X0170200Y0086515D02*
X0169600Y0086515D01*
X0169600Y0085917D02*
X0170200Y0085917D01*
X0170200Y0085318D02*
X0169600Y0085318D01*
X0169600Y0084720D02*
X0170200Y0084720D01*
X0170200Y0084121D02*
X0169600Y0084121D01*
X0169600Y0083523D02*
X0170200Y0083523D01*
X0170200Y0082924D02*
X0169600Y0082924D01*
X0168126Y0082924D02*
X0157565Y0082924D01*
X0158138Y0083523D02*
X0167038Y0083523D01*
X0166349Y0084121D02*
X0158385Y0084121D01*
X0158633Y0084720D02*
X0165863Y0084720D01*
X0165512Y0085318D02*
X0158881Y0085318D01*
X0159129Y0085917D02*
X0165262Y0085917D01*
X0165095Y0086515D02*
X0159200Y0086515D01*
X0159200Y0088311D02*
X0165000Y0088311D01*
X0165000Y0088909D02*
X0159200Y0088909D01*
X0159200Y0089508D02*
X0165000Y0089508D01*
X0165000Y0090106D02*
X0159200Y0090106D01*
X0156967Y0082326D02*
X0173621Y0082326D01*
X0173621Y0082924D02*
X0171674Y0082924D01*
X0172762Y0083523D02*
X0173621Y0083523D01*
X0173621Y0084121D02*
X0173451Y0084121D01*
X0173621Y0081727D02*
X0156368Y0081727D01*
X0155272Y0081129D02*
X0173621Y0081129D01*
X0173621Y0080530D02*
X0153827Y0080530D01*
X0159200Y0064969D02*
X0165000Y0064969D01*
X0165000Y0064370D02*
X0159200Y0064370D01*
X0159200Y0063772D02*
X0165000Y0063772D01*
X0165000Y0063173D02*
X0159200Y0063173D01*
X0159200Y0062575D02*
X0165000Y0062575D01*
X0165000Y0061976D02*
X0159200Y0061976D01*
X0159200Y0061378D02*
X0165022Y0061378D01*
X0165116Y0060779D02*
X0159200Y0060779D01*
X0159073Y0060181D02*
X0165306Y0060181D01*
X0165581Y0059582D02*
X0158825Y0059582D01*
X0158577Y0058984D02*
X0165962Y0058984D01*
X0166485Y0058385D02*
X0158329Y0058385D01*
X0158028Y0057787D02*
X0167225Y0057787D01*
X0168544Y0057188D02*
X0157429Y0057188D01*
X0161967Y0051392D02*
X0161967Y0051392D01*
X0162499Y0051203D02*
X0173621Y0051203D01*
X0173621Y0050605D02*
X0164183Y0050605D01*
X0165867Y0050006D02*
X0173621Y0050006D01*
X0173621Y0049408D02*
X0167263Y0049408D01*
X0166971Y0049614D02*
X0166971Y0049614D01*
X0168111Y0048809D02*
X0173621Y0048809D01*
X0173621Y0048211D02*
X0168959Y0048211D01*
X0169807Y0047612D02*
X0173621Y0047612D01*
X0173621Y0047014D02*
X0170655Y0047014D01*
X0171310Y0046551D02*
X0171310Y0046551D01*
X0171421Y0046415D02*
X0173621Y0046415D01*
X0173621Y0045817D02*
X0171907Y0045817D01*
X0172394Y0045218D02*
X0173621Y0045218D01*
X0173621Y0044620D02*
X0172881Y0044620D01*
X0173368Y0044021D02*
X0173621Y0044021D01*
X0173621Y0057787D02*
X0172575Y0057787D01*
X0173315Y0058385D02*
X0173621Y0058385D01*
X0170200Y0091902D02*
X0169600Y0091902D01*
X0169600Y0092501D02*
X0170200Y0092501D01*
X0170200Y0093099D02*
X0169600Y0093099D01*
X0169600Y0093698D02*
X0170200Y0093698D01*
X0170200Y0094296D02*
X0169600Y0094296D01*
X0169600Y0094895D02*
X0170200Y0094895D01*
X0170200Y0095493D02*
X0169600Y0095493D01*
X0169600Y0096092D02*
X0170200Y0096092D01*
X0170200Y0096690D02*
X0169600Y0096690D01*
X0169600Y0097289D02*
X0170200Y0097289D01*
X0170200Y0097887D02*
X0169600Y0097887D01*
X0169600Y0098486D02*
X0170200Y0098486D01*
X0170200Y0099084D02*
X0169600Y0099084D01*
X0172089Y0099084D02*
X0173621Y0099084D01*
X0173621Y0098486D02*
X0173026Y0098486D01*
X0173621Y0104471D02*
X0165432Y0104471D01*
X0167090Y0105069D02*
X0173621Y0105069D01*
X0173621Y0105668D02*
X0167897Y0105668D01*
X0168453Y0106266D02*
X0173621Y0106266D01*
X0173621Y0106865D02*
X0168859Y0106865D01*
X0169155Y0107463D02*
X0173621Y0107463D01*
X0173621Y0108062D02*
X0169350Y0108062D01*
X0169460Y0108660D02*
X0173621Y0108660D01*
X0161300Y0108062D02*
X0160700Y0108062D01*
X0160700Y0107463D02*
X0161300Y0107463D01*
X0161300Y0106865D02*
X0160700Y0106865D01*
X0160700Y0106266D02*
X0161300Y0106266D01*
X0161300Y0105668D02*
X0160700Y0105668D01*
X0160700Y0105069D02*
X0161300Y0105069D01*
X0161300Y0104471D02*
X0160700Y0104471D01*
X0139952Y0073348D02*
X0107952Y0073348D01*
X0108550Y0072750D02*
X0140000Y0072750D01*
X0140000Y0072151D02*
X0109149Y0072151D01*
X0109747Y0071553D02*
X0140000Y0071553D01*
X0140000Y0070954D02*
X0110346Y0070954D01*
X0110944Y0070356D02*
X0140000Y0070356D01*
X0140000Y0069757D02*
X0111543Y0069757D01*
X0112141Y0069159D02*
X0140000Y0069159D01*
X0140000Y0068560D02*
X0112740Y0068560D01*
X0113000Y0067962D02*
X0140000Y0067962D01*
X0130075Y0053597D02*
X0127175Y0053597D01*
X0127323Y0052999D02*
X0129626Y0052999D01*
X0129550Y0052400D02*
X0127323Y0052400D01*
X0127323Y0051802D02*
X0129550Y0051802D01*
X0129550Y0051203D02*
X0127323Y0051203D01*
X0127323Y0050605D02*
X0129550Y0050605D01*
X0133700Y0049408D02*
X0134300Y0049408D01*
X0134300Y0048809D02*
X0133700Y0048809D01*
X0133700Y0048211D02*
X0134300Y0048211D01*
X0134300Y0047612D02*
X0133700Y0047612D01*
X0133700Y0047014D02*
X0134300Y0047014D01*
X0134300Y0046415D02*
X0133700Y0046415D01*
X0133700Y0045817D02*
X0134300Y0045817D01*
X0128533Y0055393D02*
X0126109Y0055393D01*
X0126708Y0055991D02*
X0127935Y0055991D01*
X0127336Y0056590D02*
X0127004Y0056590D01*
X0110760Y0045218D02*
X0108187Y0045218D01*
X0107687Y0044620D02*
X0110977Y0044620D01*
X0111225Y0044021D02*
X0107026Y0044021D01*
X0109955Y0034445D02*
X0060000Y0034445D01*
X0060000Y0035043D02*
X0072401Y0035043D01*
X0070956Y0035642D02*
X0060000Y0035642D01*
X0060000Y0036240D02*
X0070326Y0036240D01*
X0069727Y0036839D02*
X0060000Y0036839D01*
X0060000Y0037437D02*
X0069267Y0037437D01*
X0069019Y0038036D02*
X0060000Y0038036D01*
X0060000Y0038634D02*
X0068771Y0038634D01*
X0068531Y0039233D02*
X0060000Y0039233D01*
X0060000Y0039832D02*
X0068531Y0039832D01*
X0068531Y0040430D02*
X0060000Y0040430D01*
X0060000Y0041029D02*
X0068531Y0041029D01*
X0068631Y0041627D02*
X0060000Y0041627D01*
X0060000Y0042226D02*
X0068879Y0042226D01*
X0069126Y0042824D02*
X0060000Y0042824D01*
X0060000Y0043423D02*
X0069389Y0043423D01*
X0069987Y0044021D02*
X0060000Y0044021D01*
X0060000Y0044620D02*
X0070586Y0044620D01*
X0071584Y0045218D02*
X0060000Y0045218D01*
X0060000Y0045817D02*
X0084153Y0045817D01*
X0084751Y0046415D02*
X0060000Y0046415D01*
X0060000Y0056590D02*
X0066500Y0056590D01*
X0066524Y0057188D02*
X0060000Y0057188D01*
X0060000Y0057787D02*
X0067038Y0057787D01*
X0066439Y0058385D02*
X0060000Y0058385D01*
X0060000Y0058984D02*
X0065841Y0058984D01*
X0065288Y0059582D02*
X0060000Y0059582D01*
X0060000Y0060181D02*
X0065040Y0060181D01*
X0064792Y0060779D02*
X0060368Y0060779D01*
X0061725Y0061378D02*
X0064544Y0061378D01*
X0064300Y0061976D02*
X0062323Y0061976D01*
X0062922Y0062575D02*
X0064300Y0062575D01*
X0064300Y0063173D02*
X0063520Y0063173D01*
X0064119Y0063772D02*
X0064300Y0063772D01*
X0077561Y0064969D02*
X0109200Y0064969D01*
X0109200Y0064370D02*
X0106185Y0064370D01*
X0106441Y0063772D02*
X0109200Y0063772D01*
X0109200Y0063173D02*
X0106450Y0063173D01*
X0106450Y0062575D02*
X0109200Y0062575D01*
X0109200Y0061976D02*
X0106450Y0061976D01*
X0106450Y0061378D02*
X0109200Y0061378D01*
X0102300Y0081727D02*
X0092504Y0081727D01*
X0093747Y0082326D02*
X0102300Y0082326D01*
X0102300Y0082924D02*
X0094346Y0082924D01*
X0094736Y0083523D02*
X0102300Y0083523D01*
X0102300Y0084121D02*
X0100305Y0084121D01*
X0100294Y0084110D02*
X0100536Y0084352D01*
X0100707Y0084649D01*
X0100796Y0084979D01*
X0100796Y0088000D01*
X0097237Y0088000D01*
X0097237Y0083850D01*
X0099667Y0083850D01*
X0099998Y0083939D01*
X0100294Y0084110D01*
X0100727Y0084720D02*
X0102300Y0084720D01*
X0102300Y0085318D02*
X0100796Y0085318D01*
X0100796Y0085917D02*
X0102300Y0085917D01*
X0102300Y0086515D02*
X0100796Y0086515D01*
X0100796Y0087114D02*
X0102300Y0087114D01*
X0102300Y0087712D02*
X0100796Y0087712D01*
X0100796Y0088600D02*
X0100796Y0091621D01*
X0100707Y0091951D01*
X0100536Y0092248D01*
X0100294Y0092490D01*
X0099998Y0092661D01*
X0099667Y0092750D01*
X0097237Y0092750D01*
X0097237Y0088600D01*
X0100796Y0088600D01*
X0100796Y0088909D02*
X0102300Y0088909D01*
X0102300Y0088311D02*
X0097237Y0088311D01*
X0097237Y0088909D02*
X0096637Y0088909D01*
X0096637Y0089508D02*
X0097237Y0089508D01*
X0097237Y0090106D02*
X0096637Y0090106D01*
X0096637Y0090705D02*
X0097237Y0090705D01*
X0097237Y0091303D02*
X0096637Y0091303D01*
X0096637Y0091902D02*
X0097237Y0091902D01*
X0097237Y0092501D02*
X0096637Y0092501D01*
X0094727Y0093099D02*
X0102300Y0093099D01*
X0102300Y0092501D02*
X0100276Y0092501D01*
X0100721Y0091902D02*
X0102300Y0091902D01*
X0102300Y0091303D02*
X0100796Y0091303D01*
X0100796Y0090705D02*
X0102300Y0090705D01*
X0102300Y0090106D02*
X0100796Y0090106D01*
X0100796Y0089508D02*
X0102300Y0089508D01*
X0102300Y0093698D02*
X0094324Y0093698D01*
X0093725Y0094296D02*
X0102300Y0094296D01*
X0097237Y0087712D02*
X0096637Y0087712D01*
X0096637Y0087114D02*
X0097237Y0087114D01*
X0097237Y0086515D02*
X0096637Y0086515D01*
X0096637Y0085917D02*
X0097237Y0085917D01*
X0097237Y0085318D02*
X0096637Y0085318D01*
X0096637Y0084720D02*
X0097237Y0084720D01*
X0097237Y0084121D02*
X0096637Y0084121D01*
X0111700Y0084121D02*
X0112567Y0084121D01*
X0087300Y0046415D02*
X0086700Y0046415D01*
X0086700Y0045817D02*
X0087300Y0045817D01*
X0087300Y0045218D02*
X0086700Y0045218D01*
X0086700Y0044620D02*
X0087300Y0044620D01*
X0087300Y0044021D02*
X0086700Y0044021D01*
X0086700Y0043423D02*
X0087300Y0043423D01*
X0087300Y0041627D02*
X0086700Y0041627D01*
X0086700Y0041029D02*
X0087300Y0041029D01*
X0087300Y0040430D02*
X0086700Y0040430D01*
X0086700Y0039832D02*
X0087300Y0039832D01*
X0087300Y0039233D02*
X0086700Y0039233D01*
X0086700Y0038634D02*
X0087300Y0038634D01*
X0087300Y0038036D02*
X0086700Y0038036D01*
X0082500Y0043423D02*
X0078611Y0043423D01*
X0078013Y0044021D02*
X0082500Y0044021D01*
X0082956Y0044620D02*
X0077414Y0044620D01*
X0076416Y0045218D02*
X0083554Y0045218D01*
X0060000Y0033846D02*
X0109900Y0033846D01*
X0109900Y0033248D02*
X0060000Y0033248D01*
X0060000Y0032649D02*
X0109900Y0032649D01*
X0109900Y0032051D02*
X0060000Y0032051D01*
X0060000Y0031452D02*
X0109900Y0031452D01*
X0109900Y0030854D02*
X0060000Y0030854D01*
X0060000Y0030255D02*
X0109900Y0030255D01*
X0109900Y0029657D02*
X0060000Y0029657D01*
X0060000Y0029058D02*
X0109900Y0029058D01*
X0109900Y0028460D02*
X0060000Y0028460D01*
X0060000Y0027861D02*
X0109900Y0027861D01*
X0109900Y0027263D02*
X0060000Y0027263D01*
X0060000Y0026664D02*
X0109900Y0026664D01*
X0109900Y0026066D02*
X0060000Y0026066D01*
X0060000Y0025467D02*
X0109900Y0025467D01*
X0109900Y0024869D02*
X0060000Y0024869D01*
X0060000Y0024270D02*
X0109907Y0024270D01*
X0110155Y0023672D02*
X0060000Y0023672D01*
X0060000Y0023073D02*
X0110403Y0023073D01*
X0110651Y0022475D02*
X0060000Y0022475D01*
X0060000Y0021876D02*
X0110899Y0021876D01*
X0111381Y0021278D02*
X0060000Y0021278D01*
X0060000Y0020679D02*
X0111980Y0020679D01*
X0112578Y0020081D02*
X0060000Y0020081D01*
X0060000Y0019482D02*
X0113458Y0019482D01*
X0114903Y0018884D02*
X0060000Y0018884D01*
X0060000Y0018285D02*
X0144703Y0018285D01*
X0144062Y0018884D02*
X0119097Y0018884D01*
X0145344Y0017687D02*
X0060000Y0017687D01*
X0060000Y0017088D02*
X0145985Y0017088D01*
X0059000Y0104471D02*
X0016829Y0104471D01*
X0016231Y0105069D02*
X0059000Y0105069D01*
X0059000Y0105668D02*
X0015632Y0105668D01*
X0015034Y0106266D02*
X0059000Y0106266D01*
X0059000Y0106865D02*
X0015000Y0106865D01*
X0015000Y0107463D02*
X0059000Y0107463D01*
X0059000Y0108062D02*
X0015000Y0108062D01*
X0015000Y0108660D02*
X0059000Y0108660D01*
X0059000Y0109259D02*
X0015000Y0109259D01*
X0015000Y0109857D02*
X0059000Y0109857D01*
X0059000Y0110456D02*
X0015000Y0110456D01*
X0015000Y0111054D02*
X0059000Y0111054D01*
X0059000Y0111653D02*
X0015000Y0111653D01*
X0015000Y0112251D02*
X0059000Y0112251D01*
X0059000Y0112850D02*
X0015000Y0112850D01*
X0015000Y0113448D02*
X0059000Y0113448D01*
X0059000Y0114047D02*
X0015000Y0114047D01*
X0015000Y0114645D02*
X0058655Y0114645D01*
X0058056Y0115244D02*
X0015000Y0115244D01*
X0015000Y0115842D02*
X0057458Y0115842D01*
X0056859Y0116441D02*
X0015000Y0116441D01*
X0015000Y0117039D02*
X0056261Y0117039D01*
X0055662Y0117638D02*
X0015000Y0117638D01*
X0015324Y0061976D02*
X0042676Y0061976D01*
X0042078Y0061378D02*
X0015922Y0061378D01*
X0016521Y0060779D02*
X0041479Y0060779D01*
X0162957Y0229560D02*
X0173621Y0229560D01*
X0173621Y0230158D02*
X0164641Y0230158D01*
X0166325Y0230757D02*
X0173621Y0230757D01*
X0173621Y0231355D02*
X0167494Y0231355D01*
X0168342Y0231954D02*
X0173621Y0231954D01*
X0173621Y0232552D02*
X0169190Y0232552D01*
X0170038Y0233151D02*
X0173621Y0233151D01*
X0173621Y0233749D02*
X0170885Y0233749D01*
X0171310Y0234049D02*
X0171310Y0234049D01*
X0171310Y0234049D01*
X0171553Y0234348D02*
X0173621Y0234348D01*
X0173621Y0234946D02*
X0172040Y0234946D01*
X0172527Y0235545D02*
X0173621Y0235545D01*
X0173621Y0236143D02*
X0173014Y0236143D01*
X0173501Y0236742D02*
X0173621Y0236742D01*
X0173621Y0218188D02*
X0166524Y0218188D01*
X0167969Y0217589D02*
X0173621Y0217589D01*
X0173621Y0216991D02*
X0168950Y0216991D01*
X0169549Y0216392D02*
X0173621Y0216392D01*
X0173621Y0215794D02*
X0170147Y0215794D01*
X0170671Y0215195D02*
X0173621Y0215195D01*
X0173621Y0214597D02*
X0170919Y0214597D01*
X0171167Y0213998D02*
X0173621Y0213998D01*
X0173621Y0213400D02*
X0171415Y0213400D01*
X0171663Y0212801D02*
X0173621Y0212801D01*
X0173621Y0212203D02*
X0171700Y0212203D01*
X0171700Y0211604D02*
X0173621Y0211604D01*
X0173621Y0211006D02*
X0171700Y0211006D01*
X0171700Y0210407D02*
X0173621Y0210407D01*
X0173621Y0209809D02*
X0171667Y0209809D01*
X0171419Y0209210D02*
X0173621Y0209210D01*
X0173621Y0208612D02*
X0171171Y0208612D01*
X0170924Y0208013D02*
X0173621Y0208013D01*
X0173621Y0207415D02*
X0170676Y0207415D01*
X0170157Y0206816D02*
X0173621Y0206816D01*
X0173621Y0206218D02*
X0169723Y0206218D01*
X0170322Y0205619D02*
X0173621Y0205619D01*
X0173621Y0205021D02*
X0170744Y0205021D01*
X0170992Y0204422D02*
X0173621Y0204422D01*
X0173621Y0203824D02*
X0171240Y0203824D01*
X0171488Y0203225D02*
X0173621Y0203225D01*
X0173621Y0202627D02*
X0171700Y0202627D01*
X0171700Y0202028D02*
X0173621Y0202028D01*
X0173621Y0201430D02*
X0171700Y0201430D01*
X0171700Y0200831D02*
X0173621Y0200831D01*
X0173621Y0200233D02*
X0171700Y0200233D01*
X0171595Y0199634D02*
X0173621Y0199634D01*
X0173621Y0199036D02*
X0171347Y0199036D01*
X0171099Y0198437D02*
X0173621Y0198437D01*
X0173621Y0197839D02*
X0170851Y0197839D01*
X0170581Y0197240D02*
X0173621Y0197240D01*
X0173621Y0196641D02*
X0169982Y0196641D01*
X0169898Y0196043D02*
X0173621Y0196043D01*
X0173621Y0195444D02*
X0170496Y0195444D01*
X0170816Y0194846D02*
X0173621Y0194846D01*
X0173621Y0194247D02*
X0171064Y0194247D01*
X0171312Y0193649D02*
X0173621Y0193649D01*
X0173621Y0193050D02*
X0171560Y0193050D01*
X0171700Y0192452D02*
X0173621Y0192452D01*
X0173621Y0191853D02*
X0171700Y0191853D01*
X0171700Y0191255D02*
X0173621Y0191255D01*
X0173621Y0190656D02*
X0171700Y0190656D01*
X0171700Y0190058D02*
X0173621Y0190058D01*
X0173621Y0189459D02*
X0171523Y0189459D01*
X0171275Y0188861D02*
X0173621Y0188861D01*
X0173621Y0188262D02*
X0171027Y0188262D01*
X0170779Y0187664D02*
X0173621Y0187664D01*
X0173621Y0187065D02*
X0170406Y0187065D01*
X0169808Y0186467D02*
X0173621Y0186467D01*
X0173621Y0185868D02*
X0170073Y0185868D01*
X0170641Y0185270D02*
X0173621Y0185270D01*
X0173621Y0184671D02*
X0170889Y0184671D01*
X0171136Y0184073D02*
X0173621Y0184073D01*
X0173621Y0183474D02*
X0171384Y0183474D01*
X0171632Y0182876D02*
X0173621Y0182876D01*
X0173621Y0182277D02*
X0171700Y0182277D01*
X0171700Y0181679D02*
X0173621Y0181679D01*
X0173621Y0181080D02*
X0171700Y0181080D01*
X0171700Y0180482D02*
X0173621Y0180482D01*
X0173621Y0179883D02*
X0171698Y0179883D01*
X0171450Y0179285D02*
X0173621Y0179285D01*
X0173621Y0178686D02*
X0171202Y0178686D01*
X0170954Y0178088D02*
X0173621Y0178088D01*
X0173621Y0177489D02*
X0170706Y0177489D01*
X0170232Y0176891D02*
X0173621Y0176891D01*
X0173621Y0176292D02*
X0169633Y0176292D01*
X0169035Y0175694D02*
X0173621Y0175694D01*
X0173621Y0175095D02*
X0168173Y0175095D01*
X0168333Y0174497D02*
X0173621Y0174497D01*
X0173621Y0173898D02*
X0168769Y0173898D01*
X0169081Y0173300D02*
X0173621Y0173300D01*
X0173621Y0172701D02*
X0169297Y0172701D01*
X0169434Y0172103D02*
X0173621Y0172103D01*
D28*
X0161000Y0139300D02*
X0146346Y0139300D01*
X0146346Y0129300D02*
X0161000Y0129300D01*
X0128500Y0177300D02*
X0124500Y0177300D01*
X0124500Y0155300D01*
X0124500Y0148146D01*
X0124000Y0147646D01*
X0118000Y0160300D02*
X0118000Y0181073D01*
X0113837Y0185236D01*
X0116064Y0187463D02*
X0112000Y0191527D01*
X0112000Y0193300D01*
X0116064Y0187463D02*
X0124500Y0179027D01*
X0124500Y0177300D01*
X0128500Y0177300D02*
X0138000Y0186800D01*
X0138000Y0187954D01*
X0138000Y0194646D02*
X0138000Y0202300D01*
X0147000Y0211300D01*
X0161000Y0211300D01*
X0128000Y0197300D02*
X0124845Y0194145D01*
X0122745Y0194145D01*
X0120518Y0191918D02*
X0123136Y0189300D01*
X0128000Y0189300D01*
X0126000Y0184300D02*
X0123681Y0184300D01*
X0118291Y0189691D01*
X0111609Y0183009D02*
X0115000Y0179619D01*
X0115000Y0163300D01*
X0112000Y0160300D01*
X0107155Y0173455D02*
X0107155Y0178555D01*
X0098845Y0178555D02*
X0082590Y0162300D01*
X0080000Y0162300D01*
X0088000Y0174300D02*
X0090136Y0174300D01*
X0096618Y0180782D01*
X0092163Y0185236D02*
X0100000Y0193073D01*
X0100000Y0194300D01*
X0107000Y0201300D01*
X0107000Y0204527D01*
X0107000Y0204300D01*
X0107000Y0204527D02*
X0113837Y0211364D01*
X0116064Y0209137D02*
X0119000Y0212073D01*
X0119000Y0216300D01*
X0114319Y0216300D01*
X0111609Y0213591D01*
X0109382Y0215818D02*
X0114864Y0221300D01*
X0117000Y0221300D01*
X0118724Y0223024D01*
X0118724Y0228300D01*
X0114000Y0228300D02*
X0114000Y0233300D01*
X0113500Y0233800D01*
X0119000Y0239300D01*
X0114000Y0235300D02*
X0114000Y0233300D01*
X0114000Y0235300D02*
X0113000Y0236300D01*
X0109276Y0228300D02*
X0109276Y0220165D01*
X0107155Y0218045D01*
X0118291Y0206909D02*
X0105681Y0194300D01*
X0100000Y0194300D01*
X0092163Y0185236D02*
X0084227Y0177300D01*
X0076000Y0177300D01*
X0080346Y0182300D02*
X0084773Y0182300D01*
X0089936Y0187463D01*
X0085618Y0191918D02*
X0085482Y0191918D01*
X0081211Y0187646D01*
X0083255Y0194145D02*
X0072502Y0194145D01*
X0072346Y0194300D01*
X0073000Y0194954D01*
X0073000Y0201300D01*
X0077000Y0208710D02*
X0077000Y0220300D01*
X0066000Y0231300D01*
X0066000Y0250300D01*
X0082000Y0220300D02*
X0082000Y0208164D01*
X0085482Y0204682D01*
X0083255Y0202455D02*
X0077000Y0208710D01*
X0082000Y0220300D02*
X0096000Y0234300D01*
X0096000Y0250300D01*
X0066000Y0202847D02*
X0065654Y0202501D01*
X0065654Y0194300D01*
X0115547Y0079300D02*
X0115000Y0078753D01*
X0115547Y0079300D02*
X0121654Y0079300D01*
X0121512Y0073300D02*
X0115378Y0073300D01*
X0115260Y0073181D01*
X0115260Y0071847D02*
X0115000Y0071847D01*
X0110453Y0071847D01*
X0107000Y0075300D01*
X0115260Y0071847D02*
X0115260Y0060419D01*
X0118000Y0055300D02*
X0110000Y0055300D01*
X0104488Y0060812D01*
X0102000Y0060812D01*
X0102000Y0049788D02*
X0114867Y0049788D01*
X0115260Y0050181D01*
X0115260Y0046040D01*
X0117000Y0044300D01*
X0117000Y0029300D01*
X0117000Y0044300D02*
X0121000Y0044300D01*
X0122740Y0046040D01*
X0122740Y0050181D01*
X0119000Y0050181D02*
X0119000Y0054300D01*
X0120000Y0055300D01*
X0128000Y0055300D01*
X0134000Y0060812D02*
X0138000Y0064812D01*
X0138000Y0072954D01*
X0134000Y0060812D02*
X0121512Y0073300D01*
X0118000Y0055300D02*
X0119000Y0054300D01*
D29*
X0087878Y0098800D03*
X0054000Y0113300D03*
X0048000Y0113300D03*
X0048000Y0106300D03*
X0048000Y0120300D03*
X0048000Y0086300D03*
X0048000Y0079300D03*
X0048000Y0072300D03*
X0054000Y0079300D03*
X0112000Y0160300D03*
X0118000Y0160300D03*
X0107000Y0173300D03*
X0112000Y0193300D03*
X0101000Y0207300D03*
X0096000Y0202300D03*
X0080000Y0175300D03*
X0088000Y0174300D03*
X0070000Y0178300D03*
X0073000Y0201300D03*
X0065000Y0216300D03*
X0065000Y0221300D03*
X0119000Y0216300D03*
X0128000Y0197300D03*
X0128000Y0189300D03*
X0126000Y0184300D03*
X0124000Y0135300D03*
D30*
X0103063Y0120300D02*
X0100531Y0117769D01*
X0113000Y0105300D01*
X0116000Y0105300D01*
X0107000Y0096300D01*
X0107000Y0075300D01*
X0088000Y0072300D02*
X0087000Y0072300D01*
X0089063Y0088300D02*
X0083563Y0093800D01*
X0074252Y0093800D01*
X0074252Y0098800D02*
X0087878Y0098800D01*
X0086563Y0103800D02*
X0074252Y0103800D01*
X0086563Y0103800D02*
X0100531Y0117769D01*
X0107000Y0173300D02*
X0107155Y0173455D01*
X0085618Y0191918D02*
X0096000Y0202300D01*
X0076000Y0177300D02*
X0073000Y0177300D01*
X0073000Y0181646D01*
X0073654Y0182300D01*
X0146000Y0105300D02*
X0146000Y0097200D01*
X0152100Y0091100D01*
D31*
X0144000Y0119300D02*
X0139654Y0123646D01*
X0139654Y0129300D01*
X0139654Y0139300D01*
X0138000Y0140954D01*
X0124000Y0140954D01*
X0114346Y0140954D01*
X0103063Y0129670D01*
X0103063Y0120300D01*
X0114346Y0140954D02*
X0106000Y0149300D01*
X0085000Y0149300D01*
X0081211Y0187646D02*
X0065000Y0187646D01*
X0061000Y0187646D01*
X0057000Y0191646D01*
X0057000Y0258300D01*
X0061000Y0262300D01*
X0072000Y0262300D01*
X0076000Y0258300D01*
X0076000Y0250300D01*
X0101000Y0207300D02*
X0096000Y0202300D01*
X0124000Y0140954D02*
X0124000Y0135300D01*
X0144000Y0119300D02*
X0161000Y0119300D01*
M02*
