%
M48
M72
T01C0.0217
T02C0.0320
T03C0.0400
T04C0.1299
%
T01
X4800Y7230
X4800Y7930
X5400Y7930
X4800Y8630
X4800Y10630
X4800Y11330
X4800Y12030
X5400Y11330
X8788Y9880
X12400Y13530
X11800Y16030
X11200Y16030
X10700Y17330
X11200Y19330
X10100Y20730
X9600Y20230
X8000Y17530
X8800Y17430
X7000Y17830
X7300Y20130
X6500Y21630
X6500Y22130
X11900Y21630
X12800Y19730
X12800Y18930
X12600Y18430
T02
X8500Y14930
X8000Y16230
X7100Y14930
X5000Y16230
X7100Y11930
X8500Y11930
X11600Y10530
X8700Y7230
X7100Y6330
X7100Y5530
X8700Y4230
X14600Y10530
T03
X15210Y9110
X16100Y10930
X16100Y11930
X16100Y12930
X16100Y13930
X16100Y16130
X16100Y17130
X16100Y18130
X16100Y19130
X16100Y20130
X16100Y21130
X11600Y25030
X10600Y25030
X9600Y25030
X8600Y25030
X7600Y25030
X6600Y25030
X16990Y9110
X16990Y6550
X15210Y6550
X12700Y2930
X11700Y2930
T04
X2100Y3230
X2900Y7430
X2900Y11830
X2900Y16230
X2900Y20630
X2100Y24830
X15800Y24830
X15800Y3230
M30
