G75*
%MOIN*%
%OFA0B0*%
%FSLAX25Y25*%
%IPPOS*%
%LPD*%
%AMOC8*
5,1,8,0,0,1.08239X$1,22.5*
%
%ADD10C,0.00000*%
%ADD11C,0.04000*%
D10*
X0021000Y0012300D02*
X0158684Y0012300D01*
X0159149Y0012306D01*
X0159613Y0012322D01*
X0160077Y0012351D01*
X0160541Y0012390D01*
X0161003Y0012440D01*
X0161464Y0012502D01*
X0161923Y0012575D01*
X0162380Y0012658D01*
X0162835Y0012753D01*
X0163288Y0012859D01*
X0163738Y0012976D01*
X0164185Y0013103D01*
X0164629Y0013242D01*
X0165069Y0013391D01*
X0165506Y0013550D01*
X0165938Y0013720D01*
X0166367Y0013901D01*
X0166790Y0014091D01*
X0167210Y0014292D01*
X0167624Y0014503D01*
X0168033Y0014724D01*
X0168436Y0014955D01*
X0168834Y0015196D01*
X0169226Y0015446D01*
X0169612Y0015705D01*
X0169991Y0015974D01*
X0170364Y0016252D01*
X0170730Y0016538D01*
X0171089Y0016834D01*
X0171440Y0017138D01*
X0171785Y0017450D01*
X0172121Y0017771D01*
X0172450Y0018100D01*
X0172771Y0018436D01*
X0173083Y0018781D01*
X0173387Y0019132D01*
X0173683Y0019491D01*
X0173969Y0019857D01*
X0174247Y0020230D01*
X0174516Y0020609D01*
X0174775Y0020995D01*
X0175025Y0021387D01*
X0175266Y0021785D01*
X0175497Y0022188D01*
X0175718Y0022597D01*
X0175929Y0023011D01*
X0176130Y0023431D01*
X0176320Y0023854D01*
X0176501Y0024283D01*
X0176671Y0024715D01*
X0176830Y0025152D01*
X0176979Y0025592D01*
X0177118Y0026036D01*
X0177245Y0026483D01*
X0177362Y0026933D01*
X0177468Y0027386D01*
X0177563Y0027841D01*
X0177646Y0028298D01*
X0177719Y0028757D01*
X0177781Y0029218D01*
X0177831Y0029680D01*
X0177870Y0030144D01*
X0177899Y0030608D01*
X0177915Y0031072D01*
X0177921Y0031537D01*
X0177921Y0249918D01*
X0177916Y0250355D01*
X0177900Y0250792D01*
X0177873Y0251228D01*
X0177837Y0251663D01*
X0177789Y0252098D01*
X0177731Y0252531D01*
X0177663Y0252962D01*
X0177584Y0253392D01*
X0177495Y0253820D01*
X0177396Y0254246D01*
X0177286Y0254669D01*
X0177166Y0255089D01*
X0177036Y0255506D01*
X0176896Y0255920D01*
X0176746Y0256330D01*
X0176586Y0256737D01*
X0176416Y0257140D01*
X0176237Y0257538D01*
X0176048Y0257932D01*
X0175850Y0258322D01*
X0175642Y0258706D01*
X0175425Y0259085D01*
X0175199Y0259459D01*
X0174964Y0259828D01*
X0174720Y0260190D01*
X0174467Y0260547D01*
X0174206Y0260897D01*
X0173937Y0261241D01*
X0173659Y0261579D01*
X0173373Y0261909D01*
X0173080Y0262233D01*
X0172778Y0262549D01*
X0172469Y0262858D01*
X0172153Y0263160D01*
X0171829Y0263453D01*
X0171499Y0263739D01*
X0171161Y0264017D01*
X0170817Y0264286D01*
X0170467Y0264547D01*
X0170110Y0264800D01*
X0169748Y0265044D01*
X0169379Y0265279D01*
X0169005Y0265505D01*
X0168626Y0265722D01*
X0168242Y0265930D01*
X0167852Y0266128D01*
X0167458Y0266317D01*
X0167060Y0266496D01*
X0166657Y0266666D01*
X0166250Y0266826D01*
X0165840Y0266976D01*
X0165426Y0267116D01*
X0165009Y0267246D01*
X0164589Y0267366D01*
X0164166Y0267476D01*
X0163740Y0267575D01*
X0163312Y0267664D01*
X0162882Y0267743D01*
X0162451Y0267811D01*
X0162018Y0267869D01*
X0161583Y0267917D01*
X0161148Y0267953D01*
X0160712Y0267980D01*
X0160275Y0267996D01*
X0159838Y0268001D01*
X0019818Y0268001D01*
X0019363Y0267996D01*
X0018909Y0267979D01*
X0018455Y0267952D01*
X0018002Y0267913D01*
X0017550Y0267864D01*
X0017099Y0267804D01*
X0016650Y0267732D01*
X0016203Y0267650D01*
X0015757Y0267558D01*
X0015315Y0267454D01*
X0014874Y0267340D01*
X0014437Y0267215D01*
X0014003Y0267080D01*
X0013572Y0266934D01*
X0013145Y0266778D01*
X0012722Y0266612D01*
X0012303Y0266435D01*
X0011888Y0266249D01*
X0011478Y0266052D01*
X0011073Y0265846D01*
X0010673Y0265629D01*
X0010278Y0265404D01*
X0009889Y0265168D01*
X0009506Y0264924D01*
X0009128Y0264670D01*
X0008757Y0264407D01*
X0008392Y0264135D01*
X0008034Y0263855D01*
X0007683Y0263566D01*
X0007339Y0263268D01*
X0007003Y0262963D01*
X0006673Y0262649D01*
X0006352Y0262328D01*
X0006038Y0261998D01*
X0005733Y0261662D01*
X0005435Y0261318D01*
X0005146Y0260967D01*
X0004866Y0260609D01*
X0004594Y0260244D01*
X0004331Y0259873D01*
X0004077Y0259495D01*
X0003833Y0259112D01*
X0003597Y0258723D01*
X0003372Y0258328D01*
X0003155Y0257928D01*
X0002949Y0257523D01*
X0002752Y0257113D01*
X0002566Y0256698D01*
X0002389Y0256279D01*
X0002223Y0255856D01*
X0002067Y0255429D01*
X0001921Y0254998D01*
X0001786Y0254564D01*
X0001661Y0254127D01*
X0001547Y0253686D01*
X0001443Y0253244D01*
X0001351Y0252798D01*
X0001269Y0252351D01*
X0001197Y0251902D01*
X0001137Y0251451D01*
X0001088Y0250999D01*
X0001049Y0250546D01*
X0001022Y0250092D01*
X0001005Y0249638D01*
X0001000Y0249183D01*
X0001000Y0032300D01*
X0014504Y0032300D02*
X0014506Y0032461D01*
X0014512Y0032621D01*
X0014522Y0032782D01*
X0014536Y0032942D01*
X0014554Y0033101D01*
X0014575Y0033261D01*
X0014601Y0033419D01*
X0014631Y0033577D01*
X0014664Y0033734D01*
X0014702Y0033891D01*
X0014743Y0034046D01*
X0014788Y0034200D01*
X0014837Y0034353D01*
X0014890Y0034505D01*
X0014946Y0034655D01*
X0015006Y0034804D01*
X0015070Y0034952D01*
X0015137Y0035098D01*
X0015208Y0035242D01*
X0015283Y0035384D01*
X0015361Y0035525D01*
X0015442Y0035663D01*
X0015527Y0035800D01*
X0015616Y0035934D01*
X0015707Y0036066D01*
X0015802Y0036196D01*
X0015900Y0036323D01*
X0016001Y0036448D01*
X0016105Y0036571D01*
X0016212Y0036690D01*
X0016322Y0036807D01*
X0016435Y0036922D01*
X0016551Y0037033D01*
X0016669Y0037142D01*
X0016790Y0037247D01*
X0016914Y0037350D01*
X0017040Y0037450D01*
X0017169Y0037546D01*
X0017300Y0037639D01*
X0017433Y0037729D01*
X0017568Y0037816D01*
X0017706Y0037899D01*
X0017845Y0037978D01*
X0017987Y0038055D01*
X0018130Y0038128D01*
X0018275Y0038197D01*
X0018422Y0038262D01*
X0018570Y0038324D01*
X0018720Y0038383D01*
X0018871Y0038437D01*
X0019023Y0038488D01*
X0019177Y0038535D01*
X0019332Y0038578D01*
X0019487Y0038617D01*
X0019644Y0038653D01*
X0019802Y0038685D01*
X0019960Y0038712D01*
X0020119Y0038736D01*
X0020278Y0038756D01*
X0020438Y0038772D01*
X0020599Y0038784D01*
X0020759Y0038792D01*
X0020920Y0038796D01*
X0021080Y0038796D01*
X0021241Y0038792D01*
X0021401Y0038784D01*
X0021562Y0038772D01*
X0021722Y0038756D01*
X0021881Y0038736D01*
X0022040Y0038712D01*
X0022198Y0038685D01*
X0022356Y0038653D01*
X0022513Y0038617D01*
X0022668Y0038578D01*
X0022823Y0038535D01*
X0022977Y0038488D01*
X0023129Y0038437D01*
X0023280Y0038383D01*
X0023430Y0038324D01*
X0023578Y0038262D01*
X0023725Y0038197D01*
X0023870Y0038128D01*
X0024013Y0038055D01*
X0024155Y0037978D01*
X0024294Y0037899D01*
X0024432Y0037816D01*
X0024567Y0037729D01*
X0024700Y0037639D01*
X0024831Y0037546D01*
X0024960Y0037450D01*
X0025086Y0037350D01*
X0025210Y0037247D01*
X0025331Y0037142D01*
X0025449Y0037033D01*
X0025565Y0036922D01*
X0025678Y0036807D01*
X0025788Y0036690D01*
X0025895Y0036571D01*
X0025999Y0036448D01*
X0026100Y0036323D01*
X0026198Y0036196D01*
X0026293Y0036066D01*
X0026384Y0035934D01*
X0026473Y0035800D01*
X0026558Y0035663D01*
X0026639Y0035525D01*
X0026717Y0035384D01*
X0026792Y0035242D01*
X0026863Y0035098D01*
X0026930Y0034952D01*
X0026994Y0034804D01*
X0027054Y0034655D01*
X0027110Y0034505D01*
X0027163Y0034353D01*
X0027212Y0034200D01*
X0027257Y0034046D01*
X0027298Y0033891D01*
X0027336Y0033734D01*
X0027369Y0033577D01*
X0027399Y0033419D01*
X0027425Y0033261D01*
X0027446Y0033101D01*
X0027464Y0032942D01*
X0027478Y0032782D01*
X0027488Y0032621D01*
X0027494Y0032461D01*
X0027496Y0032300D01*
X0027494Y0032139D01*
X0027488Y0031979D01*
X0027478Y0031818D01*
X0027464Y0031658D01*
X0027446Y0031499D01*
X0027425Y0031339D01*
X0027399Y0031181D01*
X0027369Y0031023D01*
X0027336Y0030866D01*
X0027298Y0030709D01*
X0027257Y0030554D01*
X0027212Y0030400D01*
X0027163Y0030247D01*
X0027110Y0030095D01*
X0027054Y0029945D01*
X0026994Y0029796D01*
X0026930Y0029648D01*
X0026863Y0029502D01*
X0026792Y0029358D01*
X0026717Y0029216D01*
X0026639Y0029075D01*
X0026558Y0028937D01*
X0026473Y0028800D01*
X0026384Y0028666D01*
X0026293Y0028534D01*
X0026198Y0028404D01*
X0026100Y0028277D01*
X0025999Y0028152D01*
X0025895Y0028029D01*
X0025788Y0027910D01*
X0025678Y0027793D01*
X0025565Y0027678D01*
X0025449Y0027567D01*
X0025331Y0027458D01*
X0025210Y0027353D01*
X0025086Y0027250D01*
X0024960Y0027150D01*
X0024831Y0027054D01*
X0024700Y0026961D01*
X0024567Y0026871D01*
X0024432Y0026784D01*
X0024294Y0026701D01*
X0024155Y0026622D01*
X0024013Y0026545D01*
X0023870Y0026472D01*
X0023725Y0026403D01*
X0023578Y0026338D01*
X0023430Y0026276D01*
X0023280Y0026217D01*
X0023129Y0026163D01*
X0022977Y0026112D01*
X0022823Y0026065D01*
X0022668Y0026022D01*
X0022513Y0025983D01*
X0022356Y0025947D01*
X0022198Y0025915D01*
X0022040Y0025888D01*
X0021881Y0025864D01*
X0021722Y0025844D01*
X0021562Y0025828D01*
X0021401Y0025816D01*
X0021241Y0025808D01*
X0021080Y0025804D01*
X0020920Y0025804D01*
X0020759Y0025808D01*
X0020599Y0025816D01*
X0020438Y0025828D01*
X0020278Y0025844D01*
X0020119Y0025864D01*
X0019960Y0025888D01*
X0019802Y0025915D01*
X0019644Y0025947D01*
X0019487Y0025983D01*
X0019332Y0026022D01*
X0019177Y0026065D01*
X0019023Y0026112D01*
X0018871Y0026163D01*
X0018720Y0026217D01*
X0018570Y0026276D01*
X0018422Y0026338D01*
X0018275Y0026403D01*
X0018130Y0026472D01*
X0017987Y0026545D01*
X0017845Y0026622D01*
X0017706Y0026701D01*
X0017568Y0026784D01*
X0017433Y0026871D01*
X0017300Y0026961D01*
X0017169Y0027054D01*
X0017040Y0027150D01*
X0016914Y0027250D01*
X0016790Y0027353D01*
X0016669Y0027458D01*
X0016551Y0027567D01*
X0016435Y0027678D01*
X0016322Y0027793D01*
X0016212Y0027910D01*
X0016105Y0028029D01*
X0016001Y0028152D01*
X0015900Y0028277D01*
X0015802Y0028404D01*
X0015707Y0028534D01*
X0015616Y0028666D01*
X0015527Y0028800D01*
X0015442Y0028937D01*
X0015361Y0029075D01*
X0015283Y0029216D01*
X0015208Y0029358D01*
X0015137Y0029502D01*
X0015070Y0029648D01*
X0015006Y0029796D01*
X0014946Y0029945D01*
X0014890Y0030095D01*
X0014837Y0030247D01*
X0014788Y0030400D01*
X0014743Y0030554D01*
X0014702Y0030709D01*
X0014664Y0030866D01*
X0014631Y0031023D01*
X0014601Y0031181D01*
X0014575Y0031339D01*
X0014554Y0031499D01*
X0014536Y0031658D01*
X0014522Y0031818D01*
X0014512Y0031979D01*
X0014506Y0032139D01*
X0014504Y0032300D01*
X0001000Y0032300D02*
X0001006Y0031817D01*
X0001023Y0031334D01*
X0001053Y0030851D01*
X0001093Y0030370D01*
X0001146Y0029889D01*
X0001210Y0029410D01*
X0001285Y0028933D01*
X0001373Y0028457D01*
X0001471Y0027984D01*
X0001581Y0027514D01*
X0001702Y0027046D01*
X0001835Y0026581D01*
X0001979Y0026120D01*
X0002134Y0025662D01*
X0002300Y0025208D01*
X0002477Y0024758D01*
X0002664Y0024313D01*
X0002863Y0023872D01*
X0003071Y0023436D01*
X0003291Y0023006D01*
X0003521Y0022580D01*
X0003761Y0022161D01*
X0004011Y0021747D01*
X0004271Y0021340D01*
X0004540Y0020939D01*
X0004820Y0020544D01*
X0005108Y0020157D01*
X0005407Y0019776D01*
X0005714Y0019403D01*
X0006030Y0019038D01*
X0006355Y0018680D01*
X0006688Y0018330D01*
X0007030Y0017988D01*
X0007380Y0017655D01*
X0007738Y0017330D01*
X0008103Y0017014D01*
X0008476Y0016707D01*
X0008857Y0016408D01*
X0009244Y0016120D01*
X0009639Y0015840D01*
X0010040Y0015571D01*
X0010447Y0015311D01*
X0010861Y0015061D01*
X0011280Y0014821D01*
X0011706Y0014591D01*
X0012136Y0014371D01*
X0012572Y0014163D01*
X0013013Y0013964D01*
X0013458Y0013777D01*
X0013908Y0013600D01*
X0014362Y0013434D01*
X0014820Y0013279D01*
X0015281Y0013135D01*
X0015746Y0013002D01*
X0016214Y0012881D01*
X0016684Y0012771D01*
X0017157Y0012673D01*
X0017633Y0012585D01*
X0018110Y0012510D01*
X0018589Y0012446D01*
X0019070Y0012393D01*
X0019551Y0012353D01*
X0020034Y0012323D01*
X0020517Y0012306D01*
X0021000Y0012300D01*
X0151504Y0032300D02*
X0151506Y0032461D01*
X0151512Y0032621D01*
X0151522Y0032782D01*
X0151536Y0032942D01*
X0151554Y0033101D01*
X0151575Y0033261D01*
X0151601Y0033419D01*
X0151631Y0033577D01*
X0151664Y0033734D01*
X0151702Y0033891D01*
X0151743Y0034046D01*
X0151788Y0034200D01*
X0151837Y0034353D01*
X0151890Y0034505D01*
X0151946Y0034655D01*
X0152006Y0034804D01*
X0152070Y0034952D01*
X0152137Y0035098D01*
X0152208Y0035242D01*
X0152283Y0035384D01*
X0152361Y0035525D01*
X0152442Y0035663D01*
X0152527Y0035800D01*
X0152616Y0035934D01*
X0152707Y0036066D01*
X0152802Y0036196D01*
X0152900Y0036323D01*
X0153001Y0036448D01*
X0153105Y0036571D01*
X0153212Y0036690D01*
X0153322Y0036807D01*
X0153435Y0036922D01*
X0153551Y0037033D01*
X0153669Y0037142D01*
X0153790Y0037247D01*
X0153914Y0037350D01*
X0154040Y0037450D01*
X0154169Y0037546D01*
X0154300Y0037639D01*
X0154433Y0037729D01*
X0154568Y0037816D01*
X0154706Y0037899D01*
X0154845Y0037978D01*
X0154987Y0038055D01*
X0155130Y0038128D01*
X0155275Y0038197D01*
X0155422Y0038262D01*
X0155570Y0038324D01*
X0155720Y0038383D01*
X0155871Y0038437D01*
X0156023Y0038488D01*
X0156177Y0038535D01*
X0156332Y0038578D01*
X0156487Y0038617D01*
X0156644Y0038653D01*
X0156802Y0038685D01*
X0156960Y0038712D01*
X0157119Y0038736D01*
X0157278Y0038756D01*
X0157438Y0038772D01*
X0157599Y0038784D01*
X0157759Y0038792D01*
X0157920Y0038796D01*
X0158080Y0038796D01*
X0158241Y0038792D01*
X0158401Y0038784D01*
X0158562Y0038772D01*
X0158722Y0038756D01*
X0158881Y0038736D01*
X0159040Y0038712D01*
X0159198Y0038685D01*
X0159356Y0038653D01*
X0159513Y0038617D01*
X0159668Y0038578D01*
X0159823Y0038535D01*
X0159977Y0038488D01*
X0160129Y0038437D01*
X0160280Y0038383D01*
X0160430Y0038324D01*
X0160578Y0038262D01*
X0160725Y0038197D01*
X0160870Y0038128D01*
X0161013Y0038055D01*
X0161155Y0037978D01*
X0161294Y0037899D01*
X0161432Y0037816D01*
X0161567Y0037729D01*
X0161700Y0037639D01*
X0161831Y0037546D01*
X0161960Y0037450D01*
X0162086Y0037350D01*
X0162210Y0037247D01*
X0162331Y0037142D01*
X0162449Y0037033D01*
X0162565Y0036922D01*
X0162678Y0036807D01*
X0162788Y0036690D01*
X0162895Y0036571D01*
X0162999Y0036448D01*
X0163100Y0036323D01*
X0163198Y0036196D01*
X0163293Y0036066D01*
X0163384Y0035934D01*
X0163473Y0035800D01*
X0163558Y0035663D01*
X0163639Y0035525D01*
X0163717Y0035384D01*
X0163792Y0035242D01*
X0163863Y0035098D01*
X0163930Y0034952D01*
X0163994Y0034804D01*
X0164054Y0034655D01*
X0164110Y0034505D01*
X0164163Y0034353D01*
X0164212Y0034200D01*
X0164257Y0034046D01*
X0164298Y0033891D01*
X0164336Y0033734D01*
X0164369Y0033577D01*
X0164399Y0033419D01*
X0164425Y0033261D01*
X0164446Y0033101D01*
X0164464Y0032942D01*
X0164478Y0032782D01*
X0164488Y0032621D01*
X0164494Y0032461D01*
X0164496Y0032300D01*
X0164494Y0032139D01*
X0164488Y0031979D01*
X0164478Y0031818D01*
X0164464Y0031658D01*
X0164446Y0031499D01*
X0164425Y0031339D01*
X0164399Y0031181D01*
X0164369Y0031023D01*
X0164336Y0030866D01*
X0164298Y0030709D01*
X0164257Y0030554D01*
X0164212Y0030400D01*
X0164163Y0030247D01*
X0164110Y0030095D01*
X0164054Y0029945D01*
X0163994Y0029796D01*
X0163930Y0029648D01*
X0163863Y0029502D01*
X0163792Y0029358D01*
X0163717Y0029216D01*
X0163639Y0029075D01*
X0163558Y0028937D01*
X0163473Y0028800D01*
X0163384Y0028666D01*
X0163293Y0028534D01*
X0163198Y0028404D01*
X0163100Y0028277D01*
X0162999Y0028152D01*
X0162895Y0028029D01*
X0162788Y0027910D01*
X0162678Y0027793D01*
X0162565Y0027678D01*
X0162449Y0027567D01*
X0162331Y0027458D01*
X0162210Y0027353D01*
X0162086Y0027250D01*
X0161960Y0027150D01*
X0161831Y0027054D01*
X0161700Y0026961D01*
X0161567Y0026871D01*
X0161432Y0026784D01*
X0161294Y0026701D01*
X0161155Y0026622D01*
X0161013Y0026545D01*
X0160870Y0026472D01*
X0160725Y0026403D01*
X0160578Y0026338D01*
X0160430Y0026276D01*
X0160280Y0026217D01*
X0160129Y0026163D01*
X0159977Y0026112D01*
X0159823Y0026065D01*
X0159668Y0026022D01*
X0159513Y0025983D01*
X0159356Y0025947D01*
X0159198Y0025915D01*
X0159040Y0025888D01*
X0158881Y0025864D01*
X0158722Y0025844D01*
X0158562Y0025828D01*
X0158401Y0025816D01*
X0158241Y0025808D01*
X0158080Y0025804D01*
X0157920Y0025804D01*
X0157759Y0025808D01*
X0157599Y0025816D01*
X0157438Y0025828D01*
X0157278Y0025844D01*
X0157119Y0025864D01*
X0156960Y0025888D01*
X0156802Y0025915D01*
X0156644Y0025947D01*
X0156487Y0025983D01*
X0156332Y0026022D01*
X0156177Y0026065D01*
X0156023Y0026112D01*
X0155871Y0026163D01*
X0155720Y0026217D01*
X0155570Y0026276D01*
X0155422Y0026338D01*
X0155275Y0026403D01*
X0155130Y0026472D01*
X0154987Y0026545D01*
X0154845Y0026622D01*
X0154706Y0026701D01*
X0154568Y0026784D01*
X0154433Y0026871D01*
X0154300Y0026961D01*
X0154169Y0027054D01*
X0154040Y0027150D01*
X0153914Y0027250D01*
X0153790Y0027353D01*
X0153669Y0027458D01*
X0153551Y0027567D01*
X0153435Y0027678D01*
X0153322Y0027793D01*
X0153212Y0027910D01*
X0153105Y0028029D01*
X0153001Y0028152D01*
X0152900Y0028277D01*
X0152802Y0028404D01*
X0152707Y0028534D01*
X0152616Y0028666D01*
X0152527Y0028800D01*
X0152442Y0028937D01*
X0152361Y0029075D01*
X0152283Y0029216D01*
X0152208Y0029358D01*
X0152137Y0029502D01*
X0152070Y0029648D01*
X0152006Y0029796D01*
X0151946Y0029945D01*
X0151890Y0030095D01*
X0151837Y0030247D01*
X0151788Y0030400D01*
X0151743Y0030554D01*
X0151702Y0030709D01*
X0151664Y0030866D01*
X0151631Y0031023D01*
X0151601Y0031181D01*
X0151575Y0031339D01*
X0151554Y0031499D01*
X0151536Y0031658D01*
X0151522Y0031818D01*
X0151512Y0031979D01*
X0151506Y0032139D01*
X0151504Y0032300D01*
X0151504Y0248300D02*
X0151506Y0248461D01*
X0151512Y0248621D01*
X0151522Y0248782D01*
X0151536Y0248942D01*
X0151554Y0249101D01*
X0151575Y0249261D01*
X0151601Y0249419D01*
X0151631Y0249577D01*
X0151664Y0249734D01*
X0151702Y0249891D01*
X0151743Y0250046D01*
X0151788Y0250200D01*
X0151837Y0250353D01*
X0151890Y0250505D01*
X0151946Y0250655D01*
X0152006Y0250804D01*
X0152070Y0250952D01*
X0152137Y0251098D01*
X0152208Y0251242D01*
X0152283Y0251384D01*
X0152361Y0251525D01*
X0152442Y0251663D01*
X0152527Y0251800D01*
X0152616Y0251934D01*
X0152707Y0252066D01*
X0152802Y0252196D01*
X0152900Y0252323D01*
X0153001Y0252448D01*
X0153105Y0252571D01*
X0153212Y0252690D01*
X0153322Y0252807D01*
X0153435Y0252922D01*
X0153551Y0253033D01*
X0153669Y0253142D01*
X0153790Y0253247D01*
X0153914Y0253350D01*
X0154040Y0253450D01*
X0154169Y0253546D01*
X0154300Y0253639D01*
X0154433Y0253729D01*
X0154568Y0253816D01*
X0154706Y0253899D01*
X0154845Y0253978D01*
X0154987Y0254055D01*
X0155130Y0254128D01*
X0155275Y0254197D01*
X0155422Y0254262D01*
X0155570Y0254324D01*
X0155720Y0254383D01*
X0155871Y0254437D01*
X0156023Y0254488D01*
X0156177Y0254535D01*
X0156332Y0254578D01*
X0156487Y0254617D01*
X0156644Y0254653D01*
X0156802Y0254685D01*
X0156960Y0254712D01*
X0157119Y0254736D01*
X0157278Y0254756D01*
X0157438Y0254772D01*
X0157599Y0254784D01*
X0157759Y0254792D01*
X0157920Y0254796D01*
X0158080Y0254796D01*
X0158241Y0254792D01*
X0158401Y0254784D01*
X0158562Y0254772D01*
X0158722Y0254756D01*
X0158881Y0254736D01*
X0159040Y0254712D01*
X0159198Y0254685D01*
X0159356Y0254653D01*
X0159513Y0254617D01*
X0159668Y0254578D01*
X0159823Y0254535D01*
X0159977Y0254488D01*
X0160129Y0254437D01*
X0160280Y0254383D01*
X0160430Y0254324D01*
X0160578Y0254262D01*
X0160725Y0254197D01*
X0160870Y0254128D01*
X0161013Y0254055D01*
X0161155Y0253978D01*
X0161294Y0253899D01*
X0161432Y0253816D01*
X0161567Y0253729D01*
X0161700Y0253639D01*
X0161831Y0253546D01*
X0161960Y0253450D01*
X0162086Y0253350D01*
X0162210Y0253247D01*
X0162331Y0253142D01*
X0162449Y0253033D01*
X0162565Y0252922D01*
X0162678Y0252807D01*
X0162788Y0252690D01*
X0162895Y0252571D01*
X0162999Y0252448D01*
X0163100Y0252323D01*
X0163198Y0252196D01*
X0163293Y0252066D01*
X0163384Y0251934D01*
X0163473Y0251800D01*
X0163558Y0251663D01*
X0163639Y0251525D01*
X0163717Y0251384D01*
X0163792Y0251242D01*
X0163863Y0251098D01*
X0163930Y0250952D01*
X0163994Y0250804D01*
X0164054Y0250655D01*
X0164110Y0250505D01*
X0164163Y0250353D01*
X0164212Y0250200D01*
X0164257Y0250046D01*
X0164298Y0249891D01*
X0164336Y0249734D01*
X0164369Y0249577D01*
X0164399Y0249419D01*
X0164425Y0249261D01*
X0164446Y0249101D01*
X0164464Y0248942D01*
X0164478Y0248782D01*
X0164488Y0248621D01*
X0164494Y0248461D01*
X0164496Y0248300D01*
X0164494Y0248139D01*
X0164488Y0247979D01*
X0164478Y0247818D01*
X0164464Y0247658D01*
X0164446Y0247499D01*
X0164425Y0247339D01*
X0164399Y0247181D01*
X0164369Y0247023D01*
X0164336Y0246866D01*
X0164298Y0246709D01*
X0164257Y0246554D01*
X0164212Y0246400D01*
X0164163Y0246247D01*
X0164110Y0246095D01*
X0164054Y0245945D01*
X0163994Y0245796D01*
X0163930Y0245648D01*
X0163863Y0245502D01*
X0163792Y0245358D01*
X0163717Y0245216D01*
X0163639Y0245075D01*
X0163558Y0244937D01*
X0163473Y0244800D01*
X0163384Y0244666D01*
X0163293Y0244534D01*
X0163198Y0244404D01*
X0163100Y0244277D01*
X0162999Y0244152D01*
X0162895Y0244029D01*
X0162788Y0243910D01*
X0162678Y0243793D01*
X0162565Y0243678D01*
X0162449Y0243567D01*
X0162331Y0243458D01*
X0162210Y0243353D01*
X0162086Y0243250D01*
X0161960Y0243150D01*
X0161831Y0243054D01*
X0161700Y0242961D01*
X0161567Y0242871D01*
X0161432Y0242784D01*
X0161294Y0242701D01*
X0161155Y0242622D01*
X0161013Y0242545D01*
X0160870Y0242472D01*
X0160725Y0242403D01*
X0160578Y0242338D01*
X0160430Y0242276D01*
X0160280Y0242217D01*
X0160129Y0242163D01*
X0159977Y0242112D01*
X0159823Y0242065D01*
X0159668Y0242022D01*
X0159513Y0241983D01*
X0159356Y0241947D01*
X0159198Y0241915D01*
X0159040Y0241888D01*
X0158881Y0241864D01*
X0158722Y0241844D01*
X0158562Y0241828D01*
X0158401Y0241816D01*
X0158241Y0241808D01*
X0158080Y0241804D01*
X0157920Y0241804D01*
X0157759Y0241808D01*
X0157599Y0241816D01*
X0157438Y0241828D01*
X0157278Y0241844D01*
X0157119Y0241864D01*
X0156960Y0241888D01*
X0156802Y0241915D01*
X0156644Y0241947D01*
X0156487Y0241983D01*
X0156332Y0242022D01*
X0156177Y0242065D01*
X0156023Y0242112D01*
X0155871Y0242163D01*
X0155720Y0242217D01*
X0155570Y0242276D01*
X0155422Y0242338D01*
X0155275Y0242403D01*
X0155130Y0242472D01*
X0154987Y0242545D01*
X0154845Y0242622D01*
X0154706Y0242701D01*
X0154568Y0242784D01*
X0154433Y0242871D01*
X0154300Y0242961D01*
X0154169Y0243054D01*
X0154040Y0243150D01*
X0153914Y0243250D01*
X0153790Y0243353D01*
X0153669Y0243458D01*
X0153551Y0243567D01*
X0153435Y0243678D01*
X0153322Y0243793D01*
X0153212Y0243910D01*
X0153105Y0244029D01*
X0153001Y0244152D01*
X0152900Y0244277D01*
X0152802Y0244404D01*
X0152707Y0244534D01*
X0152616Y0244666D01*
X0152527Y0244800D01*
X0152442Y0244937D01*
X0152361Y0245075D01*
X0152283Y0245216D01*
X0152208Y0245358D01*
X0152137Y0245502D01*
X0152070Y0245648D01*
X0152006Y0245796D01*
X0151946Y0245945D01*
X0151890Y0246095D01*
X0151837Y0246247D01*
X0151788Y0246400D01*
X0151743Y0246554D01*
X0151702Y0246709D01*
X0151664Y0246866D01*
X0151631Y0247023D01*
X0151601Y0247181D01*
X0151575Y0247339D01*
X0151554Y0247499D01*
X0151536Y0247658D01*
X0151522Y0247818D01*
X0151512Y0247979D01*
X0151506Y0248139D01*
X0151504Y0248300D01*
X0014504Y0248300D02*
X0014506Y0248461D01*
X0014512Y0248621D01*
X0014522Y0248782D01*
X0014536Y0248942D01*
X0014554Y0249101D01*
X0014575Y0249261D01*
X0014601Y0249419D01*
X0014631Y0249577D01*
X0014664Y0249734D01*
X0014702Y0249891D01*
X0014743Y0250046D01*
X0014788Y0250200D01*
X0014837Y0250353D01*
X0014890Y0250505D01*
X0014946Y0250655D01*
X0015006Y0250804D01*
X0015070Y0250952D01*
X0015137Y0251098D01*
X0015208Y0251242D01*
X0015283Y0251384D01*
X0015361Y0251525D01*
X0015442Y0251663D01*
X0015527Y0251800D01*
X0015616Y0251934D01*
X0015707Y0252066D01*
X0015802Y0252196D01*
X0015900Y0252323D01*
X0016001Y0252448D01*
X0016105Y0252571D01*
X0016212Y0252690D01*
X0016322Y0252807D01*
X0016435Y0252922D01*
X0016551Y0253033D01*
X0016669Y0253142D01*
X0016790Y0253247D01*
X0016914Y0253350D01*
X0017040Y0253450D01*
X0017169Y0253546D01*
X0017300Y0253639D01*
X0017433Y0253729D01*
X0017568Y0253816D01*
X0017706Y0253899D01*
X0017845Y0253978D01*
X0017987Y0254055D01*
X0018130Y0254128D01*
X0018275Y0254197D01*
X0018422Y0254262D01*
X0018570Y0254324D01*
X0018720Y0254383D01*
X0018871Y0254437D01*
X0019023Y0254488D01*
X0019177Y0254535D01*
X0019332Y0254578D01*
X0019487Y0254617D01*
X0019644Y0254653D01*
X0019802Y0254685D01*
X0019960Y0254712D01*
X0020119Y0254736D01*
X0020278Y0254756D01*
X0020438Y0254772D01*
X0020599Y0254784D01*
X0020759Y0254792D01*
X0020920Y0254796D01*
X0021080Y0254796D01*
X0021241Y0254792D01*
X0021401Y0254784D01*
X0021562Y0254772D01*
X0021722Y0254756D01*
X0021881Y0254736D01*
X0022040Y0254712D01*
X0022198Y0254685D01*
X0022356Y0254653D01*
X0022513Y0254617D01*
X0022668Y0254578D01*
X0022823Y0254535D01*
X0022977Y0254488D01*
X0023129Y0254437D01*
X0023280Y0254383D01*
X0023430Y0254324D01*
X0023578Y0254262D01*
X0023725Y0254197D01*
X0023870Y0254128D01*
X0024013Y0254055D01*
X0024155Y0253978D01*
X0024294Y0253899D01*
X0024432Y0253816D01*
X0024567Y0253729D01*
X0024700Y0253639D01*
X0024831Y0253546D01*
X0024960Y0253450D01*
X0025086Y0253350D01*
X0025210Y0253247D01*
X0025331Y0253142D01*
X0025449Y0253033D01*
X0025565Y0252922D01*
X0025678Y0252807D01*
X0025788Y0252690D01*
X0025895Y0252571D01*
X0025999Y0252448D01*
X0026100Y0252323D01*
X0026198Y0252196D01*
X0026293Y0252066D01*
X0026384Y0251934D01*
X0026473Y0251800D01*
X0026558Y0251663D01*
X0026639Y0251525D01*
X0026717Y0251384D01*
X0026792Y0251242D01*
X0026863Y0251098D01*
X0026930Y0250952D01*
X0026994Y0250804D01*
X0027054Y0250655D01*
X0027110Y0250505D01*
X0027163Y0250353D01*
X0027212Y0250200D01*
X0027257Y0250046D01*
X0027298Y0249891D01*
X0027336Y0249734D01*
X0027369Y0249577D01*
X0027399Y0249419D01*
X0027425Y0249261D01*
X0027446Y0249101D01*
X0027464Y0248942D01*
X0027478Y0248782D01*
X0027488Y0248621D01*
X0027494Y0248461D01*
X0027496Y0248300D01*
X0027494Y0248139D01*
X0027488Y0247979D01*
X0027478Y0247818D01*
X0027464Y0247658D01*
X0027446Y0247499D01*
X0027425Y0247339D01*
X0027399Y0247181D01*
X0027369Y0247023D01*
X0027336Y0246866D01*
X0027298Y0246709D01*
X0027257Y0246554D01*
X0027212Y0246400D01*
X0027163Y0246247D01*
X0027110Y0246095D01*
X0027054Y0245945D01*
X0026994Y0245796D01*
X0026930Y0245648D01*
X0026863Y0245502D01*
X0026792Y0245358D01*
X0026717Y0245216D01*
X0026639Y0245075D01*
X0026558Y0244937D01*
X0026473Y0244800D01*
X0026384Y0244666D01*
X0026293Y0244534D01*
X0026198Y0244404D01*
X0026100Y0244277D01*
X0025999Y0244152D01*
X0025895Y0244029D01*
X0025788Y0243910D01*
X0025678Y0243793D01*
X0025565Y0243678D01*
X0025449Y0243567D01*
X0025331Y0243458D01*
X0025210Y0243353D01*
X0025086Y0243250D01*
X0024960Y0243150D01*
X0024831Y0243054D01*
X0024700Y0242961D01*
X0024567Y0242871D01*
X0024432Y0242784D01*
X0024294Y0242701D01*
X0024155Y0242622D01*
X0024013Y0242545D01*
X0023870Y0242472D01*
X0023725Y0242403D01*
X0023578Y0242338D01*
X0023430Y0242276D01*
X0023280Y0242217D01*
X0023129Y0242163D01*
X0022977Y0242112D01*
X0022823Y0242065D01*
X0022668Y0242022D01*
X0022513Y0241983D01*
X0022356Y0241947D01*
X0022198Y0241915D01*
X0022040Y0241888D01*
X0021881Y0241864D01*
X0021722Y0241844D01*
X0021562Y0241828D01*
X0021401Y0241816D01*
X0021241Y0241808D01*
X0021080Y0241804D01*
X0020920Y0241804D01*
X0020759Y0241808D01*
X0020599Y0241816D01*
X0020438Y0241828D01*
X0020278Y0241844D01*
X0020119Y0241864D01*
X0019960Y0241888D01*
X0019802Y0241915D01*
X0019644Y0241947D01*
X0019487Y0241983D01*
X0019332Y0242022D01*
X0019177Y0242065D01*
X0019023Y0242112D01*
X0018871Y0242163D01*
X0018720Y0242217D01*
X0018570Y0242276D01*
X0018422Y0242338D01*
X0018275Y0242403D01*
X0018130Y0242472D01*
X0017987Y0242545D01*
X0017845Y0242622D01*
X0017706Y0242701D01*
X0017568Y0242784D01*
X0017433Y0242871D01*
X0017300Y0242961D01*
X0017169Y0243054D01*
X0017040Y0243150D01*
X0016914Y0243250D01*
X0016790Y0243353D01*
X0016669Y0243458D01*
X0016551Y0243567D01*
X0016435Y0243678D01*
X0016322Y0243793D01*
X0016212Y0243910D01*
X0016105Y0244029D01*
X0016001Y0244152D01*
X0015900Y0244277D01*
X0015802Y0244404D01*
X0015707Y0244534D01*
X0015616Y0244666D01*
X0015527Y0244800D01*
X0015442Y0244937D01*
X0015361Y0245075D01*
X0015283Y0245216D01*
X0015208Y0245358D01*
X0015137Y0245502D01*
X0015070Y0245648D01*
X0015006Y0245796D01*
X0014946Y0245945D01*
X0014890Y0246095D01*
X0014837Y0246247D01*
X0014788Y0246400D01*
X0014743Y0246554D01*
X0014702Y0246709D01*
X0014664Y0246866D01*
X0014631Y0247023D01*
X0014601Y0247181D01*
X0014575Y0247339D01*
X0014554Y0247499D01*
X0014536Y0247658D01*
X0014522Y0247818D01*
X0014512Y0247979D01*
X0014506Y0248139D01*
X0014504Y0248300D01*
D11*
X0053000Y0173300D02*
X0059000Y0167300D01*
X0059000Y0157300D01*
X0053000Y0151300D01*
X0047000Y0140300D02*
X0011000Y0140300D01*
M02*
