G75*
%MOIN*%
%OFA0B0*%
%FSLAX25Y25*%
%IPPOS*%
%LPD*%
%AMOC8*
5,1,8,0,0,1.08239X$1,22.5*
%
%ADD10OC8,0.06400*%
%ADD11C,0.06400*%
%ADD12R,0.23000X0.23000*%
%ADD13C,0.07200*%
%ADD14C,0.00600*%
%ADD15C,0.03765*%
%ADD16C,0.03200*%
%ADD17C,0.02000*%
%ADD18C,0.02400*%
D10*
X0071000Y0055300D03*
X0087000Y0042300D03*
X0087000Y0072300D03*
X0116000Y0105300D03*
X0146000Y0105300D03*
X0085000Y0119300D03*
X0071000Y0119300D03*
X0071000Y0149300D03*
X0080000Y0162300D03*
X0085000Y0149300D03*
X0050000Y0162300D03*
D11*
X0071000Y0063300D03*
D12*
X0029000Y0074300D03*
X0029000Y0118300D03*
X0029000Y0162300D03*
X0029000Y0206300D03*
D13*
X0066000Y0246700D02*
X0066000Y0253900D01*
X0076000Y0253900D02*
X0076000Y0246700D01*
X0086000Y0246700D02*
X0086000Y0253900D01*
X0096000Y0253900D02*
X0096000Y0246700D01*
X0106000Y0246700D02*
X0106000Y0253900D01*
X0116000Y0253900D02*
X0116000Y0246700D01*
X0157400Y0211300D02*
X0164600Y0211300D01*
X0164600Y0201300D02*
X0157400Y0201300D01*
X0157400Y0191300D02*
X0164600Y0191300D01*
X0164600Y0181300D02*
X0157400Y0181300D01*
X0157400Y0171300D02*
X0164600Y0171300D01*
X0164600Y0161300D02*
X0157400Y0161300D01*
X0157400Y0139300D02*
X0164600Y0139300D01*
X0164600Y0129300D02*
X0157400Y0129300D01*
X0157400Y0119300D02*
X0164600Y0119300D01*
X0164600Y0109300D02*
X0157400Y0109300D01*
X0152100Y0094700D02*
X0152100Y0087500D01*
X0152100Y0069100D02*
X0152100Y0061900D01*
X0169900Y0061900D02*
X0169900Y0069100D01*
X0169900Y0087500D02*
X0169900Y0094700D01*
X0127000Y0032900D02*
X0127000Y0025700D01*
X0117000Y0025700D02*
X0117000Y0032900D01*
D14*
X0017000Y0060300D02*
X0015000Y0062300D01*
X0015000Y0086300D01*
X0017000Y0088300D01*
X0043000Y0088300D01*
X0049000Y0094300D01*
X0059000Y0094300D01*
X0059000Y0078300D01*
X0041000Y0060300D01*
X0017000Y0060300D01*
X0016521Y0060779D02*
X0041479Y0060779D01*
X0042078Y0061378D02*
X0015922Y0061378D01*
X0015324Y0061976D02*
X0042676Y0061976D01*
X0043275Y0062575D02*
X0015000Y0062575D01*
X0015000Y0063173D02*
X0043873Y0063173D01*
X0044472Y0063772D02*
X0015000Y0063772D01*
X0015000Y0064370D02*
X0045070Y0064370D01*
X0045669Y0064969D02*
X0015000Y0064969D01*
X0015000Y0065568D02*
X0046268Y0065568D01*
X0046866Y0066166D02*
X0015000Y0066166D01*
X0015000Y0066765D02*
X0047465Y0066765D01*
X0048063Y0067363D02*
X0015000Y0067363D01*
X0015000Y0067962D02*
X0048662Y0067962D01*
X0049260Y0068560D02*
X0015000Y0068560D01*
X0015000Y0069159D02*
X0049859Y0069159D01*
X0050457Y0069757D02*
X0015000Y0069757D01*
X0015000Y0070356D02*
X0051056Y0070356D01*
X0051654Y0070954D02*
X0015000Y0070954D01*
X0015000Y0071553D02*
X0052253Y0071553D01*
X0052851Y0072151D02*
X0015000Y0072151D01*
X0015000Y0072750D02*
X0053450Y0072750D01*
X0054048Y0073348D02*
X0015000Y0073348D01*
X0015000Y0073947D02*
X0054647Y0073947D01*
X0055245Y0074545D02*
X0015000Y0074545D01*
X0015000Y0075144D02*
X0055844Y0075144D01*
X0056442Y0075742D02*
X0015000Y0075742D01*
X0015000Y0076341D02*
X0057041Y0076341D01*
X0057639Y0076939D02*
X0015000Y0076939D01*
X0015000Y0077538D02*
X0058238Y0077538D01*
X0058836Y0078136D02*
X0015000Y0078136D01*
X0015000Y0078735D02*
X0059000Y0078735D01*
X0059000Y0079333D02*
X0015000Y0079333D01*
X0015000Y0079932D02*
X0059000Y0079932D01*
X0059000Y0080530D02*
X0015000Y0080530D01*
X0015000Y0081129D02*
X0059000Y0081129D01*
X0059000Y0081727D02*
X0015000Y0081727D01*
X0015000Y0082326D02*
X0059000Y0082326D01*
X0059000Y0082924D02*
X0015000Y0082924D01*
X0015000Y0083523D02*
X0059000Y0083523D01*
X0059000Y0084121D02*
X0015000Y0084121D01*
X0015000Y0084720D02*
X0059000Y0084720D01*
X0059000Y0085318D02*
X0015000Y0085318D01*
X0015000Y0085917D02*
X0059000Y0085917D01*
X0059000Y0086515D02*
X0015215Y0086515D01*
X0015814Y0087114D02*
X0059000Y0087114D01*
X0059000Y0087712D02*
X0016412Y0087712D01*
X0017000Y0104300D02*
X0015000Y0106300D01*
X0015000Y0130300D01*
X0017000Y0132300D01*
X0041000Y0132300D01*
X0059000Y0114300D01*
X0059000Y0098300D01*
X0049000Y0098300D01*
X0043000Y0104300D01*
X0017000Y0104300D01*
X0016829Y0104471D02*
X0059000Y0104471D01*
X0059000Y0105069D02*
X0016231Y0105069D01*
X0015632Y0105668D02*
X0059000Y0105668D01*
X0059000Y0106266D02*
X0015034Y0106266D01*
X0015000Y0106865D02*
X0059000Y0106865D01*
X0059000Y0107463D02*
X0015000Y0107463D01*
X0015000Y0108062D02*
X0059000Y0108062D01*
X0059000Y0108660D02*
X0015000Y0108660D01*
X0015000Y0109259D02*
X0059000Y0109259D01*
X0059000Y0109857D02*
X0015000Y0109857D01*
X0015000Y0110456D02*
X0059000Y0110456D01*
X0059000Y0111054D02*
X0015000Y0111054D01*
X0015000Y0111653D02*
X0059000Y0111653D01*
X0059000Y0112251D02*
X0015000Y0112251D01*
X0015000Y0112850D02*
X0059000Y0112850D01*
X0059000Y0113448D02*
X0015000Y0113448D01*
X0015000Y0114047D02*
X0059000Y0114047D01*
X0058655Y0114645D02*
X0015000Y0114645D01*
X0015000Y0115244D02*
X0058056Y0115244D01*
X0057458Y0115842D02*
X0015000Y0115842D01*
X0015000Y0116441D02*
X0056859Y0116441D01*
X0056261Y0117039D02*
X0015000Y0117039D01*
X0015000Y0117638D02*
X0055662Y0117638D01*
X0055063Y0118237D02*
X0015000Y0118237D01*
X0015000Y0118835D02*
X0054465Y0118835D01*
X0053866Y0119434D02*
X0015000Y0119434D01*
X0015000Y0120032D02*
X0053268Y0120032D01*
X0052669Y0120631D02*
X0015000Y0120631D01*
X0015000Y0121229D02*
X0052071Y0121229D01*
X0051472Y0121828D02*
X0015000Y0121828D01*
X0015000Y0122426D02*
X0050874Y0122426D01*
X0050275Y0123025D02*
X0015000Y0123025D01*
X0015000Y0123623D02*
X0049677Y0123623D01*
X0049078Y0124222D02*
X0015000Y0124222D01*
X0015000Y0124820D02*
X0048480Y0124820D01*
X0047881Y0125419D02*
X0015000Y0125419D01*
X0015000Y0126017D02*
X0047283Y0126017D01*
X0046684Y0126616D02*
X0015000Y0126616D01*
X0015000Y0127214D02*
X0046086Y0127214D01*
X0045487Y0127813D02*
X0015000Y0127813D01*
X0015000Y0128411D02*
X0044889Y0128411D01*
X0044290Y0129010D02*
X0015000Y0129010D01*
X0015000Y0129608D02*
X0043692Y0129608D01*
X0043093Y0130207D02*
X0015000Y0130207D01*
X0015505Y0130805D02*
X0042495Y0130805D01*
X0041896Y0131404D02*
X0016104Y0131404D01*
X0016702Y0132002D02*
X0041298Y0132002D01*
X0041000Y0148300D02*
X0017000Y0148300D01*
X0015000Y0150300D01*
X0015000Y0218300D01*
X0017000Y0220300D01*
X0041000Y0220300D01*
X0043000Y0218300D01*
X0043000Y0150300D01*
X0041000Y0148300D01*
X0041461Y0148761D02*
X0016539Y0148761D01*
X0015941Y0149359D02*
X0042059Y0149359D01*
X0042658Y0149958D02*
X0015342Y0149958D01*
X0015000Y0150556D02*
X0043000Y0150556D01*
X0043000Y0151155D02*
X0015000Y0151155D01*
X0015000Y0151753D02*
X0043000Y0151753D01*
X0043000Y0152352D02*
X0015000Y0152352D01*
X0015000Y0152950D02*
X0043000Y0152950D01*
X0043000Y0153549D02*
X0015000Y0153549D01*
X0015000Y0154147D02*
X0043000Y0154147D01*
X0043000Y0154746D02*
X0015000Y0154746D01*
X0015000Y0155344D02*
X0043000Y0155344D01*
X0043000Y0155943D02*
X0015000Y0155943D01*
X0015000Y0156541D02*
X0043000Y0156541D01*
X0043000Y0157140D02*
X0015000Y0157140D01*
X0015000Y0157738D02*
X0043000Y0157738D01*
X0043000Y0158337D02*
X0015000Y0158337D01*
X0015000Y0158935D02*
X0043000Y0158935D01*
X0043000Y0159534D02*
X0015000Y0159534D01*
X0015000Y0160132D02*
X0043000Y0160132D01*
X0043000Y0160731D02*
X0015000Y0160731D01*
X0015000Y0161329D02*
X0043000Y0161329D01*
X0043000Y0161928D02*
X0015000Y0161928D01*
X0015000Y0162526D02*
X0043000Y0162526D01*
X0043000Y0163125D02*
X0015000Y0163125D01*
X0015000Y0163723D02*
X0043000Y0163723D01*
X0043000Y0164322D02*
X0015000Y0164322D01*
X0015000Y0164920D02*
X0043000Y0164920D01*
X0043000Y0165519D02*
X0015000Y0165519D01*
X0015000Y0166117D02*
X0043000Y0166117D01*
X0043000Y0166716D02*
X0015000Y0166716D01*
X0015000Y0167314D02*
X0043000Y0167314D01*
X0043000Y0167913D02*
X0015000Y0167913D01*
X0015000Y0168511D02*
X0043000Y0168511D01*
X0043000Y0169110D02*
X0015000Y0169110D01*
X0015000Y0169708D02*
X0043000Y0169708D01*
X0043000Y0170307D02*
X0015000Y0170307D01*
X0015000Y0170905D02*
X0043000Y0170905D01*
X0043000Y0171504D02*
X0015000Y0171504D01*
X0015000Y0172103D02*
X0043000Y0172103D01*
X0043000Y0172701D02*
X0015000Y0172701D01*
X0015000Y0173300D02*
X0043000Y0173300D01*
X0043000Y0173898D02*
X0015000Y0173898D01*
X0015000Y0174497D02*
X0043000Y0174497D01*
X0043000Y0175095D02*
X0015000Y0175095D01*
X0015000Y0175694D02*
X0043000Y0175694D01*
X0043000Y0176292D02*
X0015000Y0176292D01*
X0015000Y0176891D02*
X0043000Y0176891D01*
X0043000Y0177489D02*
X0015000Y0177489D01*
X0015000Y0178088D02*
X0043000Y0178088D01*
X0043000Y0178686D02*
X0015000Y0178686D01*
X0015000Y0179285D02*
X0043000Y0179285D01*
X0043000Y0179883D02*
X0015000Y0179883D01*
X0015000Y0180482D02*
X0043000Y0180482D01*
X0043000Y0181080D02*
X0015000Y0181080D01*
X0015000Y0181679D02*
X0043000Y0181679D01*
X0043000Y0182277D02*
X0015000Y0182277D01*
X0015000Y0182876D02*
X0043000Y0182876D01*
X0043000Y0183474D02*
X0015000Y0183474D01*
X0015000Y0184073D02*
X0043000Y0184073D01*
X0043000Y0184671D02*
X0015000Y0184671D01*
X0015000Y0185270D02*
X0043000Y0185270D01*
X0043000Y0185868D02*
X0015000Y0185868D01*
X0015000Y0186467D02*
X0043000Y0186467D01*
X0043000Y0187065D02*
X0015000Y0187065D01*
X0015000Y0187664D02*
X0043000Y0187664D01*
X0043000Y0188262D02*
X0015000Y0188262D01*
X0015000Y0188861D02*
X0043000Y0188861D01*
X0043000Y0189459D02*
X0015000Y0189459D01*
X0015000Y0190058D02*
X0043000Y0190058D01*
X0043000Y0190656D02*
X0015000Y0190656D01*
X0015000Y0191255D02*
X0043000Y0191255D01*
X0043000Y0191853D02*
X0015000Y0191853D01*
X0015000Y0192452D02*
X0043000Y0192452D01*
X0043000Y0193050D02*
X0015000Y0193050D01*
X0015000Y0193649D02*
X0043000Y0193649D01*
X0043000Y0194247D02*
X0015000Y0194247D01*
X0015000Y0194846D02*
X0043000Y0194846D01*
X0043000Y0195444D02*
X0015000Y0195444D01*
X0015000Y0196043D02*
X0043000Y0196043D01*
X0043000Y0196641D02*
X0015000Y0196641D01*
X0015000Y0197240D02*
X0043000Y0197240D01*
X0043000Y0197839D02*
X0015000Y0197839D01*
X0015000Y0198437D02*
X0043000Y0198437D01*
X0043000Y0199036D02*
X0015000Y0199036D01*
X0015000Y0199634D02*
X0043000Y0199634D01*
X0043000Y0200233D02*
X0015000Y0200233D01*
X0015000Y0200831D02*
X0043000Y0200831D01*
X0043000Y0201430D02*
X0015000Y0201430D01*
X0015000Y0202028D02*
X0043000Y0202028D01*
X0043000Y0202627D02*
X0015000Y0202627D01*
X0015000Y0203225D02*
X0043000Y0203225D01*
X0043000Y0203824D02*
X0015000Y0203824D01*
X0015000Y0204422D02*
X0043000Y0204422D01*
X0043000Y0205021D02*
X0015000Y0205021D01*
X0015000Y0205619D02*
X0043000Y0205619D01*
X0043000Y0206218D02*
X0015000Y0206218D01*
X0015000Y0206816D02*
X0043000Y0206816D01*
X0043000Y0207415D02*
X0015000Y0207415D01*
X0015000Y0208013D02*
X0043000Y0208013D01*
X0043000Y0208612D02*
X0015000Y0208612D01*
X0015000Y0209210D02*
X0043000Y0209210D01*
X0043000Y0209809D02*
X0015000Y0209809D01*
X0015000Y0210407D02*
X0043000Y0210407D01*
X0043000Y0211006D02*
X0015000Y0211006D01*
X0015000Y0211604D02*
X0043000Y0211604D01*
X0043000Y0212203D02*
X0015000Y0212203D01*
X0015000Y0212801D02*
X0043000Y0212801D01*
X0043000Y0213400D02*
X0015000Y0213400D01*
X0015000Y0213998D02*
X0043000Y0213998D01*
X0043000Y0214597D02*
X0015000Y0214597D01*
X0015000Y0215195D02*
X0043000Y0215195D01*
X0043000Y0215794D02*
X0015000Y0215794D01*
X0015000Y0216392D02*
X0043000Y0216392D01*
X0043000Y0216991D02*
X0015000Y0216991D01*
X0015000Y0217589D02*
X0043000Y0217589D01*
X0043000Y0218188D02*
X0015000Y0218188D01*
X0015486Y0218786D02*
X0042514Y0218786D01*
X0041915Y0219385D02*
X0016085Y0219385D01*
X0016683Y0219983D02*
X0041317Y0219983D01*
X0060000Y0219983D02*
X0068500Y0219983D01*
X0068500Y0220195D02*
X0068500Y0204412D01*
X0068437Y0204349D01*
X0067617Y0202371D01*
X0067617Y0200229D01*
X0068437Y0198251D01*
X0069951Y0196737D01*
X0071929Y0195917D01*
X0074071Y0195917D01*
X0076049Y0196737D01*
X0077563Y0198251D01*
X0078383Y0200229D01*
X0078383Y0202371D01*
X0077563Y0204349D01*
X0077500Y0204412D01*
X0077500Y0217436D01*
X0089815Y0229751D01*
X0090500Y0231405D01*
X0090500Y0241159D01*
X0091000Y0241659D01*
X0091978Y0240681D01*
X0094588Y0239600D01*
X0097412Y0239600D01*
X0100022Y0240681D01*
X0101000Y0241659D01*
X0101500Y0241159D01*
X0101500Y0240405D01*
X0102185Y0238751D01*
X0103451Y0237485D01*
X0119253Y0221683D01*
X0117929Y0221683D01*
X0115951Y0220863D01*
X0114437Y0219349D01*
X0114154Y0218667D01*
X0107887Y0212400D01*
X0102753Y0212400D01*
X0102071Y0212683D01*
X0099929Y0212683D01*
X0097951Y0211863D01*
X0096437Y0210349D01*
X0095617Y0208371D01*
X0095617Y0207683D01*
X0094929Y0207683D01*
X0092951Y0206863D01*
X0091437Y0205349D01*
X0090617Y0203371D01*
X0090617Y0201229D01*
X0091437Y0199251D01*
X0092951Y0197737D01*
X0094929Y0196917D01*
X0095170Y0196917D01*
X0118900Y0173187D01*
X0118900Y0165683D01*
X0116929Y0165683D01*
X0115000Y0164884D01*
X0113071Y0165683D01*
X0111500Y0165683D01*
X0111500Y0170188D01*
X0111563Y0170251D01*
X0112383Y0172229D01*
X0112383Y0174371D01*
X0111563Y0176349D01*
X0110049Y0177863D01*
X0108071Y0178683D01*
X0105929Y0178683D01*
X0103951Y0177863D01*
X0102437Y0176349D01*
X0101617Y0174371D01*
X0101617Y0172229D01*
X0102437Y0170251D01*
X0102500Y0170188D01*
X0102500Y0121405D01*
X0103185Y0119751D01*
X0112080Y0110856D01*
X0109300Y0108075D01*
X0109300Y0102525D01*
X0113225Y0098600D01*
X0118775Y0098600D01*
X0122700Y0102525D01*
X0122700Y0107800D01*
X0139136Y0107800D01*
X0139300Y0107636D01*
X0139300Y0102525D01*
X0143225Y0098600D01*
X0146030Y0098600D01*
X0145000Y0096112D01*
X0145000Y0086088D01*
X0146081Y0083478D01*
X0147600Y0081959D01*
X0147600Y0074641D01*
X0146081Y0073122D01*
X0145000Y0070512D01*
X0145000Y0060488D01*
X0146081Y0057878D01*
X0148078Y0055881D01*
X0150688Y0054800D01*
X0153512Y0054800D01*
X0156122Y0055881D01*
X0158119Y0057878D01*
X0159200Y0060488D01*
X0159200Y0070512D01*
X0158119Y0073122D01*
X0156600Y0074641D01*
X0156600Y0081959D01*
X0158119Y0083478D01*
X0159200Y0086088D01*
X0159200Y0096112D01*
X0158119Y0098722D01*
X0156122Y0100719D01*
X0153512Y0101800D01*
X0151975Y0101800D01*
X0152700Y0102525D01*
X0152700Y0107908D01*
X0152859Y0107419D01*
X0153209Y0106732D01*
X0153662Y0106108D01*
X0154208Y0105562D01*
X0154832Y0105109D01*
X0155519Y0104759D01*
X0156253Y0104521D01*
X0157014Y0104400D01*
X0160700Y0104400D01*
X0160700Y0109000D01*
X0161300Y0109000D01*
X0161300Y0109600D01*
X0169500Y0109600D01*
X0169500Y0109686D01*
X0169379Y0110447D01*
X0169141Y0111181D01*
X0168791Y0111868D01*
X0168338Y0112492D01*
X0167863Y0112967D01*
X0168622Y0113281D01*
X0170619Y0115278D01*
X0171700Y0117888D01*
X0171700Y0120712D01*
X0170619Y0123322D01*
X0169641Y0124300D01*
X0170619Y0125278D01*
X0171700Y0127888D01*
X0171700Y0130712D01*
X0170619Y0133322D01*
X0169641Y0134300D01*
X0170619Y0135278D01*
X0171700Y0137888D01*
X0171700Y0140712D01*
X0170619Y0143322D01*
X0168622Y0145319D01*
X0166012Y0146400D01*
X0155988Y0146400D01*
X0153378Y0145319D01*
X0151859Y0143800D01*
X0148105Y0143800D01*
X0146451Y0143115D01*
X0145185Y0141849D01*
X0135136Y0131800D01*
X0128112Y0131800D01*
X0128563Y0132251D01*
X0129383Y0134229D01*
X0129383Y0136371D01*
X0129100Y0137053D01*
X0129100Y0169200D01*
X0144014Y0169200D01*
X0145889Y0169976D01*
X0147324Y0171411D01*
X0152112Y0176200D01*
X0152459Y0176200D01*
X0153378Y0175281D01*
X0154137Y0174967D01*
X0153662Y0174492D01*
X0153209Y0173868D01*
X0152859Y0173181D01*
X0152621Y0172447D01*
X0152500Y0171686D01*
X0152500Y0171600D01*
X0160700Y0171600D01*
X0160700Y0171000D01*
X0161300Y0171000D01*
X0161300Y0171600D01*
X0169500Y0171600D01*
X0169500Y0171686D01*
X0169379Y0172447D01*
X0169141Y0173181D01*
X0168791Y0173868D01*
X0168338Y0174492D01*
X0167863Y0174967D01*
X0168622Y0175281D01*
X0170619Y0177278D01*
X0171700Y0179888D01*
X0171700Y0182712D01*
X0170619Y0185322D01*
X0169641Y0186300D01*
X0170619Y0187278D01*
X0171700Y0189888D01*
X0171700Y0192712D01*
X0170619Y0195322D01*
X0169641Y0196300D01*
X0170619Y0197278D01*
X0171700Y0199888D01*
X0171700Y0202712D01*
X0170619Y0205322D01*
X0169641Y0206300D01*
X0170619Y0207278D01*
X0171700Y0209888D01*
X0171700Y0212712D01*
X0170619Y0215322D01*
X0168622Y0217319D01*
X0166012Y0218400D01*
X0155988Y0218400D01*
X0153378Y0217319D01*
X0151381Y0215322D01*
X0150300Y0212712D01*
X0150300Y0209888D01*
X0151381Y0207278D01*
X0152359Y0206300D01*
X0151859Y0205800D01*
X0147105Y0205800D01*
X0145451Y0205115D01*
X0144185Y0203849D01*
X0134136Y0193800D01*
X0132112Y0193800D01*
X0132563Y0194251D01*
X0133383Y0196229D01*
X0133383Y0198371D01*
X0132563Y0200349D01*
X0131049Y0201863D01*
X0129071Y0202683D01*
X0127747Y0202683D01*
X0128815Y0203751D01*
X0129500Y0205405D01*
X0129500Y0223195D01*
X0128815Y0224849D01*
X0111502Y0242162D01*
X0112019Y0242678D01*
X0112333Y0243437D01*
X0112808Y0242962D01*
X0113432Y0242509D01*
X0114119Y0242159D01*
X0114853Y0241921D01*
X0115614Y0241800D01*
X0115700Y0241800D01*
X0115700Y0250000D01*
X0116300Y0250000D01*
X0116300Y0250600D01*
X0115700Y0250600D01*
X0115700Y0258800D01*
X0115614Y0258800D01*
X0114853Y0258679D01*
X0114119Y0258441D01*
X0113432Y0258091D01*
X0112808Y0257637D01*
X0112333Y0257163D01*
X0112019Y0257922D01*
X0110022Y0259919D01*
X0107412Y0261000D01*
X0104588Y0261000D01*
X0101978Y0259919D01*
X0101000Y0258941D01*
X0100022Y0259919D01*
X0097412Y0261000D01*
X0094588Y0261000D01*
X0091978Y0259919D01*
X0091000Y0258941D01*
X0090022Y0259919D01*
X0087412Y0261000D01*
X0084588Y0261000D01*
X0081978Y0259919D01*
X0081000Y0258941D01*
X0080022Y0259919D01*
X0077412Y0261000D01*
X0074588Y0261000D01*
X0071978Y0259919D01*
X0071000Y0258941D01*
X0070022Y0259919D01*
X0067412Y0261000D01*
X0064588Y0261000D01*
X0061978Y0259919D01*
X0060000Y0257941D01*
X0060000Y0263701D01*
X0146187Y0263701D01*
X0142874Y0260606D01*
X0140114Y0256069D01*
X0138682Y0250955D01*
X0138682Y0245645D01*
X0140114Y0240531D01*
X0142874Y0235994D01*
X0146755Y0232369D01*
X0151470Y0229926D01*
X0156669Y0228845D01*
X0161967Y0229208D01*
X0161967Y0229208D01*
X0166971Y0230986D01*
X0166971Y0230986D01*
X0171310Y0234049D01*
X0173621Y0236890D01*
X0173621Y0097908D01*
X0173092Y0098437D01*
X0172468Y0098891D01*
X0171781Y0099241D01*
X0171047Y0099479D01*
X0170286Y0099600D01*
X0170200Y0099600D01*
X0170200Y0091400D01*
X0169600Y0091400D01*
X0169600Y0099600D01*
X0169514Y0099600D01*
X0168753Y0099479D01*
X0168019Y0099241D01*
X0167332Y0098891D01*
X0166708Y0098437D01*
X0166162Y0097892D01*
X0165709Y0097268D01*
X0165359Y0096581D01*
X0165121Y0095847D01*
X0165000Y0095086D01*
X0165000Y0091400D01*
X0169600Y0091400D01*
X0169600Y0090800D01*
X0170200Y0090800D01*
X0170200Y0082600D01*
X0170286Y0082600D01*
X0171047Y0082721D01*
X0171781Y0082959D01*
X0172468Y0083309D01*
X0173092Y0083762D01*
X0173621Y0084292D01*
X0173621Y0072308D01*
X0173092Y0072838D01*
X0172468Y0073291D01*
X0171781Y0073641D01*
X0171047Y0073879D01*
X0170286Y0074000D01*
X0170200Y0074000D01*
X0170200Y0065800D01*
X0169600Y0065800D01*
X0169600Y0074000D01*
X0169514Y0074000D01*
X0168753Y0073879D01*
X0168019Y0073641D01*
X0167332Y0073291D01*
X0166708Y0072838D01*
X0166162Y0072292D01*
X0165709Y0071668D01*
X0165359Y0070981D01*
X0165121Y0070247D01*
X0165000Y0069486D01*
X0165000Y0065800D01*
X0169600Y0065800D01*
X0169600Y0065200D01*
X0170200Y0065200D01*
X0170200Y0057000D01*
X0170286Y0057000D01*
X0171047Y0057121D01*
X0171781Y0057359D01*
X0172468Y0057709D01*
X0173092Y0058162D01*
X0173621Y0058692D01*
X0173621Y0043710D01*
X0171310Y0046551D01*
X0171310Y0046551D01*
X0166971Y0049614D01*
X0161967Y0051392D01*
X0156669Y0051755D01*
X0151470Y0050674D01*
X0151470Y0050674D01*
X0146755Y0048231D01*
X0146755Y0048231D01*
X0142874Y0044606D01*
X0140114Y0040069D01*
X0138682Y0034955D01*
X0138682Y0029645D01*
X0140114Y0024531D01*
X0142874Y0019994D01*
X0146508Y0016600D01*
X0060000Y0016600D01*
X0060000Y0061600D01*
X0060935Y0061600D01*
X0062662Y0062316D01*
X0063984Y0063638D01*
X0064300Y0063953D01*
X0064300Y0061967D01*
X0065320Y0059505D01*
X0067080Y0057744D01*
X0066500Y0057164D01*
X0066500Y0055600D01*
X0070700Y0055600D01*
X0070700Y0055000D01*
X0071300Y0055000D01*
X0071300Y0055600D01*
X0075500Y0055600D01*
X0075500Y0057164D01*
X0074920Y0057744D01*
X0076680Y0059505D01*
X0077700Y0061967D01*
X0077700Y0064633D01*
X0076680Y0067095D01*
X0076100Y0067675D01*
X0076100Y0074200D01*
X0077888Y0074200D01*
X0080300Y0071788D01*
X0080300Y0069525D01*
X0084225Y0065600D01*
X0089775Y0065600D01*
X0093700Y0069525D01*
X0093700Y0075075D01*
X0089775Y0079000D01*
X0087512Y0079000D01*
X0082889Y0083624D01*
X0081014Y0084400D01*
X0076100Y0084400D01*
X0076100Y0104600D01*
X0087314Y0104600D01*
X0086897Y0104183D01*
X0086808Y0104183D01*
X0084829Y0103363D01*
X0083315Y0101849D01*
X0082496Y0099871D01*
X0082496Y0097729D01*
X0083315Y0095751D01*
X0084829Y0094237D01*
X0086808Y0093417D01*
X0088949Y0093417D01*
X0090927Y0094237D01*
X0092442Y0095751D01*
X0093261Y0097729D01*
X0093261Y0097819D01*
X0097549Y0102107D01*
X0098815Y0103373D01*
X0099500Y0105027D01*
X0099500Y0168195D01*
X0098815Y0169849D01*
X0097549Y0171115D01*
X0093383Y0175281D01*
X0093383Y0175371D01*
X0092563Y0177349D01*
X0091049Y0178863D01*
X0089071Y0179683D01*
X0086929Y0179683D01*
X0084951Y0178863D01*
X0083437Y0177349D01*
X0082617Y0175371D01*
X0082617Y0173229D01*
X0083437Y0171251D01*
X0084951Y0169737D01*
X0086929Y0168917D01*
X0087019Y0168917D01*
X0090500Y0165436D01*
X0090500Y0153275D01*
X0087775Y0156000D01*
X0086700Y0156000D01*
X0086700Y0165075D01*
X0082775Y0169000D01*
X0081947Y0169000D01*
X0075662Y0175284D01*
X0073935Y0176000D01*
X0060000Y0176000D01*
X0060000Y0242659D01*
X0061978Y0240681D01*
X0064588Y0239600D01*
X0067412Y0239600D01*
X0070022Y0240681D01*
X0071000Y0241659D01*
X0071978Y0240681D01*
X0074588Y0239600D01*
X0077412Y0239600D01*
X0080022Y0240681D01*
X0081000Y0241659D01*
X0081500Y0241159D01*
X0081500Y0234164D01*
X0069185Y0221849D01*
X0068500Y0220195D01*
X0068660Y0220582D02*
X0060000Y0220582D01*
X0060000Y0221180D02*
X0068908Y0221180D01*
X0069156Y0221779D02*
X0060000Y0221779D01*
X0060000Y0222377D02*
X0069714Y0222377D01*
X0070312Y0222976D02*
X0060000Y0222976D01*
X0060000Y0223574D02*
X0070911Y0223574D01*
X0071509Y0224173D02*
X0060000Y0224173D01*
X0060000Y0224772D02*
X0072108Y0224772D01*
X0072706Y0225370D02*
X0060000Y0225370D01*
X0060000Y0225969D02*
X0073305Y0225969D01*
X0073903Y0226567D02*
X0060000Y0226567D01*
X0060000Y0227166D02*
X0074502Y0227166D01*
X0075100Y0227764D02*
X0060000Y0227764D01*
X0060000Y0228363D02*
X0075699Y0228363D01*
X0076297Y0228961D02*
X0060000Y0228961D01*
X0060000Y0229560D02*
X0076896Y0229560D01*
X0077494Y0230158D02*
X0060000Y0230158D01*
X0060000Y0230757D02*
X0078093Y0230757D01*
X0078691Y0231355D02*
X0060000Y0231355D01*
X0060000Y0231954D02*
X0079290Y0231954D01*
X0079888Y0232552D02*
X0060000Y0232552D01*
X0060000Y0233151D02*
X0080487Y0233151D01*
X0081085Y0233749D02*
X0060000Y0233749D01*
X0060000Y0234348D02*
X0081500Y0234348D01*
X0081500Y0234946D02*
X0060000Y0234946D01*
X0060000Y0235545D02*
X0081500Y0235545D01*
X0081500Y0236143D02*
X0060000Y0236143D01*
X0060000Y0236742D02*
X0081500Y0236742D01*
X0081500Y0237340D02*
X0060000Y0237340D01*
X0060000Y0237939D02*
X0081500Y0237939D01*
X0081500Y0238537D02*
X0060000Y0238537D01*
X0060000Y0239136D02*
X0081500Y0239136D01*
X0081500Y0239734D02*
X0077737Y0239734D01*
X0079181Y0240333D02*
X0081500Y0240333D01*
X0081500Y0240931D02*
X0080272Y0240931D01*
X0080871Y0241530D02*
X0081129Y0241530D01*
X0074263Y0239734D02*
X0067737Y0239734D01*
X0069181Y0240333D02*
X0072819Y0240333D01*
X0071728Y0240931D02*
X0070272Y0240931D01*
X0070871Y0241530D02*
X0071129Y0241530D01*
X0064263Y0239734D02*
X0060000Y0239734D01*
X0060000Y0240333D02*
X0062819Y0240333D01*
X0061728Y0240931D02*
X0060000Y0240931D01*
X0060000Y0241530D02*
X0061129Y0241530D01*
X0060531Y0242128D02*
X0060000Y0242128D01*
X0060000Y0258288D02*
X0060347Y0258288D01*
X0060000Y0258887D02*
X0060946Y0258887D01*
X0061544Y0259485D02*
X0060000Y0259485D01*
X0060000Y0260084D02*
X0062376Y0260084D01*
X0063820Y0260682D02*
X0060000Y0260682D01*
X0060000Y0261281D02*
X0143596Y0261281D01*
X0144237Y0261879D02*
X0060000Y0261879D01*
X0060000Y0262478D02*
X0144878Y0262478D01*
X0145518Y0263076D02*
X0060000Y0263076D01*
X0060000Y0263675D02*
X0146159Y0263675D01*
X0142955Y0260682D02*
X0108180Y0260682D01*
X0109624Y0260084D02*
X0142556Y0260084D01*
X0142874Y0260606D02*
X0142874Y0260606D01*
X0142192Y0259485D02*
X0110456Y0259485D01*
X0111054Y0258887D02*
X0141828Y0258887D01*
X0141464Y0258288D02*
X0118181Y0258288D01*
X0117881Y0258441D02*
X0117147Y0258679D01*
X0116386Y0258800D01*
X0116300Y0258800D01*
X0116300Y0250600D01*
X0120900Y0250600D01*
X0120900Y0254286D01*
X0120779Y0255047D01*
X0120541Y0255781D01*
X0120191Y0256468D01*
X0119737Y0257092D01*
X0119192Y0257637D01*
X0118568Y0258091D01*
X0117881Y0258441D01*
X0119120Y0257690D02*
X0141100Y0257690D01*
X0140736Y0257091D02*
X0119738Y0257091D01*
X0120173Y0256493D02*
X0140372Y0256493D01*
X0140114Y0256069D02*
X0140114Y0256069D01*
X0140065Y0255894D02*
X0120483Y0255894D01*
X0120699Y0255296D02*
X0139898Y0255296D01*
X0139730Y0254697D02*
X0120835Y0254697D01*
X0120900Y0254099D02*
X0139562Y0254099D01*
X0139395Y0253500D02*
X0120900Y0253500D01*
X0120900Y0252902D02*
X0139227Y0252902D01*
X0139059Y0252303D02*
X0120900Y0252303D01*
X0120900Y0251705D02*
X0138892Y0251705D01*
X0138724Y0251106D02*
X0120900Y0251106D01*
X0120900Y0250000D02*
X0116300Y0250000D01*
X0116300Y0241800D01*
X0116386Y0241800D01*
X0117147Y0241921D01*
X0117881Y0242159D01*
X0118568Y0242509D01*
X0119192Y0242962D01*
X0119737Y0243508D01*
X0120191Y0244132D01*
X0120541Y0244819D01*
X0120779Y0245553D01*
X0120900Y0246314D01*
X0120900Y0250000D01*
X0120900Y0249909D02*
X0138682Y0249909D01*
X0138682Y0250508D02*
X0116300Y0250508D01*
X0116300Y0251106D02*
X0115700Y0251106D01*
X0115700Y0251705D02*
X0116300Y0251705D01*
X0116300Y0252303D02*
X0115700Y0252303D01*
X0115700Y0252902D02*
X0116300Y0252902D01*
X0116300Y0253500D02*
X0115700Y0253500D01*
X0115700Y0254099D02*
X0116300Y0254099D01*
X0116300Y0254697D02*
X0115700Y0254697D01*
X0115700Y0255296D02*
X0116300Y0255296D01*
X0116300Y0255894D02*
X0115700Y0255894D01*
X0115700Y0256493D02*
X0116300Y0256493D01*
X0116300Y0257091D02*
X0115700Y0257091D01*
X0115700Y0257690D02*
X0116300Y0257690D01*
X0116300Y0258288D02*
X0115700Y0258288D01*
X0113819Y0258288D02*
X0111653Y0258288D01*
X0112115Y0257690D02*
X0112880Y0257690D01*
X0115700Y0249909D02*
X0116300Y0249909D01*
X0116300Y0249310D02*
X0115700Y0249310D01*
X0115700Y0248712D02*
X0116300Y0248712D01*
X0116300Y0248113D02*
X0115700Y0248113D01*
X0115700Y0247515D02*
X0116300Y0247515D01*
X0116300Y0246916D02*
X0115700Y0246916D01*
X0115700Y0246318D02*
X0116300Y0246318D01*
X0116300Y0245719D02*
X0115700Y0245719D01*
X0115700Y0245121D02*
X0116300Y0245121D01*
X0116300Y0244522D02*
X0115700Y0244522D01*
X0115700Y0243924D02*
X0116300Y0243924D01*
X0116300Y0243325D02*
X0115700Y0243325D01*
X0115700Y0242727D02*
X0116300Y0242727D01*
X0116300Y0242128D02*
X0115700Y0242128D01*
X0114213Y0242128D02*
X0111536Y0242128D01*
X0112039Y0242727D02*
X0113132Y0242727D01*
X0112445Y0243325D02*
X0112287Y0243325D01*
X0112134Y0241530D02*
X0139835Y0241530D01*
X0139667Y0242128D02*
X0117787Y0242128D01*
X0118868Y0242727D02*
X0139499Y0242727D01*
X0139331Y0243325D02*
X0119555Y0243325D01*
X0120040Y0243924D02*
X0139164Y0243924D01*
X0138996Y0244522D02*
X0120390Y0244522D01*
X0120639Y0245121D02*
X0138828Y0245121D01*
X0138682Y0245719D02*
X0120806Y0245719D01*
X0120900Y0246318D02*
X0138682Y0246318D01*
X0138682Y0246916D02*
X0120900Y0246916D01*
X0120900Y0247515D02*
X0138682Y0247515D01*
X0138682Y0248113D02*
X0120900Y0248113D01*
X0120900Y0248712D02*
X0138682Y0248712D01*
X0138682Y0249310D02*
X0120900Y0249310D01*
X0114528Y0239136D02*
X0140963Y0239136D01*
X0140599Y0239734D02*
X0113930Y0239734D01*
X0113331Y0240333D02*
X0140235Y0240333D01*
X0140114Y0240531D02*
X0140114Y0240531D01*
X0140002Y0240931D02*
X0112733Y0240931D01*
X0115127Y0238537D02*
X0141327Y0238537D01*
X0141691Y0237939D02*
X0115725Y0237939D01*
X0116324Y0237340D02*
X0142055Y0237340D01*
X0142419Y0236742D02*
X0116922Y0236742D01*
X0117521Y0236143D02*
X0142783Y0236143D01*
X0143354Y0235545D02*
X0118119Y0235545D01*
X0118718Y0234946D02*
X0143995Y0234946D01*
X0144636Y0234348D02*
X0119316Y0234348D01*
X0119915Y0233749D02*
X0145277Y0233749D01*
X0145918Y0233151D02*
X0120513Y0233151D01*
X0121112Y0232552D02*
X0146559Y0232552D01*
X0146755Y0232369D02*
X0146755Y0232369D01*
X0147556Y0231954D02*
X0121710Y0231954D01*
X0122309Y0231355D02*
X0148712Y0231355D01*
X0149867Y0230757D02*
X0122907Y0230757D01*
X0123506Y0230158D02*
X0151022Y0230158D01*
X0151470Y0229926D02*
X0151470Y0229926D01*
X0153233Y0229560D02*
X0124104Y0229560D01*
X0124703Y0228961D02*
X0156113Y0228961D01*
X0156669Y0228845D02*
X0156669Y0228845D01*
X0158360Y0228961D02*
X0173621Y0228961D01*
X0173621Y0228363D02*
X0125301Y0228363D01*
X0125900Y0227764D02*
X0173621Y0227764D01*
X0173621Y0227166D02*
X0126498Y0227166D01*
X0127097Y0226567D02*
X0173621Y0226567D01*
X0173621Y0225969D02*
X0127695Y0225969D01*
X0128294Y0225370D02*
X0173621Y0225370D01*
X0173621Y0224772D02*
X0128847Y0224772D01*
X0129095Y0224173D02*
X0173621Y0224173D01*
X0173621Y0223574D02*
X0129343Y0223574D01*
X0129500Y0222976D02*
X0173621Y0222976D01*
X0173621Y0222377D02*
X0129500Y0222377D01*
X0129500Y0221779D02*
X0173621Y0221779D01*
X0173621Y0221180D02*
X0129500Y0221180D01*
X0129500Y0220582D02*
X0173621Y0220582D01*
X0173621Y0219983D02*
X0129500Y0219983D01*
X0129500Y0219385D02*
X0173621Y0219385D01*
X0173621Y0218786D02*
X0129500Y0218786D01*
X0129500Y0218188D02*
X0155476Y0218188D01*
X0154031Y0217589D02*
X0129500Y0217589D01*
X0129500Y0216991D02*
X0153050Y0216991D01*
X0152451Y0216392D02*
X0129500Y0216392D01*
X0129500Y0215794D02*
X0151853Y0215794D01*
X0151329Y0215195D02*
X0129500Y0215195D01*
X0129500Y0214597D02*
X0151081Y0214597D01*
X0150833Y0213998D02*
X0129500Y0213998D01*
X0129500Y0213400D02*
X0150585Y0213400D01*
X0150337Y0212801D02*
X0129500Y0212801D01*
X0129500Y0212203D02*
X0150300Y0212203D01*
X0150300Y0211604D02*
X0129500Y0211604D01*
X0129500Y0211006D02*
X0150300Y0211006D01*
X0150300Y0210407D02*
X0129500Y0210407D01*
X0129500Y0209809D02*
X0150333Y0209809D01*
X0150581Y0209210D02*
X0129500Y0209210D01*
X0129500Y0208612D02*
X0150829Y0208612D01*
X0151076Y0208013D02*
X0129500Y0208013D01*
X0129500Y0207415D02*
X0151324Y0207415D01*
X0151843Y0206816D02*
X0129500Y0206816D01*
X0129500Y0206218D02*
X0152277Y0206218D01*
X0146668Y0205619D02*
X0129500Y0205619D01*
X0129341Y0205021D02*
X0145357Y0205021D01*
X0144758Y0204422D02*
X0129093Y0204422D01*
X0128845Y0203824D02*
X0144160Y0203824D01*
X0143561Y0203225D02*
X0128289Y0203225D01*
X0129206Y0202627D02*
X0142963Y0202627D01*
X0142364Y0202028D02*
X0130651Y0202028D01*
X0131483Y0201430D02*
X0141766Y0201430D01*
X0141167Y0200831D02*
X0132081Y0200831D01*
X0132611Y0200233D02*
X0140569Y0200233D01*
X0139970Y0199634D02*
X0132859Y0199634D01*
X0133107Y0199036D02*
X0139372Y0199036D01*
X0138773Y0198437D02*
X0133355Y0198437D01*
X0133383Y0197839D02*
X0138175Y0197839D01*
X0137576Y0197240D02*
X0133383Y0197240D01*
X0133383Y0196641D02*
X0136978Y0196641D01*
X0136379Y0196043D02*
X0133305Y0196043D01*
X0133058Y0195444D02*
X0135780Y0195444D01*
X0135182Y0194846D02*
X0132810Y0194846D01*
X0132560Y0194247D02*
X0134583Y0194247D01*
X0148614Y0172701D02*
X0152703Y0172701D01*
X0152566Y0172103D02*
X0148015Y0172103D01*
X0147416Y0171504D02*
X0160700Y0171504D01*
X0160700Y0171000D02*
X0152500Y0171000D01*
X0152500Y0170914D01*
X0152621Y0170153D01*
X0152859Y0169419D01*
X0153209Y0168732D01*
X0153662Y0168108D01*
X0154208Y0167562D01*
X0154832Y0167109D01*
X0155519Y0166759D01*
X0156253Y0166521D01*
X0157014Y0166400D01*
X0160700Y0166400D01*
X0160700Y0171000D01*
X0160700Y0170905D02*
X0161300Y0170905D01*
X0161300Y0171000D02*
X0161300Y0166400D01*
X0164986Y0166400D01*
X0165747Y0166521D01*
X0166481Y0166759D01*
X0167168Y0167109D01*
X0167792Y0167562D01*
X0168338Y0168108D01*
X0168791Y0168732D01*
X0169141Y0169419D01*
X0169379Y0170153D01*
X0169500Y0170914D01*
X0169500Y0171000D01*
X0161300Y0171000D01*
X0161300Y0171504D02*
X0173621Y0171504D01*
X0173621Y0170905D02*
X0169499Y0170905D01*
X0169404Y0170307D02*
X0173621Y0170307D01*
X0173621Y0169708D02*
X0169235Y0169708D01*
X0168984Y0169110D02*
X0173621Y0169110D01*
X0173621Y0168511D02*
X0168631Y0168511D01*
X0168143Y0167913D02*
X0173621Y0167913D01*
X0173621Y0167314D02*
X0167451Y0167314D01*
X0166348Y0166716D02*
X0173621Y0166716D01*
X0173621Y0166117D02*
X0165507Y0166117D01*
X0165747Y0166079D02*
X0164986Y0166200D01*
X0161300Y0166200D01*
X0161300Y0161600D01*
X0160700Y0161600D01*
X0160700Y0166200D01*
X0157014Y0166200D01*
X0156253Y0166079D01*
X0155519Y0165841D01*
X0154832Y0165491D01*
X0154208Y0165038D01*
X0153662Y0164492D01*
X0153209Y0163868D01*
X0152859Y0163181D01*
X0152621Y0162447D01*
X0152500Y0161686D01*
X0152500Y0161600D01*
X0160700Y0161600D01*
X0160700Y0161000D01*
X0161300Y0161000D01*
X0161300Y0161600D01*
X0169500Y0161600D01*
X0169500Y0161686D01*
X0169379Y0162447D01*
X0169141Y0163181D01*
X0168791Y0163868D01*
X0168338Y0164492D01*
X0167792Y0165038D01*
X0167168Y0165491D01*
X0166481Y0165841D01*
X0165747Y0166079D01*
X0167113Y0165519D02*
X0173621Y0165519D01*
X0173621Y0164920D02*
X0167909Y0164920D01*
X0168461Y0164322D02*
X0173621Y0164322D01*
X0173621Y0163723D02*
X0168865Y0163723D01*
X0169159Y0163125D02*
X0173621Y0163125D01*
X0173621Y0162526D02*
X0169354Y0162526D01*
X0169462Y0161928D02*
X0173621Y0161928D01*
X0173621Y0161329D02*
X0161300Y0161329D01*
X0161300Y0161000D02*
X0169500Y0161000D01*
X0169500Y0160914D01*
X0169379Y0160153D01*
X0169141Y0159419D01*
X0168791Y0158732D01*
X0168338Y0158108D01*
X0167792Y0157562D01*
X0167168Y0157109D01*
X0166481Y0156759D01*
X0165747Y0156521D01*
X0164986Y0156400D01*
X0161300Y0156400D01*
X0161300Y0161000D01*
X0161300Y0160731D02*
X0160700Y0160731D01*
X0160700Y0161000D02*
X0160700Y0156400D01*
X0157014Y0156400D01*
X0156253Y0156521D01*
X0155519Y0156759D01*
X0154832Y0157109D01*
X0154208Y0157562D01*
X0153662Y0158108D01*
X0153209Y0158732D01*
X0152859Y0159419D01*
X0152621Y0160153D01*
X0152500Y0160914D01*
X0152500Y0161000D01*
X0160700Y0161000D01*
X0160700Y0161329D02*
X0129100Y0161329D01*
X0129100Y0160731D02*
X0152529Y0160731D01*
X0152627Y0160132D02*
X0129100Y0160132D01*
X0129100Y0159534D02*
X0152822Y0159534D01*
X0153105Y0158935D02*
X0129100Y0158935D01*
X0129100Y0158337D02*
X0153496Y0158337D01*
X0154032Y0157738D02*
X0129100Y0157738D01*
X0129100Y0157140D02*
X0154790Y0157140D01*
X0156189Y0156541D02*
X0129100Y0156541D01*
X0129100Y0155943D02*
X0173621Y0155943D01*
X0173621Y0156541D02*
X0165811Y0156541D01*
X0167210Y0157140D02*
X0173621Y0157140D01*
X0173621Y0157738D02*
X0167968Y0157738D01*
X0168504Y0158337D02*
X0173621Y0158337D01*
X0173621Y0158935D02*
X0168895Y0158935D01*
X0169178Y0159534D02*
X0173621Y0159534D01*
X0173621Y0160132D02*
X0169373Y0160132D01*
X0169471Y0160731D02*
X0173621Y0160731D01*
X0173621Y0155344D02*
X0129100Y0155344D01*
X0129100Y0154746D02*
X0173621Y0154746D01*
X0173621Y0154147D02*
X0129100Y0154147D01*
X0129100Y0153549D02*
X0173621Y0153549D01*
X0173621Y0152950D02*
X0129100Y0152950D01*
X0129100Y0152352D02*
X0173621Y0152352D01*
X0173621Y0151753D02*
X0129100Y0151753D01*
X0129100Y0151155D02*
X0173621Y0151155D01*
X0173621Y0150556D02*
X0129100Y0150556D01*
X0129100Y0149958D02*
X0173621Y0149958D01*
X0173621Y0149359D02*
X0129100Y0149359D01*
X0129100Y0148761D02*
X0173621Y0148761D01*
X0173621Y0148162D02*
X0129100Y0148162D01*
X0129100Y0147564D02*
X0173621Y0147564D01*
X0173621Y0146965D02*
X0129100Y0146965D01*
X0129100Y0146367D02*
X0155907Y0146367D01*
X0154462Y0145768D02*
X0129100Y0145768D01*
X0129100Y0145170D02*
X0153229Y0145170D01*
X0152630Y0144571D02*
X0129100Y0144571D01*
X0129100Y0143972D02*
X0152032Y0143972D01*
X0147076Y0143374D02*
X0129100Y0143374D01*
X0129100Y0142775D02*
X0146112Y0142775D01*
X0145513Y0142177D02*
X0129100Y0142177D01*
X0129100Y0141578D02*
X0144914Y0141578D01*
X0145185Y0141849D02*
X0145185Y0141849D01*
X0144316Y0140980D02*
X0129100Y0140980D01*
X0129100Y0140381D02*
X0143717Y0140381D01*
X0143119Y0139783D02*
X0129100Y0139783D01*
X0129100Y0139184D02*
X0142520Y0139184D01*
X0141922Y0138586D02*
X0129100Y0138586D01*
X0129100Y0137987D02*
X0141323Y0137987D01*
X0140725Y0137389D02*
X0129100Y0137389D01*
X0129209Y0136790D02*
X0140126Y0136790D01*
X0139528Y0136192D02*
X0129383Y0136192D01*
X0129383Y0135593D02*
X0138929Y0135593D01*
X0138331Y0134995D02*
X0129383Y0134995D01*
X0129383Y0134396D02*
X0137732Y0134396D01*
X0137134Y0133798D02*
X0129204Y0133798D01*
X0128956Y0133199D02*
X0136535Y0133199D01*
X0135937Y0132601D02*
X0128708Y0132601D01*
X0128315Y0132002D02*
X0135338Y0132002D01*
X0144490Y0122426D02*
X0151010Y0122426D01*
X0150762Y0121828D02*
X0143892Y0121828D01*
X0143293Y0121229D02*
X0150514Y0121229D01*
X0150300Y0120712D02*
X0150300Y0117888D01*
X0151381Y0115278D01*
X0153378Y0113281D01*
X0154137Y0112967D01*
X0153662Y0112492D01*
X0153209Y0111868D01*
X0152859Y0111181D01*
X0152621Y0110447D01*
X0152500Y0109686D01*
X0152500Y0109600D01*
X0160700Y0109600D01*
X0160700Y0109000D01*
X0152500Y0109000D01*
X0152500Y0108914D01*
X0152620Y0108155D01*
X0148775Y0112000D01*
X0147664Y0112000D01*
X0143549Y0116115D01*
X0141895Y0116800D01*
X0118864Y0116800D01*
X0111500Y0124164D01*
X0111500Y0127436D01*
X0118185Y0120751D01*
X0119451Y0119485D01*
X0121105Y0118800D01*
X0139895Y0118800D01*
X0141549Y0119485D01*
X0146864Y0124800D01*
X0151859Y0124800D01*
X0152359Y0124300D01*
X0151381Y0123322D01*
X0150300Y0120712D01*
X0150300Y0120631D02*
X0142695Y0120631D01*
X0142096Y0120032D02*
X0150300Y0120032D01*
X0150300Y0119434D02*
X0141425Y0119434D01*
X0139980Y0118835D02*
X0150300Y0118835D01*
X0150300Y0118237D02*
X0117427Y0118237D01*
X0116829Y0118835D02*
X0121020Y0118835D01*
X0119575Y0119434D02*
X0116230Y0119434D01*
X0115632Y0120032D02*
X0118904Y0120032D01*
X0118305Y0120631D02*
X0115033Y0120631D01*
X0114435Y0121229D02*
X0117707Y0121229D01*
X0117108Y0121828D02*
X0113836Y0121828D01*
X0113238Y0122426D02*
X0116510Y0122426D01*
X0115911Y0123025D02*
X0112639Y0123025D01*
X0112041Y0123623D02*
X0115313Y0123623D01*
X0114714Y0124222D02*
X0111500Y0124222D01*
X0111500Y0124820D02*
X0114116Y0124820D01*
X0113517Y0125419D02*
X0111500Y0125419D01*
X0111500Y0126017D02*
X0112919Y0126017D01*
X0112320Y0126616D02*
X0111500Y0126616D01*
X0111500Y0127214D02*
X0111722Y0127214D01*
X0104700Y0118237D02*
X0099500Y0118237D01*
X0099500Y0118835D02*
X0104101Y0118835D01*
X0103502Y0119434D02*
X0099500Y0119434D01*
X0099500Y0120032D02*
X0103069Y0120032D01*
X0102821Y0120631D02*
X0099500Y0120631D01*
X0099500Y0121229D02*
X0102573Y0121229D01*
X0102500Y0121828D02*
X0099500Y0121828D01*
X0099500Y0122426D02*
X0102500Y0122426D01*
X0102500Y0123025D02*
X0099500Y0123025D01*
X0099500Y0123623D02*
X0102500Y0123623D01*
X0102500Y0124222D02*
X0099500Y0124222D01*
X0099500Y0124820D02*
X0102500Y0124820D01*
X0102500Y0125419D02*
X0099500Y0125419D01*
X0099500Y0126017D02*
X0102500Y0126017D01*
X0102500Y0126616D02*
X0099500Y0126616D01*
X0099500Y0127214D02*
X0102500Y0127214D01*
X0102500Y0127813D02*
X0099500Y0127813D01*
X0099500Y0128411D02*
X0102500Y0128411D01*
X0102500Y0129010D02*
X0099500Y0129010D01*
X0099500Y0129608D02*
X0102500Y0129608D01*
X0102500Y0130207D02*
X0099500Y0130207D01*
X0099500Y0130805D02*
X0102500Y0130805D01*
X0102500Y0131404D02*
X0099500Y0131404D01*
X0099500Y0132002D02*
X0102500Y0132002D01*
X0102500Y0132601D02*
X0099500Y0132601D01*
X0099500Y0133199D02*
X0102500Y0133199D01*
X0102500Y0133798D02*
X0099500Y0133798D01*
X0099500Y0134396D02*
X0102500Y0134396D01*
X0102500Y0134995D02*
X0099500Y0134995D01*
X0099500Y0135593D02*
X0102500Y0135593D01*
X0102500Y0136192D02*
X0099500Y0136192D01*
X0099500Y0136790D02*
X0102500Y0136790D01*
X0102500Y0137389D02*
X0099500Y0137389D01*
X0099500Y0137987D02*
X0102500Y0137987D01*
X0102500Y0138586D02*
X0099500Y0138586D01*
X0099500Y0139184D02*
X0102500Y0139184D01*
X0102500Y0139783D02*
X0099500Y0139783D01*
X0099500Y0140381D02*
X0102500Y0140381D01*
X0102500Y0140980D02*
X0099500Y0140980D01*
X0099500Y0141578D02*
X0102500Y0141578D01*
X0102500Y0142177D02*
X0099500Y0142177D01*
X0099500Y0142775D02*
X0102500Y0142775D01*
X0102500Y0143374D02*
X0099500Y0143374D01*
X0099500Y0143972D02*
X0102500Y0143972D01*
X0102500Y0144571D02*
X0099500Y0144571D01*
X0099500Y0145170D02*
X0102500Y0145170D01*
X0102500Y0145768D02*
X0099500Y0145768D01*
X0099500Y0146367D02*
X0102500Y0146367D01*
X0102500Y0146965D02*
X0099500Y0146965D01*
X0099500Y0147564D02*
X0102500Y0147564D01*
X0102500Y0148162D02*
X0099500Y0148162D01*
X0099500Y0148761D02*
X0102500Y0148761D01*
X0102500Y0149359D02*
X0099500Y0149359D01*
X0099500Y0149958D02*
X0102500Y0149958D01*
X0102500Y0150556D02*
X0099500Y0150556D01*
X0099500Y0151155D02*
X0102500Y0151155D01*
X0102500Y0151753D02*
X0099500Y0151753D01*
X0099500Y0152352D02*
X0102500Y0152352D01*
X0102500Y0152950D02*
X0099500Y0152950D01*
X0099500Y0153549D02*
X0102500Y0153549D01*
X0102500Y0154147D02*
X0099500Y0154147D01*
X0099500Y0154746D02*
X0102500Y0154746D01*
X0102500Y0155344D02*
X0099500Y0155344D01*
X0099500Y0155943D02*
X0102500Y0155943D01*
X0102500Y0156541D02*
X0099500Y0156541D01*
X0099500Y0157140D02*
X0102500Y0157140D01*
X0102500Y0157738D02*
X0099500Y0157738D01*
X0099500Y0158337D02*
X0102500Y0158337D01*
X0102500Y0158935D02*
X0099500Y0158935D01*
X0099500Y0159534D02*
X0102500Y0159534D01*
X0102500Y0160132D02*
X0099500Y0160132D01*
X0099500Y0160731D02*
X0102500Y0160731D01*
X0102500Y0161329D02*
X0099500Y0161329D01*
X0099500Y0161928D02*
X0102500Y0161928D01*
X0102500Y0162526D02*
X0099500Y0162526D01*
X0099500Y0163125D02*
X0102500Y0163125D01*
X0102500Y0163723D02*
X0099500Y0163723D01*
X0099500Y0164322D02*
X0102500Y0164322D01*
X0102500Y0164920D02*
X0099500Y0164920D01*
X0099500Y0165519D02*
X0102500Y0165519D01*
X0102500Y0166117D02*
X0099500Y0166117D01*
X0099500Y0166716D02*
X0102500Y0166716D01*
X0102500Y0167314D02*
X0099500Y0167314D01*
X0099500Y0167913D02*
X0102500Y0167913D01*
X0102500Y0168511D02*
X0099369Y0168511D01*
X0099121Y0169110D02*
X0102500Y0169110D01*
X0102500Y0169708D02*
X0098873Y0169708D01*
X0098357Y0170307D02*
X0102414Y0170307D01*
X0102166Y0170905D02*
X0097758Y0170905D01*
X0097160Y0171504D02*
X0101918Y0171504D01*
X0101670Y0172103D02*
X0096561Y0172103D01*
X0095963Y0172701D02*
X0101617Y0172701D01*
X0101617Y0173300D02*
X0095364Y0173300D01*
X0094766Y0173898D02*
X0101617Y0173898D01*
X0101669Y0174497D02*
X0094167Y0174497D01*
X0093569Y0175095D02*
X0101917Y0175095D01*
X0102165Y0175694D02*
X0093249Y0175694D01*
X0093001Y0176292D02*
X0102413Y0176292D01*
X0102978Y0176891D02*
X0092753Y0176891D01*
X0092423Y0177489D02*
X0103577Y0177489D01*
X0104493Y0178088D02*
X0091825Y0178088D01*
X0091226Y0178686D02*
X0113401Y0178686D01*
X0112803Y0179285D02*
X0090032Y0179285D01*
X0085968Y0179285D02*
X0060000Y0179285D01*
X0060000Y0179883D02*
X0112204Y0179883D01*
X0111606Y0180482D02*
X0060000Y0180482D01*
X0060000Y0181080D02*
X0111007Y0181080D01*
X0110409Y0181679D02*
X0060000Y0181679D01*
X0060000Y0182277D02*
X0109810Y0182277D01*
X0109212Y0182876D02*
X0060000Y0182876D01*
X0060000Y0183474D02*
X0108613Y0183474D01*
X0108015Y0184073D02*
X0060000Y0184073D01*
X0060000Y0184671D02*
X0107416Y0184671D01*
X0106818Y0185270D02*
X0060000Y0185270D01*
X0060000Y0185868D02*
X0106219Y0185868D01*
X0105621Y0186467D02*
X0060000Y0186467D01*
X0060000Y0187065D02*
X0105022Y0187065D01*
X0104424Y0187664D02*
X0060000Y0187664D01*
X0060000Y0188262D02*
X0103825Y0188262D01*
X0103227Y0188861D02*
X0060000Y0188861D01*
X0060000Y0189459D02*
X0102628Y0189459D01*
X0102030Y0190058D02*
X0060000Y0190058D01*
X0060000Y0190656D02*
X0101431Y0190656D01*
X0100833Y0191255D02*
X0060000Y0191255D01*
X0060000Y0191853D02*
X0100234Y0191853D01*
X0099636Y0192452D02*
X0060000Y0192452D01*
X0060000Y0193050D02*
X0099037Y0193050D01*
X0098439Y0193649D02*
X0060000Y0193649D01*
X0060000Y0194247D02*
X0097840Y0194247D01*
X0097242Y0194846D02*
X0060000Y0194846D01*
X0060000Y0195444D02*
X0096643Y0195444D01*
X0096045Y0196043D02*
X0074374Y0196043D01*
X0075819Y0196641D02*
X0095446Y0196641D01*
X0094150Y0197240D02*
X0076552Y0197240D01*
X0077151Y0197839D02*
X0092849Y0197839D01*
X0092251Y0198437D02*
X0077640Y0198437D01*
X0077888Y0199036D02*
X0091652Y0199036D01*
X0091278Y0199634D02*
X0078136Y0199634D01*
X0078383Y0200233D02*
X0091030Y0200233D01*
X0090782Y0200831D02*
X0078383Y0200831D01*
X0078383Y0201430D02*
X0090617Y0201430D01*
X0090617Y0202028D02*
X0078383Y0202028D01*
X0078277Y0202627D02*
X0090617Y0202627D01*
X0090617Y0203225D02*
X0078029Y0203225D01*
X0077781Y0203824D02*
X0090805Y0203824D01*
X0091053Y0204422D02*
X0077500Y0204422D01*
X0077500Y0205021D02*
X0091301Y0205021D01*
X0091707Y0205619D02*
X0077500Y0205619D01*
X0077500Y0206218D02*
X0092305Y0206218D01*
X0092904Y0206816D02*
X0077500Y0206816D01*
X0077500Y0207415D02*
X0094282Y0207415D01*
X0095617Y0208013D02*
X0077500Y0208013D01*
X0077500Y0208612D02*
X0095717Y0208612D01*
X0095965Y0209210D02*
X0077500Y0209210D01*
X0077500Y0209809D02*
X0096213Y0209809D01*
X0096495Y0210407D02*
X0077500Y0210407D01*
X0077500Y0211006D02*
X0097094Y0211006D01*
X0097692Y0211604D02*
X0077500Y0211604D01*
X0077500Y0212203D02*
X0098771Y0212203D01*
X0108289Y0212801D02*
X0077500Y0212801D01*
X0077500Y0213400D02*
X0108887Y0213400D01*
X0109486Y0213998D02*
X0077500Y0213998D01*
X0077500Y0214597D02*
X0110084Y0214597D01*
X0110683Y0215195D02*
X0077500Y0215195D01*
X0077500Y0215794D02*
X0111281Y0215794D01*
X0111880Y0216392D02*
X0077500Y0216392D01*
X0077500Y0216991D02*
X0112478Y0216991D01*
X0113077Y0217589D02*
X0077653Y0217589D01*
X0078252Y0218188D02*
X0113675Y0218188D01*
X0114204Y0218786D02*
X0078850Y0218786D01*
X0079449Y0219385D02*
X0114473Y0219385D01*
X0115071Y0219983D02*
X0080047Y0219983D01*
X0080646Y0220582D02*
X0115670Y0220582D01*
X0116717Y0221180D02*
X0081244Y0221180D01*
X0081843Y0221779D02*
X0119157Y0221779D01*
X0118559Y0222377D02*
X0082441Y0222377D01*
X0083040Y0222976D02*
X0117960Y0222976D01*
X0117362Y0223574D02*
X0083638Y0223574D01*
X0084237Y0224173D02*
X0116763Y0224173D01*
X0116165Y0224772D02*
X0084835Y0224772D01*
X0085434Y0225370D02*
X0115566Y0225370D01*
X0114967Y0225969D02*
X0086033Y0225969D01*
X0086631Y0226567D02*
X0114369Y0226567D01*
X0113770Y0227166D02*
X0087230Y0227166D01*
X0087828Y0227764D02*
X0113172Y0227764D01*
X0112573Y0228363D02*
X0088427Y0228363D01*
X0089025Y0228961D02*
X0111975Y0228961D01*
X0111376Y0229560D02*
X0089624Y0229560D01*
X0089984Y0230158D02*
X0110778Y0230158D01*
X0110179Y0230757D02*
X0090231Y0230757D01*
X0090479Y0231355D02*
X0109581Y0231355D01*
X0108982Y0231954D02*
X0090500Y0231954D01*
X0090500Y0232552D02*
X0108384Y0232552D01*
X0107785Y0233151D02*
X0090500Y0233151D01*
X0090500Y0233749D02*
X0107187Y0233749D01*
X0106588Y0234348D02*
X0090500Y0234348D01*
X0090500Y0234946D02*
X0105990Y0234946D01*
X0105391Y0235545D02*
X0090500Y0235545D01*
X0090500Y0236143D02*
X0104793Y0236143D01*
X0104194Y0236742D02*
X0090500Y0236742D01*
X0090500Y0237340D02*
X0103596Y0237340D01*
X0102997Y0237939D02*
X0090500Y0237939D01*
X0090500Y0238537D02*
X0102399Y0238537D01*
X0102026Y0239136D02*
X0090500Y0239136D01*
X0090500Y0239734D02*
X0094263Y0239734D01*
X0092819Y0240333D02*
X0090500Y0240333D01*
X0090500Y0240931D02*
X0091728Y0240931D01*
X0091129Y0241530D02*
X0090871Y0241530D01*
X0097737Y0239734D02*
X0101778Y0239734D01*
X0101530Y0240333D02*
X0099181Y0240333D01*
X0100272Y0240931D02*
X0101500Y0240931D01*
X0101129Y0241530D02*
X0100871Y0241530D01*
X0100456Y0259485D02*
X0101544Y0259485D01*
X0102376Y0260084D02*
X0099624Y0260084D01*
X0098180Y0260682D02*
X0103820Y0260682D01*
X0093820Y0260682D02*
X0088180Y0260682D01*
X0089624Y0260084D02*
X0092376Y0260084D01*
X0091544Y0259485D02*
X0090456Y0259485D01*
X0083820Y0260682D02*
X0078180Y0260682D01*
X0079624Y0260084D02*
X0082376Y0260084D01*
X0081544Y0259485D02*
X0080456Y0259485D01*
X0073820Y0260682D02*
X0068180Y0260682D01*
X0069624Y0260084D02*
X0072376Y0260084D01*
X0071544Y0259485D02*
X0070456Y0259485D01*
X0068500Y0219385D02*
X0060000Y0219385D01*
X0060000Y0218786D02*
X0068500Y0218786D01*
X0068500Y0218188D02*
X0060000Y0218188D01*
X0060000Y0217589D02*
X0068500Y0217589D01*
X0068500Y0216991D02*
X0060000Y0216991D01*
X0060000Y0216392D02*
X0068500Y0216392D01*
X0068500Y0215794D02*
X0060000Y0215794D01*
X0060000Y0215195D02*
X0068500Y0215195D01*
X0068500Y0214597D02*
X0060000Y0214597D01*
X0060000Y0213998D02*
X0068500Y0213998D01*
X0068500Y0213400D02*
X0060000Y0213400D01*
X0060000Y0212801D02*
X0068500Y0212801D01*
X0068500Y0212203D02*
X0060000Y0212203D01*
X0060000Y0211604D02*
X0068500Y0211604D01*
X0068500Y0211006D02*
X0060000Y0211006D01*
X0060000Y0210407D02*
X0068500Y0210407D01*
X0068500Y0209809D02*
X0060000Y0209809D01*
X0060000Y0209210D02*
X0068500Y0209210D01*
X0068500Y0208612D02*
X0060000Y0208612D01*
X0060000Y0208013D02*
X0068500Y0208013D01*
X0068500Y0207415D02*
X0060000Y0207415D01*
X0060000Y0206816D02*
X0068500Y0206816D01*
X0068500Y0206218D02*
X0060000Y0206218D01*
X0060000Y0205619D02*
X0068500Y0205619D01*
X0068500Y0205021D02*
X0060000Y0205021D01*
X0060000Y0204422D02*
X0068500Y0204422D01*
X0068219Y0203824D02*
X0060000Y0203824D01*
X0060000Y0203225D02*
X0067971Y0203225D01*
X0067723Y0202627D02*
X0060000Y0202627D01*
X0060000Y0202028D02*
X0067617Y0202028D01*
X0067617Y0201430D02*
X0060000Y0201430D01*
X0060000Y0200831D02*
X0067617Y0200831D01*
X0067617Y0200233D02*
X0060000Y0200233D01*
X0060000Y0199634D02*
X0067864Y0199634D01*
X0068112Y0199036D02*
X0060000Y0199036D01*
X0060000Y0198437D02*
X0068360Y0198437D01*
X0068849Y0197839D02*
X0060000Y0197839D01*
X0060000Y0197240D02*
X0069448Y0197240D01*
X0070181Y0196641D02*
X0060000Y0196641D01*
X0060000Y0196043D02*
X0071626Y0196043D01*
X0060000Y0178686D02*
X0084774Y0178686D01*
X0084175Y0178088D02*
X0060000Y0178088D01*
X0060000Y0177489D02*
X0083577Y0177489D01*
X0083247Y0176891D02*
X0060000Y0176891D01*
X0060000Y0176292D02*
X0082999Y0176292D01*
X0082751Y0175694D02*
X0074675Y0175694D01*
X0075852Y0175095D02*
X0082617Y0175095D01*
X0082617Y0174497D02*
X0076450Y0174497D01*
X0077049Y0173898D02*
X0082617Y0173898D01*
X0082617Y0173300D02*
X0077647Y0173300D01*
X0078246Y0172701D02*
X0082836Y0172701D01*
X0083084Y0172103D02*
X0078844Y0172103D01*
X0079443Y0171504D02*
X0083332Y0171504D01*
X0083782Y0170905D02*
X0080041Y0170905D01*
X0080640Y0170307D02*
X0084381Y0170307D01*
X0085019Y0169708D02*
X0081238Y0169708D01*
X0081837Y0169110D02*
X0086464Y0169110D01*
X0087425Y0168511D02*
X0083264Y0168511D01*
X0083862Y0167913D02*
X0088023Y0167913D01*
X0088622Y0167314D02*
X0084461Y0167314D01*
X0085059Y0166716D02*
X0089220Y0166716D01*
X0089819Y0166117D02*
X0085658Y0166117D01*
X0086256Y0165519D02*
X0090417Y0165519D01*
X0090500Y0164920D02*
X0086700Y0164920D01*
X0086700Y0164322D02*
X0090500Y0164322D01*
X0090500Y0163723D02*
X0086700Y0163723D01*
X0086700Y0163125D02*
X0090500Y0163125D01*
X0090500Y0162526D02*
X0086700Y0162526D01*
X0086700Y0161928D02*
X0090500Y0161928D01*
X0090500Y0161329D02*
X0086700Y0161329D01*
X0086700Y0160731D02*
X0090500Y0160731D01*
X0090500Y0160132D02*
X0086700Y0160132D01*
X0086700Y0159534D02*
X0090500Y0159534D01*
X0090500Y0158935D02*
X0086700Y0158935D01*
X0086700Y0158337D02*
X0090500Y0158337D01*
X0090500Y0157738D02*
X0086700Y0157738D01*
X0086700Y0157140D02*
X0090500Y0157140D01*
X0090500Y0156541D02*
X0086700Y0156541D01*
X0087832Y0155943D02*
X0090500Y0155943D01*
X0090500Y0155344D02*
X0088431Y0155344D01*
X0089030Y0154746D02*
X0090500Y0154746D01*
X0090500Y0154147D02*
X0089628Y0154147D01*
X0090227Y0153549D02*
X0090500Y0153549D01*
X0109507Y0178088D02*
X0114000Y0178088D01*
X0114598Y0177489D02*
X0110423Y0177489D01*
X0111022Y0176891D02*
X0115197Y0176891D01*
X0115795Y0176292D02*
X0111587Y0176292D01*
X0111835Y0175694D02*
X0116394Y0175694D01*
X0116992Y0175095D02*
X0112083Y0175095D01*
X0112331Y0174497D02*
X0117591Y0174497D01*
X0118189Y0173898D02*
X0112383Y0173898D01*
X0112383Y0173300D02*
X0118788Y0173300D01*
X0118900Y0172701D02*
X0112383Y0172701D01*
X0112330Y0172103D02*
X0118900Y0172103D01*
X0118900Y0171504D02*
X0112082Y0171504D01*
X0111834Y0170905D02*
X0118900Y0170905D01*
X0118900Y0170307D02*
X0111586Y0170307D01*
X0111500Y0169708D02*
X0118900Y0169708D01*
X0118900Y0169110D02*
X0111500Y0169110D01*
X0111500Y0168511D02*
X0118900Y0168511D01*
X0118900Y0167913D02*
X0111500Y0167913D01*
X0111500Y0167314D02*
X0118900Y0167314D01*
X0118900Y0166716D02*
X0111500Y0166716D01*
X0111500Y0166117D02*
X0118900Y0166117D01*
X0116534Y0165519D02*
X0113466Y0165519D01*
X0114911Y0164920D02*
X0115089Y0164920D01*
X0129100Y0164920D02*
X0154091Y0164920D01*
X0153539Y0164322D02*
X0129100Y0164322D01*
X0129100Y0163723D02*
X0153135Y0163723D01*
X0152841Y0163125D02*
X0129100Y0163125D01*
X0129100Y0162526D02*
X0152646Y0162526D01*
X0152538Y0161928D02*
X0129100Y0161928D01*
X0129100Y0165519D02*
X0154887Y0165519D01*
X0155652Y0166716D02*
X0129100Y0166716D01*
X0129100Y0167314D02*
X0154549Y0167314D01*
X0153857Y0167913D02*
X0129100Y0167913D01*
X0129100Y0168511D02*
X0153369Y0168511D01*
X0153016Y0169110D02*
X0129100Y0169110D01*
X0129100Y0166117D02*
X0156493Y0166117D01*
X0160700Y0166117D02*
X0161300Y0166117D01*
X0161300Y0165519D02*
X0160700Y0165519D01*
X0160700Y0164920D02*
X0161300Y0164920D01*
X0161300Y0164322D02*
X0160700Y0164322D01*
X0160700Y0163723D02*
X0161300Y0163723D01*
X0161300Y0163125D02*
X0160700Y0163125D01*
X0160700Y0162526D02*
X0161300Y0162526D01*
X0161300Y0161928D02*
X0160700Y0161928D01*
X0160700Y0160132D02*
X0161300Y0160132D01*
X0161300Y0159534D02*
X0160700Y0159534D01*
X0160700Y0158935D02*
X0161300Y0158935D01*
X0161300Y0158337D02*
X0160700Y0158337D01*
X0160700Y0157738D02*
X0161300Y0157738D01*
X0161300Y0157140D02*
X0160700Y0157140D01*
X0160700Y0156541D02*
X0161300Y0156541D01*
X0166093Y0146367D02*
X0173621Y0146367D01*
X0173621Y0145768D02*
X0167538Y0145768D01*
X0168771Y0145170D02*
X0173621Y0145170D01*
X0173621Y0144571D02*
X0169370Y0144571D01*
X0169968Y0143972D02*
X0173621Y0143972D01*
X0173621Y0143374D02*
X0170567Y0143374D01*
X0170845Y0142775D02*
X0173621Y0142775D01*
X0173621Y0142177D02*
X0171093Y0142177D01*
X0171341Y0141578D02*
X0173621Y0141578D01*
X0173621Y0140980D02*
X0171589Y0140980D01*
X0171700Y0140381D02*
X0173621Y0140381D01*
X0173621Y0139783D02*
X0171700Y0139783D01*
X0171700Y0139184D02*
X0173621Y0139184D01*
X0173621Y0138586D02*
X0171700Y0138586D01*
X0171700Y0137987D02*
X0173621Y0137987D01*
X0173621Y0137389D02*
X0171493Y0137389D01*
X0171245Y0136790D02*
X0173621Y0136790D01*
X0173621Y0136192D02*
X0170998Y0136192D01*
X0170750Y0135593D02*
X0173621Y0135593D01*
X0173621Y0134995D02*
X0170336Y0134995D01*
X0169737Y0134396D02*
X0173621Y0134396D01*
X0173621Y0133798D02*
X0170143Y0133798D01*
X0170670Y0133199D02*
X0173621Y0133199D01*
X0173621Y0132601D02*
X0170918Y0132601D01*
X0171166Y0132002D02*
X0173621Y0132002D01*
X0173621Y0131404D02*
X0171414Y0131404D01*
X0171661Y0130805D02*
X0173621Y0130805D01*
X0173621Y0130207D02*
X0171700Y0130207D01*
X0171700Y0129608D02*
X0173621Y0129608D01*
X0173621Y0129010D02*
X0171700Y0129010D01*
X0171700Y0128411D02*
X0173621Y0128411D01*
X0173621Y0127813D02*
X0171669Y0127813D01*
X0171421Y0127214D02*
X0173621Y0127214D01*
X0173621Y0126616D02*
X0171173Y0126616D01*
X0170925Y0126017D02*
X0173621Y0126017D01*
X0173621Y0125419D02*
X0170677Y0125419D01*
X0170161Y0124820D02*
X0173621Y0124820D01*
X0173621Y0124222D02*
X0169719Y0124222D01*
X0170318Y0123623D02*
X0173621Y0123623D01*
X0173621Y0123025D02*
X0170742Y0123025D01*
X0170990Y0122426D02*
X0173621Y0122426D01*
X0173621Y0121828D02*
X0171238Y0121828D01*
X0171486Y0121229D02*
X0173621Y0121229D01*
X0173621Y0120631D02*
X0171700Y0120631D01*
X0171700Y0120032D02*
X0173621Y0120032D01*
X0173621Y0119434D02*
X0171700Y0119434D01*
X0171700Y0118835D02*
X0173621Y0118835D01*
X0173621Y0118237D02*
X0171700Y0118237D01*
X0171597Y0117638D02*
X0173621Y0117638D01*
X0173621Y0117039D02*
X0171349Y0117039D01*
X0171101Y0116441D02*
X0173621Y0116441D01*
X0173621Y0115842D02*
X0170853Y0115842D01*
X0170585Y0115244D02*
X0173621Y0115244D01*
X0173621Y0114645D02*
X0169986Y0114645D01*
X0169388Y0114047D02*
X0173621Y0114047D01*
X0173621Y0113448D02*
X0168789Y0113448D01*
X0167980Y0112850D02*
X0173621Y0112850D01*
X0173621Y0112251D02*
X0168512Y0112251D01*
X0168901Y0111653D02*
X0173621Y0111653D01*
X0173621Y0111054D02*
X0169182Y0111054D01*
X0169377Y0110456D02*
X0173621Y0110456D01*
X0173621Y0109857D02*
X0169473Y0109857D01*
X0169500Y0109000D02*
X0161300Y0109000D01*
X0161300Y0104400D01*
X0164986Y0104400D01*
X0165747Y0104521D01*
X0166481Y0104759D01*
X0167168Y0105109D01*
X0167792Y0105562D01*
X0168338Y0106108D01*
X0168791Y0106732D01*
X0169141Y0107419D01*
X0169379Y0108153D01*
X0169500Y0108914D01*
X0169500Y0109000D01*
X0169460Y0108660D02*
X0173621Y0108660D01*
X0173621Y0108062D02*
X0169350Y0108062D01*
X0169155Y0107463D02*
X0173621Y0107463D01*
X0173621Y0106865D02*
X0168859Y0106865D01*
X0168453Y0106266D02*
X0173621Y0106266D01*
X0173621Y0105668D02*
X0167897Y0105668D01*
X0167090Y0105069D02*
X0173621Y0105069D01*
X0173621Y0104471D02*
X0165432Y0104471D01*
X0161300Y0104471D02*
X0160700Y0104471D01*
X0160700Y0105069D02*
X0161300Y0105069D01*
X0161300Y0105668D02*
X0160700Y0105668D01*
X0160700Y0106266D02*
X0161300Y0106266D01*
X0161300Y0106865D02*
X0160700Y0106865D01*
X0160700Y0107463D02*
X0161300Y0107463D01*
X0161300Y0108062D02*
X0160700Y0108062D01*
X0160700Y0108660D02*
X0161300Y0108660D01*
X0161300Y0109259D02*
X0173621Y0109259D01*
X0173621Y0103872D02*
X0152700Y0103872D01*
X0152700Y0103274D02*
X0173621Y0103274D01*
X0173621Y0102675D02*
X0152700Y0102675D01*
X0152252Y0102077D02*
X0173621Y0102077D01*
X0173621Y0101478D02*
X0154289Y0101478D01*
X0155734Y0100880D02*
X0173621Y0100880D01*
X0173621Y0100281D02*
X0156560Y0100281D01*
X0157158Y0099683D02*
X0173621Y0099683D01*
X0173621Y0099084D02*
X0172089Y0099084D01*
X0173026Y0098486D02*
X0173621Y0098486D01*
X0170200Y0098486D02*
X0169600Y0098486D01*
X0169600Y0099084D02*
X0170200Y0099084D01*
X0170200Y0097887D02*
X0169600Y0097887D01*
X0169600Y0097289D02*
X0170200Y0097289D01*
X0170200Y0096690D02*
X0169600Y0096690D01*
X0169600Y0096092D02*
X0170200Y0096092D01*
X0170200Y0095493D02*
X0169600Y0095493D01*
X0169600Y0094895D02*
X0170200Y0094895D01*
X0170200Y0094296D02*
X0169600Y0094296D01*
X0169600Y0093698D02*
X0170200Y0093698D01*
X0170200Y0093099D02*
X0169600Y0093099D01*
X0169600Y0092501D02*
X0170200Y0092501D01*
X0170200Y0091902D02*
X0169600Y0091902D01*
X0169600Y0091303D02*
X0159200Y0091303D01*
X0159200Y0090705D02*
X0165000Y0090705D01*
X0165000Y0090800D02*
X0165000Y0087114D01*
X0159200Y0087114D01*
X0159200Y0087712D02*
X0165000Y0087712D01*
X0165000Y0087114D02*
X0165121Y0086353D01*
X0165359Y0085619D01*
X0165709Y0084932D01*
X0166162Y0084308D01*
X0166708Y0083762D01*
X0167332Y0083309D01*
X0168019Y0082959D01*
X0168753Y0082721D01*
X0169514Y0082600D01*
X0169600Y0082600D01*
X0169600Y0090800D01*
X0165000Y0090800D01*
X0165000Y0090106D02*
X0159200Y0090106D01*
X0159200Y0089508D02*
X0165000Y0089508D01*
X0165000Y0088909D02*
X0159200Y0088909D01*
X0159200Y0088311D02*
X0165000Y0088311D01*
X0165095Y0086515D02*
X0159200Y0086515D01*
X0159129Y0085917D02*
X0165262Y0085917D01*
X0165512Y0085318D02*
X0158881Y0085318D01*
X0158633Y0084720D02*
X0165863Y0084720D01*
X0166349Y0084121D02*
X0158385Y0084121D01*
X0158138Y0083523D02*
X0167038Y0083523D01*
X0168126Y0082924D02*
X0157565Y0082924D01*
X0156967Y0082326D02*
X0173621Y0082326D01*
X0173621Y0082924D02*
X0171674Y0082924D01*
X0172762Y0083523D02*
X0173621Y0083523D01*
X0173621Y0084121D02*
X0173451Y0084121D01*
X0173621Y0081727D02*
X0156600Y0081727D01*
X0156600Y0081129D02*
X0173621Y0081129D01*
X0173621Y0080530D02*
X0156600Y0080530D01*
X0156600Y0079932D02*
X0173621Y0079932D01*
X0173621Y0079333D02*
X0156600Y0079333D01*
X0156600Y0078735D02*
X0173621Y0078735D01*
X0173621Y0078136D02*
X0156600Y0078136D01*
X0156600Y0077538D02*
X0173621Y0077538D01*
X0173621Y0076939D02*
X0156600Y0076939D01*
X0156600Y0076341D02*
X0173621Y0076341D01*
X0173621Y0075742D02*
X0156600Y0075742D01*
X0156600Y0075144D02*
X0173621Y0075144D01*
X0173621Y0074545D02*
X0156696Y0074545D01*
X0157294Y0073947D02*
X0169178Y0073947D01*
X0169600Y0073947D02*
X0170200Y0073947D01*
X0170622Y0073947D02*
X0173621Y0073947D01*
X0173621Y0073348D02*
X0172356Y0073348D01*
X0173180Y0072750D02*
X0173621Y0072750D01*
X0170200Y0072750D02*
X0169600Y0072750D01*
X0169600Y0073348D02*
X0170200Y0073348D01*
X0170200Y0072151D02*
X0169600Y0072151D01*
X0169600Y0071553D02*
X0170200Y0071553D01*
X0170200Y0070954D02*
X0169600Y0070954D01*
X0169600Y0070356D02*
X0170200Y0070356D01*
X0170200Y0069757D02*
X0169600Y0069757D01*
X0169600Y0069159D02*
X0170200Y0069159D01*
X0170200Y0068560D02*
X0169600Y0068560D01*
X0169600Y0067962D02*
X0170200Y0067962D01*
X0170200Y0067363D02*
X0169600Y0067363D01*
X0169600Y0066765D02*
X0170200Y0066765D01*
X0170200Y0066166D02*
X0169600Y0066166D01*
X0169600Y0065568D02*
X0159200Y0065568D01*
X0159200Y0066166D02*
X0165000Y0066166D01*
X0165000Y0066765D02*
X0159200Y0066765D01*
X0159200Y0067363D02*
X0165000Y0067363D01*
X0165000Y0067962D02*
X0159200Y0067962D01*
X0159200Y0068560D02*
X0165000Y0068560D01*
X0165000Y0069159D02*
X0159200Y0069159D01*
X0159200Y0069757D02*
X0165043Y0069757D01*
X0165156Y0070356D02*
X0159200Y0070356D01*
X0159017Y0070954D02*
X0165350Y0070954D01*
X0165650Y0071553D02*
X0158769Y0071553D01*
X0158521Y0072151D02*
X0166060Y0072151D01*
X0166620Y0072750D02*
X0158273Y0072750D01*
X0157893Y0073348D02*
X0167444Y0073348D01*
X0169600Y0065200D02*
X0165000Y0065200D01*
X0165000Y0061514D01*
X0165121Y0060753D01*
X0165359Y0060019D01*
X0165709Y0059332D01*
X0166162Y0058708D01*
X0166708Y0058162D01*
X0167332Y0057709D01*
X0168019Y0057359D01*
X0168753Y0057121D01*
X0169514Y0057000D01*
X0169600Y0057000D01*
X0169600Y0065200D01*
X0169600Y0064969D02*
X0170200Y0064969D01*
X0170200Y0064370D02*
X0169600Y0064370D01*
X0169600Y0063772D02*
X0170200Y0063772D01*
X0170200Y0063173D02*
X0169600Y0063173D01*
X0169600Y0062575D02*
X0170200Y0062575D01*
X0170200Y0061976D02*
X0169600Y0061976D01*
X0169600Y0061378D02*
X0170200Y0061378D01*
X0170200Y0060779D02*
X0169600Y0060779D01*
X0169600Y0060181D02*
X0170200Y0060181D01*
X0170200Y0059582D02*
X0169600Y0059582D01*
X0169600Y0058984D02*
X0170200Y0058984D01*
X0170200Y0058385D02*
X0169600Y0058385D01*
X0169600Y0057787D02*
X0170200Y0057787D01*
X0170200Y0057188D02*
X0169600Y0057188D01*
X0168544Y0057188D02*
X0157429Y0057188D01*
X0156831Y0056590D02*
X0173621Y0056590D01*
X0173621Y0057188D02*
X0171256Y0057188D01*
X0172575Y0057787D02*
X0173621Y0057787D01*
X0173621Y0058385D02*
X0173315Y0058385D01*
X0173621Y0055991D02*
X0156232Y0055991D01*
X0154943Y0055393D02*
X0173621Y0055393D01*
X0173621Y0054794D02*
X0075500Y0054794D01*
X0075500Y0055000D02*
X0071300Y0055000D01*
X0071300Y0050800D01*
X0072864Y0050800D01*
X0075500Y0053436D01*
X0075500Y0055000D01*
X0075500Y0054196D02*
X0173621Y0054196D01*
X0173621Y0053597D02*
X0075500Y0053597D01*
X0075063Y0052999D02*
X0173621Y0052999D01*
X0173621Y0052400D02*
X0074464Y0052400D01*
X0073866Y0051802D02*
X0173621Y0051802D01*
X0173621Y0051203D02*
X0162499Y0051203D01*
X0161967Y0051392D02*
X0161967Y0051392D01*
X0164183Y0050605D02*
X0173621Y0050605D01*
X0173621Y0050006D02*
X0165867Y0050006D01*
X0166971Y0049614D02*
X0166971Y0049614D01*
X0167263Y0049408D02*
X0173621Y0049408D01*
X0173621Y0048809D02*
X0168111Y0048809D01*
X0168959Y0048211D02*
X0173621Y0048211D01*
X0173621Y0047612D02*
X0169807Y0047612D01*
X0170655Y0047014D02*
X0173621Y0047014D01*
X0173621Y0046415D02*
X0171421Y0046415D01*
X0171310Y0046551D02*
X0171310Y0046551D01*
X0171907Y0045817D02*
X0173621Y0045817D01*
X0173621Y0045218D02*
X0172394Y0045218D01*
X0172881Y0044620D02*
X0173621Y0044620D01*
X0173621Y0044021D02*
X0173368Y0044021D01*
X0167225Y0057787D02*
X0158028Y0057787D01*
X0158329Y0058385D02*
X0166485Y0058385D01*
X0165962Y0058984D02*
X0158577Y0058984D01*
X0158825Y0059582D02*
X0165581Y0059582D01*
X0165306Y0060181D02*
X0159073Y0060181D01*
X0159200Y0060779D02*
X0165116Y0060779D01*
X0165022Y0061378D02*
X0159200Y0061378D01*
X0159200Y0061976D02*
X0165000Y0061976D01*
X0165000Y0062575D02*
X0159200Y0062575D01*
X0159200Y0063173D02*
X0165000Y0063173D01*
X0165000Y0063772D02*
X0159200Y0063772D01*
X0159200Y0064370D02*
X0165000Y0064370D01*
X0165000Y0064969D02*
X0159200Y0064969D01*
X0156669Y0051755D02*
X0156669Y0051755D01*
X0154016Y0051203D02*
X0073267Y0051203D01*
X0071300Y0051203D02*
X0070700Y0051203D01*
X0070700Y0050800D02*
X0070700Y0055000D01*
X0066500Y0055000D01*
X0066500Y0053436D01*
X0069136Y0050800D01*
X0070700Y0050800D01*
X0070700Y0051802D02*
X0071300Y0051802D01*
X0071300Y0052400D02*
X0070700Y0052400D01*
X0070700Y0052999D02*
X0071300Y0052999D01*
X0071300Y0053597D02*
X0070700Y0053597D01*
X0070700Y0054196D02*
X0071300Y0054196D01*
X0071300Y0054794D02*
X0070700Y0054794D01*
X0070700Y0055393D02*
X0060000Y0055393D01*
X0060000Y0055991D02*
X0066500Y0055991D01*
X0066500Y0056590D02*
X0060000Y0056590D01*
X0060000Y0057188D02*
X0066524Y0057188D01*
X0067038Y0057787D02*
X0060000Y0057787D01*
X0060000Y0058385D02*
X0066439Y0058385D01*
X0065841Y0058984D02*
X0060000Y0058984D01*
X0060000Y0059582D02*
X0065288Y0059582D01*
X0065040Y0060181D02*
X0060000Y0060181D01*
X0060000Y0060779D02*
X0064792Y0060779D01*
X0064544Y0061378D02*
X0060000Y0061378D01*
X0061844Y0061976D02*
X0064300Y0061976D01*
X0064300Y0062575D02*
X0062922Y0062575D01*
X0063520Y0063173D02*
X0064300Y0063173D01*
X0064300Y0063772D02*
X0064119Y0063772D01*
X0066500Y0054794D02*
X0060000Y0054794D01*
X0060000Y0054196D02*
X0066500Y0054196D01*
X0066500Y0053597D02*
X0060000Y0053597D01*
X0060000Y0052999D02*
X0066937Y0052999D01*
X0067536Y0052400D02*
X0060000Y0052400D01*
X0060000Y0051802D02*
X0068134Y0051802D01*
X0068733Y0051203D02*
X0060000Y0051203D01*
X0060000Y0050605D02*
X0151336Y0050605D01*
X0150181Y0050006D02*
X0060000Y0050006D01*
X0060000Y0049408D02*
X0149026Y0049408D01*
X0147871Y0048809D02*
X0060000Y0048809D01*
X0060000Y0048211D02*
X0146733Y0048211D01*
X0146092Y0047612D02*
X0060000Y0047612D01*
X0060000Y0047014D02*
X0145451Y0047014D01*
X0144811Y0046415D02*
X0089249Y0046415D01*
X0088864Y0046800D02*
X0087300Y0046800D01*
X0087300Y0042600D01*
X0086700Y0042600D01*
X0086700Y0046800D01*
X0085136Y0046800D01*
X0082500Y0044164D01*
X0082500Y0042600D01*
X0086700Y0042600D01*
X0086700Y0042000D01*
X0082500Y0042000D01*
X0082500Y0040436D01*
X0085136Y0037800D01*
X0086700Y0037800D01*
X0086700Y0042000D01*
X0087300Y0042000D01*
X0087300Y0042600D01*
X0091500Y0042600D01*
X0091500Y0044164D01*
X0088864Y0046800D01*
X0089847Y0045817D02*
X0144170Y0045817D01*
X0143529Y0045218D02*
X0090446Y0045218D01*
X0091044Y0044620D02*
X0142888Y0044620D01*
X0142874Y0044606D02*
X0142874Y0044606D01*
X0142518Y0044021D02*
X0091500Y0044021D01*
X0091500Y0043423D02*
X0142154Y0043423D01*
X0141790Y0042824D02*
X0091500Y0042824D01*
X0091500Y0042000D02*
X0087300Y0042000D01*
X0087300Y0037800D01*
X0088864Y0037800D01*
X0091500Y0040436D01*
X0091500Y0042000D01*
X0091500Y0041627D02*
X0141062Y0041627D01*
X0140698Y0041029D02*
X0091500Y0041029D01*
X0091494Y0040430D02*
X0140334Y0040430D01*
X0140114Y0040069D02*
X0140114Y0040069D01*
X0140048Y0039832D02*
X0118819Y0039832D01*
X0118412Y0040000D02*
X0115588Y0040000D01*
X0112978Y0038919D01*
X0110981Y0036922D01*
X0109900Y0034312D01*
X0109900Y0024288D01*
X0110981Y0021678D01*
X0112978Y0019681D01*
X0115588Y0018600D01*
X0118412Y0018600D01*
X0121022Y0019681D01*
X0123019Y0021678D01*
X0123333Y0022437D01*
X0123808Y0021962D01*
X0124432Y0021509D01*
X0125119Y0021159D01*
X0125853Y0020921D01*
X0126614Y0020800D01*
X0126700Y0020800D01*
X0126700Y0029000D01*
X0127300Y0029000D01*
X0127300Y0029600D01*
X0131900Y0029600D01*
X0131900Y0033286D01*
X0131779Y0034047D01*
X0131541Y0034781D01*
X0131191Y0035468D01*
X0130737Y0036092D01*
X0130192Y0036638D01*
X0129568Y0037091D01*
X0128881Y0037441D01*
X0128147Y0037679D01*
X0127386Y0037800D01*
X0127300Y0037800D01*
X0127300Y0029600D01*
X0126700Y0029600D01*
X0126700Y0037800D01*
X0126614Y0037800D01*
X0125853Y0037679D01*
X0125119Y0037441D01*
X0124432Y0037091D01*
X0123808Y0036638D01*
X0123333Y0036163D01*
X0123019Y0036922D01*
X0121022Y0038919D01*
X0118412Y0040000D01*
X0120264Y0039233D02*
X0139880Y0039233D01*
X0139713Y0038634D02*
X0121306Y0038634D01*
X0121905Y0038036D02*
X0139545Y0038036D01*
X0139377Y0037437D02*
X0128888Y0037437D01*
X0129915Y0036839D02*
X0139209Y0036839D01*
X0139042Y0036240D02*
X0130589Y0036240D01*
X0131065Y0035642D02*
X0138874Y0035642D01*
X0138706Y0035043D02*
X0131407Y0035043D01*
X0131650Y0034445D02*
X0138682Y0034445D01*
X0138682Y0033846D02*
X0131811Y0033846D01*
X0131900Y0033248D02*
X0138682Y0033248D01*
X0138682Y0032649D02*
X0131900Y0032649D01*
X0131900Y0032051D02*
X0138682Y0032051D01*
X0138682Y0031452D02*
X0131900Y0031452D01*
X0131900Y0030854D02*
X0138682Y0030854D01*
X0138682Y0030255D02*
X0131900Y0030255D01*
X0131900Y0029657D02*
X0138682Y0029657D01*
X0138846Y0029058D02*
X0127300Y0029058D01*
X0127300Y0029000D02*
X0131900Y0029000D01*
X0131900Y0025314D01*
X0131779Y0024553D01*
X0131541Y0023819D01*
X0131191Y0023132D01*
X0130737Y0022508D01*
X0130192Y0021962D01*
X0129568Y0021509D01*
X0128881Y0021159D01*
X0128147Y0020921D01*
X0127386Y0020800D01*
X0127300Y0020800D01*
X0127300Y0029000D01*
X0127300Y0028460D02*
X0126700Y0028460D01*
X0126700Y0027861D02*
X0127300Y0027861D01*
X0127300Y0027263D02*
X0126700Y0027263D01*
X0126700Y0026664D02*
X0127300Y0026664D01*
X0127300Y0026066D02*
X0126700Y0026066D01*
X0126700Y0025467D02*
X0127300Y0025467D01*
X0127300Y0024869D02*
X0126700Y0024869D01*
X0126700Y0024270D02*
X0127300Y0024270D01*
X0127300Y0023672D02*
X0126700Y0023672D01*
X0126700Y0023073D02*
X0127300Y0023073D01*
X0127300Y0022475D02*
X0126700Y0022475D01*
X0126700Y0021876D02*
X0127300Y0021876D01*
X0127300Y0021278D02*
X0126700Y0021278D01*
X0124886Y0021278D02*
X0122619Y0021278D01*
X0123101Y0021876D02*
X0123927Y0021876D01*
X0122020Y0020679D02*
X0142457Y0020679D01*
X0142821Y0020081D02*
X0121422Y0020081D01*
X0120542Y0019482D02*
X0143421Y0019482D01*
X0142874Y0019994D02*
X0142874Y0019994D01*
X0142093Y0021278D02*
X0129114Y0021278D01*
X0130073Y0021876D02*
X0141729Y0021876D01*
X0141365Y0022475D02*
X0130704Y0022475D01*
X0131148Y0023073D02*
X0141001Y0023073D01*
X0140637Y0023672D02*
X0131466Y0023672D01*
X0131688Y0024270D02*
X0140273Y0024270D01*
X0140114Y0024531D02*
X0140114Y0024531D01*
X0140020Y0024869D02*
X0131829Y0024869D01*
X0131900Y0025467D02*
X0139852Y0025467D01*
X0139684Y0026066D02*
X0131900Y0026066D01*
X0131900Y0026664D02*
X0139517Y0026664D01*
X0139349Y0027263D02*
X0131900Y0027263D01*
X0131900Y0027861D02*
X0139181Y0027861D01*
X0139014Y0028460D02*
X0131900Y0028460D01*
X0127300Y0029657D02*
X0126700Y0029657D01*
X0126700Y0030255D02*
X0127300Y0030255D01*
X0127300Y0030854D02*
X0126700Y0030854D01*
X0126700Y0031452D02*
X0127300Y0031452D01*
X0127300Y0032051D02*
X0126700Y0032051D01*
X0126700Y0032649D02*
X0127300Y0032649D01*
X0127300Y0033248D02*
X0126700Y0033248D01*
X0126700Y0033846D02*
X0127300Y0033846D01*
X0127300Y0034445D02*
X0126700Y0034445D01*
X0126700Y0035043D02*
X0127300Y0035043D01*
X0127300Y0035642D02*
X0126700Y0035642D01*
X0126700Y0036240D02*
X0127300Y0036240D01*
X0127300Y0036839D02*
X0126700Y0036839D01*
X0126700Y0037437D02*
X0127300Y0037437D01*
X0125112Y0037437D02*
X0122503Y0037437D01*
X0123053Y0036839D02*
X0124085Y0036839D01*
X0123411Y0036240D02*
X0123301Y0036240D01*
X0115181Y0039832D02*
X0090895Y0039832D01*
X0090297Y0039233D02*
X0113736Y0039233D01*
X0112694Y0038634D02*
X0089698Y0038634D01*
X0089100Y0038036D02*
X0112095Y0038036D01*
X0111497Y0037437D02*
X0060000Y0037437D01*
X0060000Y0036839D02*
X0110947Y0036839D01*
X0110699Y0036240D02*
X0060000Y0036240D01*
X0060000Y0035642D02*
X0110451Y0035642D01*
X0110203Y0035043D02*
X0060000Y0035043D01*
X0060000Y0034445D02*
X0109955Y0034445D01*
X0109900Y0033846D02*
X0060000Y0033846D01*
X0060000Y0033248D02*
X0109900Y0033248D01*
X0109900Y0032649D02*
X0060000Y0032649D01*
X0060000Y0032051D02*
X0109900Y0032051D01*
X0109900Y0031452D02*
X0060000Y0031452D01*
X0060000Y0030854D02*
X0109900Y0030854D01*
X0109900Y0030255D02*
X0060000Y0030255D01*
X0060000Y0029657D02*
X0109900Y0029657D01*
X0109900Y0029058D02*
X0060000Y0029058D01*
X0060000Y0028460D02*
X0109900Y0028460D01*
X0109900Y0027861D02*
X0060000Y0027861D01*
X0060000Y0027263D02*
X0109900Y0027263D01*
X0109900Y0026664D02*
X0060000Y0026664D01*
X0060000Y0026066D02*
X0109900Y0026066D01*
X0109900Y0025467D02*
X0060000Y0025467D01*
X0060000Y0024869D02*
X0109900Y0024869D01*
X0109907Y0024270D02*
X0060000Y0024270D01*
X0060000Y0023672D02*
X0110155Y0023672D01*
X0110403Y0023073D02*
X0060000Y0023073D01*
X0060000Y0022475D02*
X0110651Y0022475D01*
X0110899Y0021876D02*
X0060000Y0021876D01*
X0060000Y0021278D02*
X0111381Y0021278D01*
X0111980Y0020679D02*
X0060000Y0020679D01*
X0060000Y0020081D02*
X0112578Y0020081D01*
X0113458Y0019482D02*
X0060000Y0019482D01*
X0060000Y0018884D02*
X0114903Y0018884D01*
X0119097Y0018884D02*
X0144062Y0018884D01*
X0144703Y0018285D02*
X0060000Y0018285D01*
X0060000Y0017687D02*
X0145344Y0017687D01*
X0145985Y0017088D02*
X0060000Y0017088D01*
X0060000Y0038036D02*
X0084900Y0038036D01*
X0084302Y0038634D02*
X0060000Y0038634D01*
X0060000Y0039233D02*
X0083703Y0039233D01*
X0083105Y0039832D02*
X0060000Y0039832D01*
X0060000Y0040430D02*
X0082506Y0040430D01*
X0082500Y0041029D02*
X0060000Y0041029D01*
X0060000Y0041627D02*
X0082500Y0041627D01*
X0082500Y0042824D02*
X0060000Y0042824D01*
X0060000Y0042226D02*
X0086700Y0042226D01*
X0086700Y0042824D02*
X0087300Y0042824D01*
X0087300Y0042226D02*
X0141426Y0042226D01*
X0147968Y0055991D02*
X0075500Y0055991D01*
X0075500Y0056590D02*
X0147369Y0056590D01*
X0146771Y0057188D02*
X0075476Y0057188D01*
X0074962Y0057787D02*
X0146172Y0057787D01*
X0145871Y0058385D02*
X0075561Y0058385D01*
X0076159Y0058984D02*
X0145623Y0058984D01*
X0145375Y0059582D02*
X0076712Y0059582D01*
X0076960Y0060181D02*
X0145127Y0060181D01*
X0145000Y0060779D02*
X0077208Y0060779D01*
X0077456Y0061378D02*
X0145000Y0061378D01*
X0145000Y0061976D02*
X0077700Y0061976D01*
X0077700Y0062575D02*
X0145000Y0062575D01*
X0145000Y0063173D02*
X0077700Y0063173D01*
X0077700Y0063772D02*
X0145000Y0063772D01*
X0145000Y0064370D02*
X0077700Y0064370D01*
X0077561Y0064969D02*
X0145000Y0064969D01*
X0145000Y0065568D02*
X0077313Y0065568D01*
X0077065Y0066166D02*
X0083659Y0066166D01*
X0083060Y0066765D02*
X0076817Y0066765D01*
X0076412Y0067363D02*
X0082462Y0067363D01*
X0081863Y0067962D02*
X0076100Y0067962D01*
X0076100Y0068560D02*
X0081265Y0068560D01*
X0080666Y0069159D02*
X0076100Y0069159D01*
X0076100Y0069757D02*
X0080300Y0069757D01*
X0080300Y0070356D02*
X0076100Y0070356D01*
X0076100Y0070954D02*
X0080300Y0070954D01*
X0080300Y0071553D02*
X0076100Y0071553D01*
X0076100Y0072151D02*
X0079936Y0072151D01*
X0079338Y0072750D02*
X0076100Y0072750D01*
X0076100Y0073348D02*
X0078739Y0073348D01*
X0078141Y0073947D02*
X0076100Y0073947D01*
X0083588Y0082924D02*
X0146635Y0082924D01*
X0146062Y0083523D02*
X0082990Y0083523D01*
X0081687Y0084121D02*
X0145814Y0084121D01*
X0145567Y0084720D02*
X0076100Y0084720D01*
X0076100Y0085318D02*
X0145319Y0085318D01*
X0145071Y0085917D02*
X0076100Y0085917D01*
X0076100Y0086515D02*
X0145000Y0086515D01*
X0145000Y0087114D02*
X0076100Y0087114D01*
X0076100Y0087712D02*
X0145000Y0087712D01*
X0145000Y0088311D02*
X0076100Y0088311D01*
X0076100Y0088909D02*
X0145000Y0088909D01*
X0145000Y0089508D02*
X0076100Y0089508D01*
X0076100Y0090106D02*
X0145000Y0090106D01*
X0145000Y0090705D02*
X0076100Y0090705D01*
X0076100Y0091303D02*
X0145000Y0091303D01*
X0145000Y0091902D02*
X0076100Y0091902D01*
X0076100Y0092501D02*
X0145000Y0092501D01*
X0145000Y0093099D02*
X0076100Y0093099D01*
X0076100Y0093698D02*
X0086131Y0093698D01*
X0084770Y0094296D02*
X0076100Y0094296D01*
X0076100Y0094895D02*
X0084172Y0094895D01*
X0083573Y0095493D02*
X0076100Y0095493D01*
X0076100Y0096092D02*
X0083174Y0096092D01*
X0082926Y0096690D02*
X0076100Y0096690D01*
X0076100Y0097289D02*
X0082678Y0097289D01*
X0082496Y0097887D02*
X0076100Y0097887D01*
X0076100Y0098486D02*
X0082496Y0098486D01*
X0082496Y0099084D02*
X0076100Y0099084D01*
X0076100Y0099683D02*
X0082496Y0099683D01*
X0082666Y0100281D02*
X0076100Y0100281D01*
X0076100Y0100880D02*
X0082914Y0100880D01*
X0083162Y0101478D02*
X0076100Y0101478D01*
X0076100Y0102077D02*
X0083543Y0102077D01*
X0084141Y0102675D02*
X0076100Y0102675D01*
X0076100Y0103274D02*
X0084740Y0103274D01*
X0086058Y0103872D02*
X0076100Y0103872D01*
X0076100Y0104471D02*
X0087185Y0104471D01*
X0093329Y0097887D02*
X0145735Y0097887D01*
X0145487Y0097289D02*
X0093078Y0097289D01*
X0092831Y0096690D02*
X0145239Y0096690D01*
X0145000Y0096092D02*
X0092583Y0096092D01*
X0092184Y0095493D02*
X0145000Y0095493D01*
X0145000Y0094895D02*
X0091585Y0094895D01*
X0090987Y0094296D02*
X0145000Y0094296D01*
X0145000Y0093698D02*
X0089626Y0093698D01*
X0093928Y0098486D02*
X0145983Y0098486D01*
X0142741Y0099084D02*
X0119259Y0099084D01*
X0119858Y0099683D02*
X0142142Y0099683D01*
X0141544Y0100281D02*
X0120456Y0100281D01*
X0121055Y0100880D02*
X0140945Y0100880D01*
X0140347Y0101478D02*
X0121653Y0101478D01*
X0122252Y0102077D02*
X0139748Y0102077D01*
X0139300Y0102675D02*
X0122700Y0102675D01*
X0122700Y0103274D02*
X0139300Y0103274D01*
X0139300Y0103872D02*
X0122700Y0103872D01*
X0122700Y0104471D02*
X0139300Y0104471D01*
X0139300Y0105069D02*
X0122700Y0105069D01*
X0122700Y0105668D02*
X0139300Y0105668D01*
X0139300Y0106266D02*
X0122700Y0106266D01*
X0122700Y0106865D02*
X0139300Y0106865D01*
X0139300Y0107463D02*
X0122700Y0107463D01*
X0118624Y0117039D02*
X0150651Y0117039D01*
X0150899Y0116441D02*
X0142762Y0116441D01*
X0143821Y0115842D02*
X0151147Y0115842D01*
X0151415Y0115244D02*
X0144420Y0115244D01*
X0145019Y0114645D02*
X0152014Y0114645D01*
X0152612Y0114047D02*
X0145617Y0114047D01*
X0146216Y0113448D02*
X0153211Y0113448D01*
X0154020Y0112850D02*
X0146814Y0112850D01*
X0147413Y0112251D02*
X0153488Y0112251D01*
X0153099Y0111653D02*
X0149122Y0111653D01*
X0149721Y0111054D02*
X0152818Y0111054D01*
X0152623Y0110456D02*
X0150319Y0110456D01*
X0150918Y0109857D02*
X0152527Y0109857D01*
X0151516Y0109259D02*
X0160700Y0109259D01*
X0156568Y0104471D02*
X0152700Y0104471D01*
X0152700Y0105069D02*
X0154910Y0105069D01*
X0154103Y0105668D02*
X0152700Y0105668D01*
X0152700Y0106266D02*
X0153547Y0106266D01*
X0153141Y0106865D02*
X0152700Y0106865D01*
X0152700Y0107463D02*
X0152845Y0107463D01*
X0152540Y0108660D02*
X0152115Y0108660D01*
X0157757Y0099084D02*
X0167711Y0099084D01*
X0166774Y0098486D02*
X0158217Y0098486D01*
X0158465Y0097887D02*
X0166159Y0097887D01*
X0165724Y0097289D02*
X0158713Y0097289D01*
X0158961Y0096690D02*
X0165415Y0096690D01*
X0165200Y0096092D02*
X0159200Y0096092D01*
X0159200Y0095493D02*
X0165065Y0095493D01*
X0165000Y0094895D02*
X0159200Y0094895D01*
X0159200Y0094296D02*
X0165000Y0094296D01*
X0165000Y0093698D02*
X0159200Y0093698D01*
X0159200Y0093099D02*
X0165000Y0093099D01*
X0165000Y0092501D02*
X0159200Y0092501D01*
X0159200Y0091902D02*
X0165000Y0091902D01*
X0169600Y0090705D02*
X0170200Y0090705D01*
X0170200Y0090106D02*
X0169600Y0090106D01*
X0169600Y0089508D02*
X0170200Y0089508D01*
X0170200Y0088909D02*
X0169600Y0088909D01*
X0169600Y0088311D02*
X0170200Y0088311D01*
X0170200Y0087712D02*
X0169600Y0087712D01*
X0169600Y0087114D02*
X0170200Y0087114D01*
X0170200Y0086515D02*
X0169600Y0086515D01*
X0169600Y0085917D02*
X0170200Y0085917D01*
X0170200Y0085318D02*
X0169600Y0085318D01*
X0169600Y0084720D02*
X0170200Y0084720D01*
X0170200Y0084121D02*
X0169600Y0084121D01*
X0169600Y0083523D02*
X0170200Y0083523D01*
X0170200Y0082924D02*
X0169600Y0082924D01*
X0149257Y0055393D02*
X0071300Y0055393D01*
X0060000Y0046415D02*
X0084751Y0046415D01*
X0084153Y0045817D02*
X0060000Y0045817D01*
X0060000Y0045218D02*
X0083554Y0045218D01*
X0082956Y0044620D02*
X0060000Y0044620D01*
X0060000Y0044021D02*
X0082500Y0044021D01*
X0082500Y0043423D02*
X0060000Y0043423D01*
X0086700Y0043423D02*
X0087300Y0043423D01*
X0087300Y0044021D02*
X0086700Y0044021D01*
X0086700Y0044620D02*
X0087300Y0044620D01*
X0087300Y0045218D02*
X0086700Y0045218D01*
X0086700Y0045817D02*
X0087300Y0045817D01*
X0087300Y0046415D02*
X0086700Y0046415D01*
X0086700Y0041627D02*
X0087300Y0041627D01*
X0087300Y0041029D02*
X0086700Y0041029D01*
X0086700Y0040430D02*
X0087300Y0040430D01*
X0087300Y0039832D02*
X0086700Y0039832D01*
X0086700Y0039233D02*
X0087300Y0039233D01*
X0087300Y0038634D02*
X0086700Y0038634D01*
X0086700Y0038036D02*
X0087300Y0038036D01*
X0090341Y0066166D02*
X0145000Y0066166D01*
X0145000Y0066765D02*
X0090940Y0066765D01*
X0091538Y0067363D02*
X0145000Y0067363D01*
X0145000Y0067962D02*
X0092137Y0067962D01*
X0092735Y0068560D02*
X0145000Y0068560D01*
X0145000Y0069159D02*
X0093334Y0069159D01*
X0093700Y0069757D02*
X0145000Y0069757D01*
X0145000Y0070356D02*
X0093700Y0070356D01*
X0093700Y0070954D02*
X0145183Y0070954D01*
X0145431Y0071553D02*
X0093700Y0071553D01*
X0093700Y0072151D02*
X0145679Y0072151D01*
X0145927Y0072750D02*
X0093700Y0072750D01*
X0093700Y0073348D02*
X0146307Y0073348D01*
X0146906Y0073947D02*
X0093700Y0073947D01*
X0093700Y0074545D02*
X0147504Y0074545D01*
X0147600Y0075144D02*
X0093632Y0075144D01*
X0093033Y0075742D02*
X0147600Y0075742D01*
X0147600Y0076341D02*
X0092434Y0076341D01*
X0091836Y0076939D02*
X0147600Y0076939D01*
X0147600Y0077538D02*
X0091237Y0077538D01*
X0090639Y0078136D02*
X0147600Y0078136D01*
X0147600Y0078735D02*
X0090040Y0078735D01*
X0087179Y0079333D02*
X0147600Y0079333D01*
X0147600Y0079932D02*
X0086581Y0079932D01*
X0085982Y0080530D02*
X0147600Y0080530D01*
X0147600Y0081129D02*
X0085384Y0081129D01*
X0084785Y0081727D02*
X0147600Y0081727D01*
X0147233Y0082326D02*
X0084187Y0082326D01*
X0094526Y0099084D02*
X0112741Y0099084D01*
X0112142Y0099683D02*
X0095125Y0099683D01*
X0095723Y0100281D02*
X0111544Y0100281D01*
X0110945Y0100880D02*
X0096322Y0100880D01*
X0096920Y0101478D02*
X0110347Y0101478D01*
X0109748Y0102077D02*
X0097519Y0102077D01*
X0098118Y0102675D02*
X0109300Y0102675D01*
X0109300Y0103274D02*
X0098716Y0103274D01*
X0099022Y0103872D02*
X0109300Y0103872D01*
X0109300Y0104471D02*
X0099270Y0104471D01*
X0099500Y0105069D02*
X0109300Y0105069D01*
X0109300Y0105668D02*
X0099500Y0105668D01*
X0099500Y0106266D02*
X0109300Y0106266D01*
X0109300Y0106865D02*
X0099500Y0106865D01*
X0099500Y0107463D02*
X0109300Y0107463D01*
X0109300Y0108062D02*
X0099500Y0108062D01*
X0099500Y0108660D02*
X0109885Y0108660D01*
X0110484Y0109259D02*
X0099500Y0109259D01*
X0099500Y0109857D02*
X0111082Y0109857D01*
X0111681Y0110456D02*
X0099500Y0110456D01*
X0099500Y0111054D02*
X0111882Y0111054D01*
X0111283Y0111653D02*
X0099500Y0111653D01*
X0099500Y0112251D02*
X0110685Y0112251D01*
X0110086Y0112850D02*
X0099500Y0112850D01*
X0099500Y0113448D02*
X0109488Y0113448D01*
X0108889Y0114047D02*
X0099500Y0114047D01*
X0099500Y0114645D02*
X0108291Y0114645D01*
X0107692Y0115244D02*
X0099500Y0115244D01*
X0099500Y0115842D02*
X0107094Y0115842D01*
X0106495Y0116441D02*
X0099500Y0116441D01*
X0099500Y0117039D02*
X0105897Y0117039D01*
X0105298Y0117638D02*
X0099500Y0117638D01*
X0118026Y0117638D02*
X0150403Y0117638D01*
X0151258Y0123025D02*
X0145089Y0123025D01*
X0145687Y0123623D02*
X0151682Y0123623D01*
X0152281Y0124222D02*
X0146286Y0124222D01*
X0160700Y0166716D02*
X0161300Y0166716D01*
X0161300Y0167314D02*
X0160700Y0167314D01*
X0160700Y0167913D02*
X0161300Y0167913D01*
X0161300Y0168511D02*
X0160700Y0168511D01*
X0160700Y0169110D02*
X0161300Y0169110D01*
X0161300Y0169708D02*
X0160700Y0169708D01*
X0160700Y0170307D02*
X0161300Y0170307D01*
X0153667Y0174497D02*
X0150409Y0174497D01*
X0151008Y0175095D02*
X0153827Y0175095D01*
X0152965Y0175694D02*
X0151606Y0175694D01*
X0153231Y0173898D02*
X0149811Y0173898D01*
X0149212Y0173300D02*
X0152919Y0173300D01*
X0152501Y0170905D02*
X0146818Y0170905D01*
X0146219Y0170307D02*
X0152596Y0170307D01*
X0152765Y0169708D02*
X0145242Y0169708D01*
X0168173Y0175095D02*
X0173621Y0175095D01*
X0173621Y0174497D02*
X0168333Y0174497D01*
X0168769Y0173898D02*
X0173621Y0173898D01*
X0173621Y0173300D02*
X0169081Y0173300D01*
X0169297Y0172701D02*
X0173621Y0172701D01*
X0173621Y0172103D02*
X0169434Y0172103D01*
X0169035Y0175694D02*
X0173621Y0175694D01*
X0173621Y0176292D02*
X0169633Y0176292D01*
X0170232Y0176891D02*
X0173621Y0176891D01*
X0173621Y0177489D02*
X0170706Y0177489D01*
X0170954Y0178088D02*
X0173621Y0178088D01*
X0173621Y0178686D02*
X0171202Y0178686D01*
X0171450Y0179285D02*
X0173621Y0179285D01*
X0173621Y0179883D02*
X0171698Y0179883D01*
X0171700Y0180482D02*
X0173621Y0180482D01*
X0173621Y0181080D02*
X0171700Y0181080D01*
X0171700Y0181679D02*
X0173621Y0181679D01*
X0173621Y0182277D02*
X0171700Y0182277D01*
X0171632Y0182876D02*
X0173621Y0182876D01*
X0173621Y0183474D02*
X0171384Y0183474D01*
X0171136Y0184073D02*
X0173621Y0184073D01*
X0173621Y0184671D02*
X0170889Y0184671D01*
X0170641Y0185270D02*
X0173621Y0185270D01*
X0173621Y0185868D02*
X0170073Y0185868D01*
X0169808Y0186467D02*
X0173621Y0186467D01*
X0173621Y0187065D02*
X0170406Y0187065D01*
X0170779Y0187664D02*
X0173621Y0187664D01*
X0173621Y0188262D02*
X0171027Y0188262D01*
X0171275Y0188861D02*
X0173621Y0188861D01*
X0173621Y0189459D02*
X0171523Y0189459D01*
X0171700Y0190058D02*
X0173621Y0190058D01*
X0173621Y0190656D02*
X0171700Y0190656D01*
X0171700Y0191255D02*
X0173621Y0191255D01*
X0173621Y0191853D02*
X0171700Y0191853D01*
X0171700Y0192452D02*
X0173621Y0192452D01*
X0173621Y0193050D02*
X0171560Y0193050D01*
X0171312Y0193649D02*
X0173621Y0193649D01*
X0173621Y0194247D02*
X0171064Y0194247D01*
X0170816Y0194846D02*
X0173621Y0194846D01*
X0173621Y0195444D02*
X0170496Y0195444D01*
X0169898Y0196043D02*
X0173621Y0196043D01*
X0173621Y0196641D02*
X0169982Y0196641D01*
X0170581Y0197240D02*
X0173621Y0197240D01*
X0173621Y0197839D02*
X0170851Y0197839D01*
X0171099Y0198437D02*
X0173621Y0198437D01*
X0173621Y0199036D02*
X0171347Y0199036D01*
X0171595Y0199634D02*
X0173621Y0199634D01*
X0173621Y0200233D02*
X0171700Y0200233D01*
X0171700Y0200831D02*
X0173621Y0200831D01*
X0173621Y0201430D02*
X0171700Y0201430D01*
X0171700Y0202028D02*
X0173621Y0202028D01*
X0173621Y0202627D02*
X0171700Y0202627D01*
X0171488Y0203225D02*
X0173621Y0203225D01*
X0173621Y0203824D02*
X0171240Y0203824D01*
X0170992Y0204422D02*
X0173621Y0204422D01*
X0173621Y0205021D02*
X0170744Y0205021D01*
X0170322Y0205619D02*
X0173621Y0205619D01*
X0173621Y0206218D02*
X0169723Y0206218D01*
X0170157Y0206816D02*
X0173621Y0206816D01*
X0173621Y0207415D02*
X0170676Y0207415D01*
X0170924Y0208013D02*
X0173621Y0208013D01*
X0173621Y0208612D02*
X0171171Y0208612D01*
X0171419Y0209210D02*
X0173621Y0209210D01*
X0173621Y0209809D02*
X0171667Y0209809D01*
X0171700Y0210407D02*
X0173621Y0210407D01*
X0173621Y0211006D02*
X0171700Y0211006D01*
X0171700Y0211604D02*
X0173621Y0211604D01*
X0173621Y0212203D02*
X0171700Y0212203D01*
X0171663Y0212801D02*
X0173621Y0212801D01*
X0173621Y0213400D02*
X0171415Y0213400D01*
X0171167Y0213998D02*
X0173621Y0213998D01*
X0173621Y0214597D02*
X0170919Y0214597D01*
X0170671Y0215195D02*
X0173621Y0215195D01*
X0173621Y0215794D02*
X0170147Y0215794D01*
X0169549Y0216392D02*
X0173621Y0216392D01*
X0173621Y0216991D02*
X0168950Y0216991D01*
X0167969Y0217589D02*
X0173621Y0217589D01*
X0173621Y0218188D02*
X0166524Y0218188D01*
X0162957Y0229560D02*
X0173621Y0229560D01*
X0173621Y0230158D02*
X0164641Y0230158D01*
X0166325Y0230757D02*
X0173621Y0230757D01*
X0173621Y0231355D02*
X0167494Y0231355D01*
X0168342Y0231954D02*
X0173621Y0231954D01*
X0173621Y0232552D02*
X0169190Y0232552D01*
X0170038Y0233151D02*
X0173621Y0233151D01*
X0173621Y0233749D02*
X0170885Y0233749D01*
X0171310Y0234049D02*
X0171310Y0234049D01*
X0171310Y0234049D01*
X0171553Y0234348D02*
X0173621Y0234348D01*
X0173621Y0234946D02*
X0172040Y0234946D01*
X0172527Y0235545D02*
X0173621Y0235545D01*
X0173621Y0236143D02*
X0173014Y0236143D01*
X0173501Y0236742D02*
X0173621Y0236742D01*
X0059000Y0103872D02*
X0043428Y0103872D01*
X0044026Y0103274D02*
X0059000Y0103274D01*
X0059000Y0102675D02*
X0044625Y0102675D01*
X0045223Y0102077D02*
X0059000Y0102077D01*
X0059000Y0101478D02*
X0045822Y0101478D01*
X0046420Y0100880D02*
X0059000Y0100880D01*
X0059000Y0100281D02*
X0047019Y0100281D01*
X0047617Y0099683D02*
X0059000Y0099683D01*
X0059000Y0099084D02*
X0048216Y0099084D01*
X0048814Y0098486D02*
X0059000Y0098486D01*
X0059000Y0094296D02*
X0048996Y0094296D01*
X0048398Y0093698D02*
X0059000Y0093698D01*
X0059000Y0093099D02*
X0047799Y0093099D01*
X0047201Y0092501D02*
X0059000Y0092501D01*
X0059000Y0091902D02*
X0046602Y0091902D01*
X0046003Y0091303D02*
X0059000Y0091303D01*
X0059000Y0090705D02*
X0045405Y0090705D01*
X0044806Y0090106D02*
X0059000Y0090106D01*
X0059000Y0089508D02*
X0044208Y0089508D01*
X0043609Y0088909D02*
X0059000Y0088909D01*
X0059000Y0088311D02*
X0043011Y0088311D01*
D15*
X0048000Y0086300D03*
X0048000Y0079300D03*
X0048000Y0072300D03*
X0054000Y0079300D03*
X0048000Y0106300D03*
X0048000Y0113300D03*
X0048000Y0120300D03*
X0054000Y0113300D03*
X0087878Y0098800D03*
X0124000Y0135300D03*
X0118000Y0160300D03*
X0112000Y0160300D03*
X0107000Y0173300D03*
X0112000Y0193300D03*
X0101000Y0207300D03*
X0096000Y0202300D03*
X0080000Y0175300D03*
X0088000Y0174300D03*
X0070000Y0178300D03*
X0073000Y0201300D03*
X0065000Y0216300D03*
X0065000Y0221300D03*
X0119000Y0216300D03*
X0128000Y0197300D03*
X0128000Y0189300D03*
X0126000Y0184300D03*
D16*
X0125000Y0174300D02*
X0143000Y0174300D01*
X0150000Y0181300D01*
X0161000Y0181300D01*
X0125000Y0174300D02*
X0097000Y0202300D01*
X0101000Y0207300D02*
X0110000Y0207300D01*
X0119000Y0216300D01*
X0124000Y0174300D02*
X0124000Y0136300D01*
X0085000Y0119300D02*
X0071000Y0119300D01*
X0071000Y0079300D01*
X0066000Y0079300D01*
X0054000Y0079300D01*
X0071000Y0079300D02*
X0071000Y0063300D01*
X0071000Y0079300D02*
X0080000Y0079300D01*
X0087000Y0072300D01*
X0071000Y0149300D02*
X0071000Y0153300D01*
X0080000Y0162300D01*
X0050000Y0162300D02*
X0029000Y0162300D01*
D17*
X0073000Y0201300D02*
X0073000Y0219300D01*
X0086000Y0232300D01*
X0086000Y0250300D01*
X0106000Y0250300D02*
X0106000Y0241300D01*
X0125000Y0222300D01*
X0125000Y0206300D01*
X0112000Y0193300D01*
X0126000Y0184300D02*
X0130000Y0180300D01*
X0139000Y0180300D01*
X0150000Y0191300D01*
X0161000Y0191300D01*
X0161000Y0201300D02*
X0148000Y0201300D01*
X0136000Y0189300D01*
X0128000Y0189300D01*
X0125000Y0174300D02*
X0124000Y0174300D01*
X0118000Y0160300D02*
X0118000Y0133300D01*
X0124000Y0127300D01*
X0137000Y0127300D01*
X0149000Y0139300D01*
X0161000Y0139300D01*
X0161000Y0129300D02*
X0145000Y0129300D01*
X0139000Y0123300D01*
X0122000Y0123300D01*
X0112000Y0133300D01*
X0112000Y0160300D01*
X0107000Y0166300D02*
X0107000Y0122300D01*
X0117000Y0112300D01*
X0141000Y0112300D01*
X0146000Y0107300D01*
X0152100Y0091100D02*
X0152100Y0065500D01*
X0124000Y0135300D02*
X0124000Y0136300D01*
X0107000Y0166300D02*
X0107000Y0173300D01*
X0095000Y0167300D02*
X0095000Y0105922D01*
X0087878Y0098800D01*
X0095000Y0167300D02*
X0088000Y0174300D01*
X0096000Y0202300D02*
X0097000Y0202300D01*
D18*
X0146000Y0107300D02*
X0146000Y0105300D01*
M02*
