G75*
%MOIN*%
%OFA0B0*%
%FSLAX25Y25*%
%IPPOS*%
%LPD*%
%AMOC8*
5,1,8,0,0,1.08239X$1,22.5*
%
%ADD10R,0.05118X0.06299*%
%ADD11R,0.07008X0.02835*%
%ADD12R,0.03937X0.04331*%
%ADD13R,0.06299X0.05512*%
%ADD14R,0.04331X0.03937*%
%ADD15C,0.01181*%
%ADD16R,0.02165X0.04724*%
%ADD17R,0.05000X0.02200*%
%ADD18R,0.02200X0.05000*%
%ADD19R,0.03000X0.06000*%
%ADD20C,0.01772*%
D10*
X0089063Y0088300D03*
X0096937Y0088300D03*
X0103063Y0120300D03*
X0110937Y0120300D03*
D11*
X0055748Y0088800D03*
X0055748Y0093800D03*
X0055748Y0098800D03*
X0055748Y0103800D03*
X0074252Y0103800D03*
X0074252Y0098800D03*
X0074252Y0093800D03*
X0074252Y0088800D03*
D12*
X0124000Y0140954D03*
X0124000Y0147646D03*
X0138000Y0187954D03*
X0138000Y0194646D03*
X0065000Y0187646D03*
X0065000Y0180954D03*
X0138000Y0079646D03*
X0138000Y0072954D03*
D13*
X0134000Y0060812D03*
X0134000Y0049788D03*
X0102000Y0049788D03*
X0102000Y0060812D03*
D14*
X0121654Y0079300D03*
X0128346Y0079300D03*
X0139654Y0129300D03*
X0146346Y0129300D03*
X0146346Y0139300D03*
X0139654Y0139300D03*
X0080346Y0182300D03*
X0073654Y0182300D03*
X0072346Y0194300D03*
X0065654Y0194300D03*
D15*
X0064622Y0201469D02*
X0067378Y0201469D01*
X0064622Y0201469D02*
X0064622Y0204225D01*
X0067378Y0204225D01*
X0067378Y0201469D01*
X0067378Y0202591D02*
X0064622Y0202591D01*
X0064622Y0203713D02*
X0067378Y0203713D01*
X0067378Y0208375D02*
X0064622Y0208375D01*
X0064622Y0211131D01*
X0067378Y0211131D01*
X0067378Y0208375D01*
X0067378Y0209497D02*
X0064622Y0209497D01*
X0064622Y0210619D02*
X0067378Y0210619D01*
X0113622Y0077375D02*
X0116378Y0077375D01*
X0113622Y0077375D02*
X0113622Y0080131D01*
X0116378Y0080131D01*
X0116378Y0077375D01*
X0116378Y0078497D02*
X0113622Y0078497D01*
X0113622Y0079619D02*
X0116378Y0079619D01*
X0116378Y0070469D02*
X0113622Y0070469D01*
X0113622Y0073225D01*
X0116378Y0073225D01*
X0116378Y0070469D01*
X0116378Y0071591D02*
X0113622Y0071591D01*
X0113622Y0072713D02*
X0116378Y0072713D01*
D16*
X0115260Y0060419D03*
X0122740Y0060419D03*
X0122740Y0050181D03*
X0119000Y0050181D03*
X0115260Y0050181D03*
D17*
G36*
X0096300Y0177566D02*
X0099834Y0181100D01*
X0101390Y0179544D01*
X0097856Y0176010D01*
X0096300Y0177566D01*
G37*
G36*
X0094073Y0179793D02*
X0097607Y0183327D01*
X0099163Y0181771D01*
X0095629Y0178237D01*
X0094073Y0179793D01*
G37*
G36*
X0091846Y0182020D02*
X0095380Y0185554D01*
X0096936Y0183998D01*
X0093402Y0180464D01*
X0091846Y0182020D01*
G37*
G36*
X0089618Y0184247D02*
X0093152Y0187781D01*
X0094708Y0186225D01*
X0091174Y0182691D01*
X0089618Y0184247D01*
G37*
G36*
X0087391Y0186474D02*
X0090925Y0190008D01*
X0092481Y0188452D01*
X0088947Y0184918D01*
X0087391Y0186474D01*
G37*
G36*
X0085164Y0188702D02*
X0088698Y0192236D01*
X0090254Y0190680D01*
X0086720Y0187146D01*
X0085164Y0188702D01*
G37*
G36*
X0082937Y0190929D02*
X0086471Y0194463D01*
X0088027Y0192907D01*
X0084493Y0189373D01*
X0082937Y0190929D01*
G37*
G36*
X0080710Y0193156D02*
X0084244Y0196690D01*
X0085800Y0195134D01*
X0082266Y0191600D01*
X0080710Y0193156D01*
G37*
G36*
X0104610Y0217056D02*
X0108144Y0220590D01*
X0109700Y0219034D01*
X0106166Y0215500D01*
X0104610Y0217056D01*
G37*
G36*
X0106837Y0214829D02*
X0110371Y0218363D01*
X0111927Y0216807D01*
X0108393Y0213273D01*
X0106837Y0214829D01*
G37*
G36*
X0109064Y0212602D02*
X0112598Y0216136D01*
X0114154Y0214580D01*
X0110620Y0211046D01*
X0109064Y0212602D01*
G37*
G36*
X0111292Y0210375D02*
X0114826Y0213909D01*
X0116382Y0212353D01*
X0112848Y0208819D01*
X0111292Y0210375D01*
G37*
G36*
X0113519Y0208148D02*
X0117053Y0211682D01*
X0118609Y0210126D01*
X0115075Y0206592D01*
X0113519Y0208148D01*
G37*
G36*
X0115746Y0205920D02*
X0119280Y0209454D01*
X0120836Y0207898D01*
X0117302Y0204364D01*
X0115746Y0205920D01*
G37*
G36*
X0117973Y0203693D02*
X0121507Y0207227D01*
X0123063Y0205671D01*
X0119529Y0202137D01*
X0117973Y0203693D01*
G37*
G36*
X0120200Y0201466D02*
X0123734Y0205000D01*
X0125290Y0203444D01*
X0121756Y0199910D01*
X0120200Y0201466D01*
G37*
D18*
G36*
X0120200Y0195134D02*
X0121756Y0196690D01*
X0125290Y0193156D01*
X0123734Y0191600D01*
X0120200Y0195134D01*
G37*
G36*
X0117973Y0192907D02*
X0119529Y0194463D01*
X0123063Y0190929D01*
X0121507Y0189373D01*
X0117973Y0192907D01*
G37*
G36*
X0115746Y0190680D02*
X0117302Y0192236D01*
X0120836Y0188702D01*
X0119280Y0187146D01*
X0115746Y0190680D01*
G37*
G36*
X0113519Y0188452D02*
X0115075Y0190008D01*
X0118609Y0186474D01*
X0117053Y0184918D01*
X0113519Y0188452D01*
G37*
G36*
X0111292Y0186225D02*
X0112848Y0187781D01*
X0116382Y0184247D01*
X0114826Y0182691D01*
X0111292Y0186225D01*
G37*
G36*
X0109064Y0183998D02*
X0110620Y0185554D01*
X0114154Y0182020D01*
X0112598Y0180464D01*
X0109064Y0183998D01*
G37*
G36*
X0106837Y0181771D02*
X0108393Y0183327D01*
X0111927Y0179793D01*
X0110371Y0178237D01*
X0106837Y0181771D01*
G37*
G36*
X0104610Y0179544D02*
X0106166Y0181100D01*
X0109700Y0177566D01*
X0108144Y0176010D01*
X0104610Y0179544D01*
G37*
G36*
X0082937Y0205671D02*
X0084493Y0207227D01*
X0088027Y0203693D01*
X0086471Y0202137D01*
X0082937Y0205671D01*
G37*
G36*
X0080710Y0203444D02*
X0082266Y0205000D01*
X0085800Y0201466D01*
X0084244Y0199910D01*
X0080710Y0203444D01*
G37*
G36*
X0085164Y0207898D02*
X0086720Y0209454D01*
X0090254Y0205920D01*
X0088698Y0204364D01*
X0085164Y0207898D01*
G37*
G36*
X0087391Y0210126D02*
X0088947Y0211682D01*
X0092481Y0208148D01*
X0090925Y0206592D01*
X0087391Y0210126D01*
G37*
G36*
X0089618Y0212353D02*
X0091174Y0213909D01*
X0094708Y0210375D01*
X0093152Y0208819D01*
X0089618Y0212353D01*
G37*
G36*
X0091846Y0214580D02*
X0093402Y0216136D01*
X0096936Y0212602D01*
X0095380Y0211046D01*
X0091846Y0214580D01*
G37*
G36*
X0094073Y0216807D02*
X0095629Y0218363D01*
X0099163Y0214829D01*
X0097607Y0213273D01*
X0094073Y0216807D01*
G37*
G36*
X0096300Y0219034D02*
X0097856Y0220590D01*
X0101390Y0217056D01*
X0099834Y0215500D01*
X0096300Y0219034D01*
G37*
D19*
X0124500Y0177300D03*
X0124500Y0155300D03*
X0139500Y0155300D03*
X0139500Y0177300D03*
D20*
X0118724Y0225436D02*
X0118724Y0231164D01*
X0114000Y0231164D02*
X0114000Y0225436D01*
X0109276Y0225436D02*
X0109276Y0231164D01*
M02*
