G75*
%MOIN*%
%OFA0B0*%
%FSLAX25Y25*%
%IPPOS*%
%LPD*%
%AMOC8*
5,1,8,0,0,1.08239X$1,22.5*
%
%ADD10OC8,0.07200*%
%ADD11C,0.07200*%
%ADD12R,0.23800X0.23800*%
%ADD13C,0.13792*%
%ADD14C,0.08000*%
%ADD15C,0.04565*%
D10*
X0071000Y0055300D03*
X0087000Y0042300D03*
X0087000Y0072300D03*
X0116000Y0105300D03*
X0146000Y0105300D03*
X0085000Y0119300D03*
X0071000Y0119300D03*
X0071000Y0149300D03*
X0080000Y0162300D03*
X0085000Y0149300D03*
X0050000Y0162300D03*
D11*
X0071000Y0063300D03*
D12*
X0029000Y0074300D03*
X0029000Y0118300D03*
X0029000Y0162300D03*
X0029000Y0206300D03*
D13*
X0021000Y0032300D03*
X0158000Y0032300D03*
X0158000Y0248300D03*
X0021000Y0248300D03*
D14*
X0066000Y0246700D02*
X0066000Y0253900D01*
X0076000Y0253900D02*
X0076000Y0246700D01*
X0086000Y0246700D02*
X0086000Y0253900D01*
X0096000Y0253900D02*
X0096000Y0246700D01*
X0106000Y0246700D02*
X0106000Y0253900D01*
X0116000Y0253900D02*
X0116000Y0246700D01*
X0157400Y0211300D02*
X0164600Y0211300D01*
X0164600Y0201300D02*
X0157400Y0201300D01*
X0157400Y0191300D02*
X0164600Y0191300D01*
X0164600Y0181300D02*
X0157400Y0181300D01*
X0157400Y0171300D02*
X0164600Y0171300D01*
X0164600Y0161300D02*
X0157400Y0161300D01*
X0157400Y0139300D02*
X0164600Y0139300D01*
X0164600Y0129300D02*
X0157400Y0129300D01*
X0157400Y0119300D02*
X0164600Y0119300D01*
X0164600Y0109300D02*
X0157400Y0109300D01*
X0152100Y0094700D02*
X0152100Y0087500D01*
X0152100Y0069100D02*
X0152100Y0061900D01*
X0169900Y0061900D02*
X0169900Y0069100D01*
X0169900Y0087500D02*
X0169900Y0094700D01*
X0127000Y0032900D02*
X0127000Y0025700D01*
X0117000Y0025700D02*
X0117000Y0032900D01*
D15*
X0087878Y0098800D03*
X0054000Y0113300D03*
X0048000Y0113300D03*
X0048000Y0106300D03*
X0048000Y0120300D03*
X0048000Y0086300D03*
X0048000Y0079300D03*
X0048000Y0072300D03*
X0054000Y0079300D03*
X0112000Y0160300D03*
X0118000Y0160300D03*
X0107000Y0173300D03*
X0112000Y0193300D03*
X0101000Y0207300D03*
X0096000Y0202300D03*
X0080000Y0175300D03*
X0088000Y0174300D03*
X0070000Y0178300D03*
X0073000Y0201300D03*
X0065000Y0216300D03*
X0065000Y0221300D03*
X0119000Y0216300D03*
X0128000Y0197300D03*
X0128000Y0189300D03*
X0126000Y0184300D03*
X0124000Y0135300D03*
M02*
